<svg width="32" height="32" viewBox="0 0 32 32" fill="none" xmlns="http://www.w3.org/2000/svg">
<path d="M5.33329 25.3333H10.6666V14.6667H5.33329V25.3333ZM13.3333 25.3333H18.6666V6.66667H13.3333V25.3333ZM21.3333 25.3333H26.6666V17.3333H21.3333V25.3333ZM2.66663 25.3333V14.6667C2.66663 13.9333 2.92796 13.3058 3.45063 12.784C3.97329 12.2622 4.60085 12.0009 5.33329 12H10.6666V6.66667C10.6666 5.93333 10.928 5.30578 11.4506 4.784C11.9733 4.26222 12.6008 4.00089 13.3333 4H18.6666C19.4 4 20.028 4.26133 20.5506 4.784C21.0733 5.30667 21.3342 5.93422 21.3333 6.66667V14.6667H26.6666C27.4 14.6667 28.028 14.928 28.5506 15.4507C29.0733 15.9733 29.3342 16.6009 29.3333 17.3333V25.3333C29.3333 26.0667 29.0724 26.6947 28.5506 27.2173C28.0288 27.74 27.4008 28.0009 26.6666 28H5.33329C4.59996 28 3.9724 27.7391 3.45063 27.2173C2.92885 26.6956 2.66751 26.0676 2.66663 25.3333Z" fill="#BCBCBC"/>
</svg>
