<svg width="34" height="38" viewBox="0 0 34 38" fill="none" xmlns="http://www.w3.org/2000/svg">
<mask id="mask0_2025_2034" style="mask-type:luminance" maskUnits="userSpaceOnUse" x="0" y="0" width="34" height="38">
<path d="M0.316437 0H33.8844V37.0803H0.316437V0Z" fill="white"/>
</mask>
<g mask="url(#mask0_2025_2034)">
<path d="M1.40164 20.4849C1.35101 20.4765 1.31595 20.457 1.29129 20.4709C1.04591 20.6047 0.855069 20.9948 0.605803 20.9028C0.488959 20.8582 0.526608 20.4389 0.539591 20.1826C0.56296 19.6378 0.634364 19.0903 0.804437 18.5651C0.981001 18.0483 1.24974 17.5439 1.64831 17.0661C1.75347 16.9393 1.85603 16.8097 1.9547 16.6788C1.97288 16.6537 1.96249 16.6077 1.96638 16.5325C1.55354 16.8237 1.07058 16.8724 0.695383 17.2388C0.647347 17.2862 0.531802 17.3391 0.501941 17.3196C0.411063 17.2583 0.430537 17.1483 0.456502 17.0243C0.605803 16.2762 0.883631 15.5768 1.31336 14.9345C1.75087 14.309 2.35197 13.7573 3.12054 13.2711C2.49867 13.2683 2.59994 12.9674 2.82843 12.6038C3.03875 12.2597 3.27244 11.9476 3.52171 11.6467C3.77097 11.3472 4.03842 11.0657 4.32923 10.8108C4.62134 10.56 4.93162 10.3218 5.27956 10.1407C5.62749 9.96098 6.00399 9.81748 6.41164 9.71857C6.58691 9.67677 6.82319 9.68374 6.69726 9.3647C6.63365 9.21006 6.96471 9.01363 7.16853 8.88407C7.40482 8.72942 7.65279 8.60961 7.90205 8.5107C8.15262 8.409 8.40448 8.3268 8.65894 8.25714C9.16786 8.11922 9.68327 8.03285 10.2 7.96597C11.1321 7.87821 12.0383 7.74864 12.9315 7.24432C14.0649 6.65223 14.4012 5.78011 14.6426 4.78261C14.7374 4.38278 14.8711 4.00244 15.0334 3.62769C15.1957 3.25153 15.3879 2.87956 15.5995 2.51316C15.8124 2.14537 16.0461 1.78175 16.294 1.41953C16.5407 1.05731 16.8004 0.69509 17.073 0.353767C17.2132 0.172656 17.3223 0.172656 17.5001 0.265998C17.704 0.370484 17.8221 0.477758 17.6183 0.689517C17.3417 0.975115 17.1003 1.26907 16.8822 1.58114C16.6653 1.89738 16.468 2.2192 16.272 2.53824C15.9448 3.07182 15.6709 3.61236 15.4541 4.15987C15.2373 4.70877 15.0724 5.25489 14.9724 5.83027C14.7634 6.98937 14.7439 8.11783 14.9348 9.2226C14.9867 9.51795 15.0957 9.64612 15.406 9.74086C15.715 9.83838 16.0149 9.89271 16.3083 9.90804C16.6017 9.92197 16.8964 9.92057 17.1859 9.87321C17.765 9.78265 18.3375 9.55557 18.9269 9.22539C19.3891 8.98855 19.8188 8.70574 20.2537 8.42432C20.4719 8.28501 20.6913 8.14569 20.9159 8.01474C21.0288 7.94926 21.1431 7.88378 21.2586 7.82387C21.3767 7.76815 21.4962 7.71521 21.6182 7.66645C22.4167 7.34741 23.2021 7.1677 23.9603 7.19835C24.7211 7.24153 25.4494 7.46444 26.1245 7.88935C26.5581 8.1652 26.5283 8.26272 26.0739 8.65559C26.4672 8.75729 26.8606 8.86456 27.241 8.98716C27.6201 9.11115 27.9862 9.25325 28.3251 9.45387C28.5795 9.60711 28.8275 9.76733 29.0716 9.93172L29.8012 10.4486C30.288 10.7899 30.7814 11.1103 31.3215 11.3555C31.4305 11.4057 31.5642 11.4851 31.5305 11.6202C31.5045 11.7219 31.3591 11.7289 31.2656 11.779C30.9125 11.9588 30.5464 12.0646 30.1543 12.1273C29.7622 12.1956 29.3403 12.2012 28.8846 12.2499C29.3819 12.5453 29.796 12.9131 30.1258 13.2948C30.4542 13.6821 30.7009 14.1056 30.8697 14.5849C30.9787 14.8886 31.4201 15.2828 30.7593 15.5294C30.6645 15.5629 30.7424 15.6882 30.7944 15.7468C31.1696 16.1772 31.498 16.6342 31.855 17.0772C32.2108 17.523 32.5938 17.9312 33.0741 18.2224C33.3039 18.3603 33.5389 18.4815 33.7687 18.6097C33.2455 18.7783 32.8768 18.7504 31.907 18.3924C31.2929 18.1834 30.6853 17.9521 30.0427 17.7236C30.0647 18.0176 30.3685 17.9591 30.4321 18.2335C30.1829 18.2405 29.9362 18.2391 29.6934 18.2238C29.452 18.2224 29.2118 18.2071 28.9742 18.1736C28.5003 18.1082 28.0343 17.9688 27.5708 17.7195C27.1969 17.5356 26.8217 17.3559 26.4958 17.0689C26.4426 17.0215 26.3906 16.9811 26.3257 17.0201C26.2362 17.0744 26.2413 17.1622 26.2803 17.2472C26.4569 17.6289 26.3374 18.0343 26.4127 18.5498C26.1336 18.2907 25.8272 18.09 25.5091 17.9201C25.1936 17.7627 24.8652 17.6373 24.5367 17.5119C24.2083 17.3865 23.8798 17.2625 23.5604 17.1107C23.402 17.0354 23.2437 16.9477 23.0918 16.8585C22.9399 16.7707 22.7932 16.6718 22.6503 16.559C22.4076 16.3653 22.1142 16.2371 21.8961 15.8805C21.7948 16.4071 22.0726 16.7847 22.0518 17.321C21.8324 17.0953 21.5858 16.9142 21.3274 16.754C21.0691 16.5952 20.7977 16.4503 20.5355 16.3193C20.0084 16.0491 19.4943 15.7551 19.1191 15.2243C18.801 15.8081 18.6231 15.8526 18.1947 15.3636C17.6949 14.7952 17.1989 14.224 16.9704 13.4411C16.7445 12.6665 16.6251 11.8362 16.0591 11.1995C15.8396 10.9529 15.5397 10.8066 15.2736 10.4346C15.2502 10.8777 15.2983 11.1661 15.3827 11.4517C15.9435 13.3589 16.7043 15.1756 17.5702 16.9477C17.9 17.6206 18.4453 18.1137 19.0814 18.4077C19.7267 18.7225 20.4693 18.8479 21.2184 18.7406C21.9207 18.6585 22.6283 18.6445 23.3099 18.7184C23.3956 18.7281 23.4812 18.7379 23.5656 18.7532C23.6513 18.7699 23.737 18.7894 23.8214 18.8103C23.9902 18.8507 24.1576 18.8995 24.3238 18.9566C24.6549 19.0708 24.9768 19.2185 25.2871 19.4066C25.4208 19.486 25.6273 19.5264 25.6312 19.7117C25.6364 19.9318 25.3572 19.8092 25.2625 20.0196C26.0064 20.3372 26.5932 20.9432 27.0086 21.7067C27.3812 22.3935 27.6785 23.1082 27.7188 23.9413C27.7292 24.167 27.7305 24.2701 27.5085 24.174C27.1709 24.0277 26.8347 23.8368 26.4685 23.7936C27.067 25.0475 27.4695 26.3529 27.4293 27.7976C27.4189 28.1556 27.4228 28.5192 27.4332 28.8759C27.4384 29.0779 27.4098 29.1615 27.3579 29.1796C27.3072 29.2005 27.2345 29.1573 27.154 29.1029C26.9113 28.9344 26.6724 28.7296 26.3868 28.5095C26.5101 29.6435 26.501 30.719 26.4231 31.7667C26.3945 32.1317 26.3751 32.5064 26.3621 32.884C26.3478 33.2587 26.3374 33.6335 26.3309 34.0069C26.3128 35.1033 26.6983 35.9907 27.0722 36.906C27.0969 36.9631 27.1475 37.0035 27.1294 37.0857C26.9035 36.9617 26.6217 36.7388 26.3102 36.4588C26.1544 36.3209 25.9908 36.1621 25.8246 36.0033C25.6597 35.85 25.4923 35.6856 25.3248 35.5184C24.6588 34.8441 23.9979 34.0918 23.7045 33.5569C23.65 33.7714 23.7643 33.9901 23.7837 34.2005C23.7915 34.2952 23.7746 34.4067 23.7383 34.4666C23.6851 34.5502 23.6059 34.4373 23.5539 34.376C23.0268 33.7477 22.3985 33.2936 21.8766 32.558C21.5403 32.0843 21.1976 31.6218 20.9159 30.9893C20.8522 31.534 20.8678 32.0564 20.6199 32.4326C20.3122 31.7082 19.8902 31.1356 19.4618 30.5699C19.0321 30.0015 18.6686 29.3941 18.3466 28.6739C18.2726 28.8257 18.2168 28.926 18.17 29.0333C17.9766 29.4791 17.9156 29.4735 17.5754 29.0807C17.1976 28.6432 16.8082 28.2127 16.5096 27.6945C16.1318 27.0397 15.9941 26.3334 16.098 25.5964C15.8409 25.5518 15.8942 25.9697 15.7007 25.8527C15.5891 25.7886 15.5423 25.5643 15.4606 25.4153C14.9283 24.4401 15.1113 23.4843 15.419 22.5314C15.6955 21.6482 16.1201 20.8569 16.4641 19.9889C16.9523 18.7323 17.1184 17.4966 16.6316 16.2469C15.9902 14.5988 15.2684 12.9841 14.8218 11.2162C14.5427 12.002 14.4025 12.7877 14.4193 13.5358C14.4375 14.2853 14.6141 15.0042 14.9737 15.7008C15.2619 16.2622 15.2658 16.9114 15.3216 17.537C15.3333 17.661 15.4722 17.8908 15.1503 17.9075C15.0308 17.9145 15.088 18.0427 15.1152 18.1193C15.3762 18.88 15.3203 19.6476 15.1853 20.4222C15.171 20.5086 15.1607 20.6674 15.1425 20.6688C14.5336 20.7189 14.8114 21.2177 14.8465 21.474C14.9166 22.002 14.8802 22.4952 14.7816 22.9661C14.6842 23.4398 14.518 23.8758 14.3466 24.3411C14.2506 24.5808 14.1545 24.8204 14.0221 25.152L13.5235 24.135C13.482 25.8653 12.6927 27.1219 12.0721 28.444C11.889 28.2893 12.0552 28.0539 11.8696 27.9007C11.6553 28.437 11.6021 29.0737 11.2736 29.4763C11.1996 29.5669 11.1321 29.6616 11.0711 29.7605C11.0114 29.8622 10.9608 29.9709 10.9114 30.0795C10.8141 30.2969 10.7323 30.5226 10.6492 30.7469C10.5674 30.9698 10.4856 31.1899 10.3882 31.3989C10.2935 31.6078 10.1766 31.7973 10.0442 31.9854C9.77026 32.356 9.45867 32.6471 8.84979 32.6151C9.29379 32.2236 9.45218 31.7527 9.48074 31.2373C9.48853 31.1091 9.48724 30.9781 9.48074 30.8444C9.47685 30.7148 9.46646 30.5825 9.45218 30.4487C9.42492 30.1813 9.38208 29.9096 9.34443 29.6365C9.26134 29.0389 9.14969 28.4384 9.13541 27.7822C8.86277 27.8881 8.63038 27.9773 8.34087 28.0901C8.52133 27.4702 8.47329 26.8307 8.44603 26.1815C8.43954 26.0199 8.43434 25.8555 8.43564 25.6939C8.43824 25.5337 8.44603 25.3721 8.4642 25.2119C8.49926 24.89 8.57456 24.5654 8.72126 24.2422C8.32788 24.3704 7.99553 24.5766 7.67745 24.7953C7.36327 25.021 7.05169 25.2397 6.67 25.3679C6.83228 24.8232 6.98548 24.3021 7.16074 23.7853C7.43987 23.0302 7.645 22.2194 8.21623 21.5757C8.2448 21.5423 8.25648 21.4629 8.2409 21.4253C8.21364 21.3598 8.14872 21.3375 8.07342 21.3723C7.75795 21.5172 7.17632 21.676 7.13997 21.5493C7.01274 21.1174 7.16853 20.6144 7.38924 20.1645C7.42819 20.085 7.46973 20.0042 7.51387 19.9262L7.65149 19.7005L7.9397 19.2492C7.95009 19.2436 7.96048 19.2394 7.97216 19.2338C7.96827 19.2296 7.96177 19.2255 7.96048 19.2227C8.2383 19.0179 8.50445 18.7908 8.78487 18.5874C8.92638 18.4871 9.06919 18.391 9.21979 18.3074C9.37039 18.2238 9.53267 18.1625 9.70145 18.1137C10.0001 18.0287 9.98187 17.7849 9.90917 17.5927C9.78324 17.2597 9.71054 16.9073 9.62096 16.4628C9.39246 16.963 9.15748 17.413 8.89393 17.8407C8.63298 18.2739 8.33438 18.6612 7.96177 19.004C7.89297 19.0653 7.89167 19.1586 7.96048 19.2227C7.95788 19.2255 7.95528 19.2269 7.95269 19.2283L7.9397 19.2492C7.74107 19.3453 7.55672 19.4595 7.38015 19.5863C7.20618 19.7173 7.0452 19.8677 6.88551 20.0182C6.56614 20.3205 6.26234 20.6381 5.92869 20.9154C5.83262 20.9948 5.73914 21.0825 5.59114 21.2149C5.49896 20.6535 5.73785 20.1268 5.62619 19.479C5.4691 19.8733 5.29514 20.2369 5.1004 20.5726C4.91215 20.9209 4.70443 21.2414 4.47074 21.5353C4.23835 21.8293 3.97999 22.0968 3.69308 22.3406C3.54897 22.459 3.40227 22.583 3.25037 22.7014C3.09717 22.8184 2.93619 22.9313 2.76741 23.0371C2.70899 22.7167 3.16468 22.4855 2.93229 22.1051C2.65187 22.4855 2.41818 22.8755 2.21825 23.274C2.11828 23.4732 2.0274 23.6738 1.94302 23.8758C1.85733 24.0764 1.78073 24.2798 1.71452 24.493C1.44448 25.3345 1.25883 26.1815 1.04721 27.0035C0.964124 25.9544 0.88493 24.8845 0.903105 23.7881C0.908298 23.515 0.91479 23.235 0.939457 22.9647C0.962825 22.6944 0.993984 22.4214 1.03423 22.1483C1.11472 21.5994 1.23286 21.0463 1.40034 20.4849H1.40164ZM14.0039 11.8069C14.0883 11.6021 14.1545 11.3973 14.2051 11.1953C14.2571 10.9947 14.296 10.7997 14.3207 10.6018C14.3713 10.2076 14.3739 9.8133 14.3518 9.41625C14.3103 8.62215 14.1714 7.81412 14.1636 6.95315C13.9273 7.5536 13.7481 7.99244 13.7092 8.46194C13.6625 9.03313 13.752 9.57925 13.8429 10.1268C13.9351 10.6771 14.0299 11.2287 14.0039 11.8069ZM10.187 17.7696C10.4142 17.7863 10.4493 17.6192 10.5362 17.5077C10.7479 17.2402 10.9166 16.9435 11.0945 16.6495C11.2762 16.3639 11.471 16.0881 11.7241 15.8457C12.0033 15.581 12.2889 15.3135 12.5537 15.0279C12.6862 14.8858 12.8121 14.7353 12.9328 14.5835C13.0536 14.4358 13.1665 14.2798 13.2678 14.114C13.4599 13.7977 13.717 13.4703 13.6715 12.9563C13.3729 13.4843 13.1081 13.9747 12.6965 14.1418C12.2084 14.3647 12.0721 14.7409 11.8267 15.0948C11.5281 15.5238 11.2191 15.939 10.9361 16.3751C10.657 16.8223 10.3973 17.2806 10.187 17.7696Z" fill="#DAA41A"/>
</g>
</svg>
