<svg width="67" height="70" viewBox="0 0 67 70" fill="none" xmlns="http://www.w3.org/2000/svg">
<g opacity="0.53">
<path d="M49.3864 56.593C49.6887 55.6657 49.7121 54.7402 49.6955 53.8218C49.6913 53.5849 49.6988 53.3435 49.698 53.1059C49.6984 52.2571 50.0283 51.7721 50.934 51.8631C51.1064 51.8789 51.293 51.8375 51.4699 51.8021C51.6469 51.7667 51.8924 51.7412 51.9306 51.5472C51.9864 51.2661 51.6875 51.3885 51.5501 51.33C51.1394 51.1525 50.786 50.9737 51.0336 50.3698C51.1733 50.0294 50.8857 49.8361 50.7175 49.6086C50.6087 49.4646 50.3409 49.3558 50.4801 49.1432C50.5665 49.0119 50.8392 48.9127 51.0034 48.9323C51.4798 48.9832 51.9567 48.887 52.4167 48.7501C52.8795 48.6184 53.343 48.4808 53.8213 48.4945C54.0026 48.5007 54.2931 48.4652 54.3235 48.24C54.3631 47.9219 54.0281 48.1277 53.8884 48.0388C53.3813 47.7164 52.2998 47.8539 52.9097 46.634C53.0266 46.3993 52.7741 46.4167 52.6411 46.3901C52.1138 46.2906 51.7175 45.9822 51.3637 45.6045C51.1081 45.3345 50.9684 45.0117 51.1904 44.6493C51.4131 44.2809 51.8086 44.2395 52.1079 44.3993C52.5862 44.6566 52.6738 44.4941 52.7614 43.9952C52.8724 43.3558 53.4187 43.5265 53.7926 43.5498C54.8075 43.6281 55.6301 42.9043 56.5682 42.64C56.6518 42.6157 56.7696 42.5257 56.6928 42.4171C56.6523 42.3661 56.5201 42.3626 56.4344 42.3758C55.2925 42.5829 54.2511 42.2553 53.2244 41.9476C52.911 41.8548 52.6229 41.706 52.5563 41.3322C52.4926 40.9926 52.7922 40.8739 52.9828 40.6943C53.064 40.6202 53.1859 40.5139 53.1792 40.4323C53.167 40.2571 52.9866 40.2933 52.8716 40.2666C51.7753 40.0189 50.8558 39.4825 50.1705 38.5346C49.9723 38.2634 49.6897 37.984 49.8562 37.5952C50.0301 37.1796 50.4099 37.1688 50.7774 37.1684C51.3559 37.1696 51.9698 37.4103 52.4879 36.9203C52.567 36.8447 52.6886 36.8023 52.7413 36.7113C52.8173 36.5823 52.8955 36.4644 52.9779 36.3592C53.0561 36.2509 53.1399 36.1531 53.2245 36.0686C53.3972 35.8988 53.5833 35.7802 53.7884 35.7037C54.2013 35.556 54.6915 35.5942 55.2962 35.806C55.4058 35.8416 55.5307 36.013 55.6258 35.8431C55.6586 35.7797 55.5551 35.5978 55.4785 35.5084C55.1663 35.1505 54.7535 34.9907 54.3293 34.8742C53.885 34.7562 53.4489 34.6152 53.0872 34.3089C52.8917 34.1454 52.5704 33.8803 52.5951 33.7279C52.7646 32.6908 51.8695 32.9919 51.5111 32.6461C51.321 32.464 51.0219 32.426 50.7823 32.2955C50.2685 32.0132 50.1084 31.6215 50.4546 31.1C50.7598 30.6457 51.0546 30.1839 51.3466 29.7267C51.3925 29.6566 51.4211 29.571 51.4566 29.4935C51.3948 29.4724 51.3253 29.4202 51.2798 29.4361C50.4427 29.7108 49.5877 29.537 48.7453 29.3818C48.6629 29.3653 48.5793 29.3897 48.4954 29.3754C48.1678 29.3205 47.6352 29.6978 47.5638 29.3463C47.5083 29.086 47.526 28.8134 47.5963 28.5426C47.6632 28.2726 47.7896 28.0125 47.9689 27.8026C48.0569 27.698 48.335 27.6923 48.2357 27.523C48.1155 27.3196 47.8962 27.4533 47.7465 27.5272C47.5147 27.6424 47.2856 27.7532 47.0635 27.872C46.8345 27.9828 46.6082 28.0988 46.3938 28.2295C45.9615 28.4917 45.5662 28.8152 45.2285 29.2691C44.6562 30.0573 43.6927 29.7878 42.8409 29.4626C42.4962 29.3284 42.7313 29.193 42.8415 29.1106L43.6163 28.494C43.8738 28.288 44.1209 28.065 44.3729 27.8486L45.8714 26.5475C46.4268 26.0356 46.9556 25.4891 47.4747 24.9389C47.7311 24.6616 47.9904 24.3895 48.2329 24.096C48.4712 23.7995 48.7032 23.4986 48.9311 23.1948C49.159 22.8909 49.3828 22.5842 49.5981 22.2715C49.8156 21.9603 50.0268 21.6447 50.2144 21.3093C50.5992 20.642 50.9542 19.96 51.2773 19.2619C51.3504 19.1084 51.5048 18.8905 51.3005 18.7561C51.042 18.5834 50.9144 18.1922 50.6673 18.0692C50.4202 17.9461 50.4519 18.2697 50.4141 18.4192C50.2483 19.036 50.0388 19.6315 49.7918 20.2006C49.6682 20.4851 49.535 20.766 49.3927 21.0373C49.2435 21.3005 49.0845 21.56 48.9186 21.8114C48.5874 22.318 48.225 22.8024 47.8389 23.267C47.6487 23.5045 47.4396 23.7191 47.2285 23.9322C47.0152 24.1439 46.7999 24.354 46.5783 24.5598C46.2494 24.8629 45.9156 25.1593 45.579 25.4505C45.2403 25.7402 44.8799 26.0019 44.5287 26.2732C43.815 26.8047 43.116 27.3562 42.3778 27.8448C42.1966 27.97 41.9842 28.2144 41.7539 28.0103C41.5473 27.8261 41.6963 27.5243 41.7038 27.2829C41.7181 26.7867 41.8167 26.3821 42.0133 26.0659C42.2087 25.7519 42.4867 25.5026 42.8816 25.3551C43.2545 25.2143 43.8203 25.0655 43.8806 24.7332C43.9502 24.3562 44.1446 24.1217 44.3419 23.8923C44.5349 23.66 44.7377 23.441 44.8299 23.1248C44.8441 23.0771 44.8028 22.9935 44.7886 22.929C44.7319 22.9435 44.6564 22.9351 44.6262 22.9747C44.2686 23.4465 43.711 23.2551 43.1972 23.1971C43.0282 23.1805 42.8273 23.1381 42.9268 22.8782C43.2001 22.2028 43.1175 21.3627 43.1794 20.6086C43.2134 20.168 43.3494 19.7802 43.546 19.4446C43.5877 19.3716 43.6779 19.2877 43.5741 19.189C43.5226 19.1366 43.3968 19.1568 43.3243 19.1826C42.95 19.3159 42.5848 19.4588 42.2189 19.598C41.5955 19.8407 41.2681 19.5905 41.0671 18.7439C41.0202 18.5475 40.9892 18.3494 40.9251 18.1568C40.7728 17.6937 40.8497 17.261 40.2396 16.8435C39.774 16.5215 39.6374 15.6722 39.518 15.0433C39.4371 14.605 39.3369 14.1788 39.0569 13.7634C38.9948 13.6747 38.9179 13.5468 38.831 13.5912C38.7978 13.6063 38.8173 13.7354 38.8392 13.8117C38.9907 14.3639 39.0028 14.8754 38.8733 15.3159C38.7696 15.6753 38.6456 15.9948 38.1199 15.8002C37.7086 15.6479 37.5838 16.0661 37.5268 16.4712C37.4751 16.8577 37.4695 17.2862 37.3588 17.6375C37.2068 18.1391 36.859 18.0635 36.4985 17.5017C36.1401 16.951 35.8904 16.3936 35.714 15.8334C35.5313 15.2688 35.4247 14.697 35.3638 14.1287C35.3506 14.004 35.4085 13.8558 35.2688 13.7476C35.2139 13.7057 35.114 13.7858 35.0562 13.8412C34.9275 13.9587 34.7814 14.0607 34.5645 13.8885C34.3649 13.7317 34.3197 13.4691 34.2769 13.2467C34.074 12.2129 33.9581 11.2372 34.0539 10.3789C34.0651 10.2875 34.1399 10.1897 34.0299 10.0768C33.9157 9.96103 33.8673 10.0839 33.8429 10.1628C33.6191 10.7963 33.0034 11.0605 33.1494 12.0894C33.1806 12.3261 33.0559 12.5297 32.8442 12.4124C32.4387 12.1873 32.3829 12.3466 32.4319 12.7881C32.4678 13.1049 32.3244 13.3049 32.0745 13.2888C31.8446 13.2741 31.7057 12.9647 31.5582 12.7229C31.3912 12.4545 31.2774 12.1724 31.2286 11.8913C31.1568 11.4626 31.2859 11.0763 30.6433 10.7704C30.3136 10.6115 30.2941 9.91216 30.2292 9.47227C30.2096 9.33354 30.3071 9.194 30.1589 9.07028C30.0156 8.95321 29.9419 9.11264 29.9337 9.24785C29.9141 9.55765 29.8229 9.80408 29.7345 10.0557C29.6474 10.3051 29.5492 10.5434 29.5304 10.8665C29.518 11.1013 29.4643 11.3742 29.2439 11.3148C29.0269 11.2547 28.9743 10.9068 28.8574 10.6834C28.7698 10.5095 28.7008 10.3199 28.5509 10.243C28.1309 10.0268 28.0725 9.63962 28.0382 9.23738C28.028 9.14686 28.0779 9.05071 27.9736 8.96753C27.9187 8.92559 27.8526 8.97507 27.8029 9.00735C27.6664 9.0937 27.6422 9.31367 27.6276 9.53729C27.5962 10.0662 27.3429 10.0509 26.9409 9.72256C26.3957 9.28677 25.9347 8.57712 25.4197 8.10177C25.0933 7.80108 24.7777 7.33175 24.4501 7.29618C24.6261 7.77911 24.9464 7.99221 25.1955 8.34097C25.6694 8.99557 26.0124 9.75655 26.4298 10.4546C26.4732 10.5301 26.5273 10.6708 26.5116 10.711C26.2521 11.5051 26.8651 12.2739 27.2613 13.0114C27.4706 13.4058 27.5206 13.5532 27.2116 13.4922C27.082 13.4649 26.9697 13.4241 27.0775 13.7405C27.1684 14.0064 27.0179 13.9548 26.8977 13.8828C26.6519 13.7383 26.4263 13.5215 26.2087 13.2334C26.1166 13.1108 26.0719 12.823 25.9257 12.8961C25.9091 12.9036 26.0191 13.2407 26.1038 13.3998C26.4209 13.9983 26.7873 14.497 27.1844 14.9405C27.3823 15.1634 27.5905 15.3743 27.8 15.5733C28.0053 15.7694 28.2196 15.9558 28.4318 16.1407C29.3195 16.9141 30.0865 17.8556 30.5292 19.1899C30.6864 19.6692 30.7667 20.1328 30.5666 20.4594C30.4611 20.6317 30.318 20.6557 30.1655 20.6026C30.0108 20.548 29.8474 20.4199 29.7007 20.3036C28.4677 19.309 27.5326 17.9158 26.7341 16.3241C26.6577 16.1709 26.6523 15.9653 26.6104 15.7851C26.5755 15.6227 26.7072 15.4369 26.51 15.3202C26.3794 15.2409 26.3545 15.4765 26.3138 15.6112C26.2692 15.7816 26.194 15.9432 26.198 16.1415C26.2028 17.0355 25.8501 16.7387 25.4184 16.3029C24.8558 15.7395 24.316 15.1537 23.8095 14.4889C23.6603 14.2939 23.5013 14.1049 23.3406 13.9627C23.1305 13.7793 22.8231 13.5304 22.7573 13.75C22.6921 13.9539 23.0095 14.1329 23.156 14.3323C23.7193 15.1237 23.9679 16.0583 24.1541 16.9875C24.2805 17.6245 24.0196 17.8506 23.5928 17.5335C23.0548 17.1445 22.6258 16.4702 22.1766 15.8875C22.1145 15.8085 22.0472 15.6552 22.0057 15.6548C21.9018 15.6488 21.9514 15.8311 21.9597 15.9492C21.9848 16.2007 22.0767 16.5283 21.9 16.6023C21.7295 16.6711 21.5351 16.4571 21.3995 16.2301C21.0451 15.6437 20.5669 15.2936 20.2705 14.588C20.1989 14.4221 20.0473 14.1774 19.94 14.2843C19.8478 14.3763 19.9944 14.5854 20.039 14.7418C20.1803 15.2324 20.3454 15.7526 20.1434 16.097C19.9462 16.4385 19.6274 16.14 19.352 15.917C19.1858 15.7837 19.0283 15.5925 18.8709 15.4302C18.7567 15.3144 18.6115 14.9909 18.6464 15.4994C18.6676 15.7963 18.462 15.6737 18.3371 15.6144C17.92 15.4228 17.524 15.0506 17.1331 14.7139C17.0656 14.6535 16.9744 14.4611 16.9358 14.5876C16.8896 14.7312 17.0027 14.8975 17.0737 14.9668C17.5797 15.4519 17.97 16.243 18.4259 16.8977C18.585 17.1253 18.9437 17.2661 18.7426 17.7651C18.7071 17.8522 18.8171 17.9554 18.8852 18.0099C19.0208 18.1151 19.1645 18.1973 19.2982 18.3203C19.4032 18.4169 19.5489 18.4812 19.6692 18.5724C19.786 18.6644 19.8746 18.7782 19.8593 18.9981C19.8317 19.4624 19.7629 20.0867 19.2777 19.9623C19.1848 19.9385 19.0325 19.8118 19.0228 20.0324C19.0218 20.0926 19.1917 20.2637 19.2911 20.3402C19.8034 20.7272 20.3618 20.9416 20.868 21.446C21.0998 21.6768 21.4022 21.8997 21.4382 22.3576C21.4754 22.7843 21.1877 22.7032 20.9992 22.7624C20.7913 22.8337 21.0362 23.2723 20.8556 23.3917C20.4468 23.6544 20.0952 24.4381 19.5169 23.335C19.4889 23.2832 19.4087 23.2875 19.3539 23.2648C19.3731 23.3553 19.3786 23.4681 19.4157 23.5295C19.5785 23.7853 19.7353 24.0849 19.9287 24.2566C20.8123 25.0368 21.7443 25.8063 22.6829 26.5259C23.0896 26.8416 23.5056 26.962 23.9224 26.9932C24.3405 27.0222 24.7609 26.9695 25.1667 26.8969C25.6548 26.8214 26.1516 26.8098 26.6783 27.1685C27.1633 27.4977 27.3016 28.0374 27.002 28.5021C26.6462 29.0586 26.0018 29.3794 25.3203 29.3953C24.6304 29.3957 23.9166 29.123 23.4192 28.5703C23.0987 28.2161 22.7849 28.0557 22.4718 28.0014C22.158 27.9435 21.8412 27.9732 21.5281 28.0311C21.2392 28.0836 21.4335 28.2879 21.561 28.4355C21.6558 28.544 21.7639 28.6844 21.7288 28.8294C21.6816 29.0236 21.542 28.8419 21.443 28.8233C21.4298 28.8204 21.4124 28.8049 21.4034 28.805C20.968 28.9016 20.5308 28.9232 20.0925 28.8736C19.6541 28.8143 19.2103 28.6614 18.7696 28.4499C18.6585 28.3972 18.4414 28.4203 18.4453 28.6089C18.4487 28.8324 18.6377 28.7286 18.7424 28.7672C19.2571 28.9604 19.5328 29.5778 19.7965 30.1514C19.9563 30.4948 19.6282 30.4652 19.5217 30.6048C19.4517 30.6996 19.2879 30.7283 19.3339 30.9017C19.3849 31.0914 19.5284 31.0132 19.6286 30.991C19.8601 30.9396 20.0919 30.9365 20.3288 31.0811C20.6635 31.2852 21.0049 31.5516 21.0247 32.075C21.0353 32.3259 20.9568 32.5077 20.833 32.6318C20.7119 32.7515 20.5476 32.815 20.3887 32.8503C20.0631 32.9186 19.7156 32.8914 19.3881 32.6412C18.6045 32.0341 18.1199 32.2209 17.4307 32.7953C16.8579 33.282 16.1178 33.3399 15.3919 33.1066C15.2705 33.0659 15.068 32.875 15.0272 33.1025C14.9876 33.3181 15.2085 33.445 15.3439 33.531C15.8032 33.8292 16.2778 34.0487 16.7487 34.3231C16.9674 34.4485 17.2094 34.6384 17.1777 35.007C17.1447 35.3681 16.8656 35.3314 16.6594 35.3463C16.344 35.3641 16.0262 35.3418 15.7455 35.0445C15.6842 34.9788 15.5688 34.8942 15.5261 34.925C15.4221 35.0022 15.4867 35.1599 15.5159 35.2926C15.5208 35.3089 15.5313 35.3259 15.5335 35.3467C15.5806 35.6843 16.066 35.969 15.7822 36.291C15.4743 36.6378 15.019 36.5377 14.6257 36.2732C14.5041 36.1938 14.3935 36.0869 14.2733 36.015C14.149 35.9401 14.0495 35.6297 13.9142 35.7969C13.7871 35.9508 13.8953 36.2129 13.9822 36.3928C14.0964 36.6207 14.2409 36.8283 14.3771 37.0398C14.5664 37.3303 14.7981 37.6442 14.6288 38.0279C14.4514 38.4346 14.0773 38.3726 13.8265 38.2117C13.2611 37.8577 13.0272 37.7569 13.2591 38.7823C13.3778 39.305 13.1195 39.7219 12.647 39.7475C12.104 39.781 11.5593 39.7781 11.0163 39.8116C10.8828 39.82 10.6483 39.7251 10.6443 39.9754C10.64 40.1677 10.8815 40.1779 11.025 40.2118C11.5635 40.3417 12.1114 40.4366 12.6569 40.5746C12.9868 40.66 13.394 40.5947 13.5284 41.1893C13.5397 41.2294 13.6037 41.2809 13.6418 41.2821C14.5905 41.2881 14.0555 42.0641 14.0799 42.5459C14.0816 42.6016 14.0418 42.6568 14.0401 42.7132C14.0149 43.0127 13.762 43.4206 13.99 43.575C14.2415 43.7396 14.3506 43.2494 14.4973 43.0293C14.7765 42.6271 15.0691 42.2664 15.4489 42.0217C15.6206 41.912 15.7959 41.8403 15.979 42.0142C16.1425 42.1713 16.1417 42.3822 16.1085 42.6022C16.0892 42.7263 16.044 42.922 16.0921 42.9751C16.2168 43.1079 16.3174 42.929 16.4215 42.8614C16.5717 42.7623 16.717 42.6469 16.8624 42.5412C17.1283 42.3411 17.413 42.1542 17.6863 42.4879C17.9777 42.8408 17.7376 43.1938 17.5948 43.4903C17.2832 44.1452 16.7294 44.5716 16.518 45.3068C16.459 45.5055 16.3431 45.7922 16.5133 45.8994C16.7259 46.0301 16.7092 45.6723 16.7963 45.5447C16.9033 45.3895 17.0712 45.2324 17.2654 45.0907C17.459 44.9452 17.681 44.807 17.8991 44.7045C18.3372 44.501 18.7644 44.4274 18.9331 44.6297C19.4232 45.2188 19.8904 45.0069 20.3915 44.9054C20.7239 44.8355 20.9329 44.6112 21.0837 44.253C21.4622 43.3377 22.4742 43.0551 23.2396 43.6237C23.4391 43.7709 23.5987 43.9636 23.5617 44.2482C23.475 44.9016 23.319 45.522 22.7794 45.8911C22.6705 45.9617 22.4802 46.087 22.4945 46.1515C22.5353 46.3725 22.7398 46.3213 22.8796 46.327C23.18 46.3339 23.2653 46.4773 23.2175 46.8088C23.1158 47.4964 23.1078 48.2309 22.3788 48.5242C22.334 48.5438 22.3166 48.6404 22.2865 48.6993C22.3489 48.7241 22.4143 48.7734 22.4765 48.7693C22.841 48.7444 23.2158 48.5762 23.3695 48.2521C23.571 47.8207 23.8606 47.538 24.1824 47.31C24.5056 47.0798 24.8545 46.8805 25.1846 46.6584C25.4472 46.4784 25.6951 46.288 25.8274 45.9551C25.8628 45.868 25.9649 45.8183 26.033 45.751C26.0517 45.857 26.0994 45.974 26.0834 46.0684C26.0009 46.5005 26.1622 46.5053 26.4374 46.363C26.8424 46.1552 27.2106 45.9343 27.5068 45.6114C27.8045 45.2863 28.0332 44.8837 28.1698 44.3585C28.3482 43.6674 28.9461 42.9837 29.6469 42.4976C30.3414 41.9878 31.1331 41.6555 31.7439 41.7307C32.3284 41.8001 32.6654 42.371 32.4637 42.9977C32.2538 43.6474 31.7579 44.0281 31.2523 44.3027C30.4661 44.7478 29.7924 45.2531 29.2422 45.9223C28.6885 46.5826 28.2533 47.3906 27.9046 48.3109C27.6055 49.0868 27.0099 49.6887 26.7159 50.5002C26.6682 50.6268 26.6039 50.7512 26.5819 50.8799C26.5493 51.1036 26.4371 51.4282 26.6618 51.5098C26.8151 51.5666 26.7733 51.1815 26.8971 51.0477C27.1865 50.736 27.1395 49.7257 27.9365 50.4768C28.2317 50.2044 28.5018 50.3533 28.7774 50.5028C29.0544 50.6501 29.3391 50.8093 29.656 50.5746C29.915 50.3857 30.0641 50.7663 30.05 51.0768C30.0189 51.7565 29.7233 52.317 29.3057 52.8234C28.9532 53.2284 28.6097 53.6429 28.269 54.0626C28.2072 54.144 28.1411 54.3056 28.1733 54.37C28.2454 54.5009 28.3839 54.4064 28.4652 54.342C29.0863 53.8445 29.603 54.2538 30.1257 54.5263C30.3687 54.6561 30.2524 54.8752 30.1516 55.0348C29.9597 55.3384 29.7184 55.5911 29.5209 55.8843C29.3954 56.0746 28.9498 56.3146 29.5563 56.4796C29.7164 56.5253 29.6256 56.7272 29.5634 56.8434C29.0707 57.7551 29.1189 58.856 28.4835 59.7374C28.3593 59.9061 28.2284 60.2368 28.422 60.3253C28.6809 60.4437 28.7049 60.073 28.832 59.9192C29.2455 59.4195 29.6174 58.8904 30.0421 58.4114C30.2469 58.1842 30.5182 57.8437 30.8388 58.3293C30.9994 58.574 31.0873 58.338 31.1501 58.1964C31.2914 57.8828 31.3995 57.5553 31.57 57.2623C31.8337 56.8171 32.182 56.3996 32.7319 56.4767C33.2597 56.5509 33.506 56.997 33.6474 57.4876C33.6904 57.6269 33.6151 57.8717 33.8027 57.8823C34.0173 57.8927 34.0994 57.627 34.0805 57.4823C34.0262 57.0884 34.1368 56.7178 34.2515 56.3502C34.3662 55.9825 34.4843 55.6045 34.4563 55.2163C34.4365 54.9075 34.5523 54.6208 34.8531 54.4709C35.1657 54.3165 35.3511 54.5402 35.5535 54.7118C35.6642 54.809 35.8299 54.9772 35.912 54.9454C36.1419 54.848 35.9358 54.6386 35.9722 54.4816C36.1412 53.7134 36.1889 52.914 36.5174 52.1973C36.7872 51.6058 37.4506 51.4586 37.7923 51.9975C38.5504 53.1922 39.524 54.3275 39.1266 56.0048C39.1036 56.0911 39.1004 56.2426 39.1497 56.2742C39.2803 56.3535 39.3625 56.2096 39.4346 56.1163C39.7118 55.7319 39.9869 55.3364 40.0034 54.861C40.0432 53.6749 40.3803 52.5542 40.6439 51.4169C40.7302 51.0324 40.8581 50.9112 41.2341 51.0578C41.6142 51.2074 42.0191 51.3263 42.4527 51.2765C42.5834 51.263 42.7509 51.2722 42.7963 51.1055C42.847 50.9203 42.669 50.894 42.5566 50.8436C42.1854 50.6746 41.9455 50.3741 41.8711 49.9788C41.5794 48.437 41.3098 46.8981 41.5425 45.3288C41.6111 44.8902 41.7399 44.4557 42.1472 44.2879C42.5875 44.1052 42.9538 44.3699 43.2548 44.7072C44.1405 45.7131 44.5788 46.8937 44.4234 48.3027C44.3572 48.9032 44.2646 49.5076 44.2102 50.1132C44.1537 50.7173 44.131 51.31 44.2239 51.9138C44.2613 52.1453 44.2808 52.3865 44.3582 52.6013C44.4068 52.7316 44.5685 52.9258 44.6445 52.9089C44.8995 52.8485 44.7205 52.6581 44.7045 52.5283C44.5952 51.6246 45.0305 50.948 45.904 50.76C46.195 50.6993 46.1725 50.9846 46.2185 51.1484C46.3826 51.7383 46.6143 52.2862 47.0094 52.7379C47.2192 52.9755 47.387 53.2669 47.8306 53.0447C48.0838 52.919 48.201 53.181 48.3045 53.363C48.8447 54.3431 49.1045 55.4106 49.0176 56.5956C49.006 56.7316 48.8351 56.9667 49.0953 56.9708C49.1763 56.9703 49.3402 56.7367 49.3871 56.5968L49.3864 56.593Z" fill="#FC9B31"/>
<path d="M47.7678 48.1273C47.7424 48.4906 47.9409 48.8196 47.9245 49.2022C47.7608 49.1283 47.7752 48.8854 47.5774 48.8964C47.6136 47.8038 47.2632 46.8454 47.0587 45.7656C46.7607 46.1449 46.6595 46.5734 46.3247 46.8275C46.4505 46.5734 46.5699 46.3052 46.6901 46.0407C46.8492 45.6884 46.939 45.3224 46.8481 44.9443C46.5827 43.8471 46.3006 42.7575 46.0038 41.6383C45.8046 41.7541 45.8467 41.9728 45.7304 42.0798C45.6779 42.0876 45.659 42.0647 45.6754 42.0186C45.8857 41.4364 45.7847 40.8846 45.5668 40.324C45.4114 39.9293 45.3065 39.5157 45.1726 39.1104C45.1253 38.9682 45.105 38.8064 44.9619 38.7183C44.8193 38.8196 44.851 39.031 44.7452 39.155C44.6885 39.1599 44.6794 39.1406 44.6922 39.0856C44.831 38.469 44.7561 37.8844 44.4971 37.2884C44.121 36.4304 43.7863 35.5535 43.421 34.6679C43.1979 34.847 43.2525 35.1771 43.0019 35.3815C43.0434 35.1481 43.0589 34.9764 43.1022 34.818C43.201 34.4423 43.1587 34.0824 42.9751 33.7191L41.6195 30.9847C41.5606 30.8663 41.4887 30.7547 41.3838 30.575C41.0304 31.5272 40.7628 32.4759 40.4651 33.4738C40.98 34.2759 41.4204 35.1216 41.4964 36.1235C41.1984 35.3623 41.0252 34.5288 40.3918 33.9347C40.2341 34.0606 40.1959 34.2643 40.1402 34.4429C39.7502 35.6256 39.35 36.8299 38.9013 38.0353C38.8155 38.2632 38.8215 38.4629 38.8832 38.6986C39.0278 39.2619 39.2732 39.7875 39.4385 40.3462C39.1413 39.9443 38.9846 39.4397 38.5676 39.0335C38.3594 39.6171 38.1525 40.1792 37.9345 40.7592L39.2408 43.6766L39.1636 43.715L37.9084 40.9042C37.6066 41.3385 37.5001 41.8049 37.3332 42.2382C37.2896 42.3484 37.3463 42.4654 37.3906 42.5735C38.0118 44.1233 38.3947 45.7551 38.7327 47.3968C38.9238 48.3229 38.9621 49.2695 39.0765 50.2088C39.1186 50.5397 39.1013 50.8799 39.3252 51.1627C39.0889 51.2364 39.201 51.4532 39.0902 51.5609C38.9382 50.9122 38.9583 50.2408 38.8457 49.5911C38.8242 49.4605 38.8454 49.3186 38.7131 49.1836C38.5573 49.4966 38.413 49.7857 38.2688 50.0748L38.205 50.0523C38.3185 49.7158 38.4341 49.3808 38.5407 49.0459C38.6289 48.7654 38.6778 48.4858 38.6337 48.1824C38.3881 46.4873 37.9697 44.8306 37.2724 43.2686C37.2183 43.1472 37.1877 43.0071 37.0197 42.9206C36.4385 44.1767 35.8962 45.4763 35.2966 46.7867L35.5822 47.5392C35.3981 47.4157 35.4196 47.2002 35.2297 47.0471C34.7365 47.8719 34.3897 48.755 33.9776 49.6081C34.0896 50.0588 34.3354 50.418 34.3977 50.872C34.2441 50.5427 34.1238 50.2079 33.8037 49.9212C33.4545 50.7643 32.9803 51.5288 32.6911 52.4494C32.1652 53.1229 31.7828 53.9714 31.4374 54.8716C31.3626 54.8572 31.3082 55.0143 31.1692 55.022C31.2101 54.7016 31.5554 54.4646 31.4208 54.0749C31.5786 53.9683 31.7391 53.838 31.8369 53.6443C32.2308 52.8744 32.6255 52.1276 32.9808 51.3817C32.8547 51.2415 32.7789 51.2874 32.711 51.2812C32.6708 51.2688 32.6755 51.2465 32.7251 51.2142C33.2973 50.8456 33.4364 50.1748 33.7132 49.6107C33.9388 49.1547 34.0902 48.6687 34.3123 48.2134C34.8653 47.0912 35.3029 45.8844 35.7477 44.7147C35.871 44.4012 35.9944 44.0877 36.1695 43.641C35.4739 44.0698 34.8774 44.4245 34.2901 44.7985C33.6855 45.1666 33.0438 45.4733 32.4769 45.9065C32.2007 46.1186 31.9028 46.2833 31.6076 46.4532C31.458 46.5367 31.3104 46.6216 31.1656 46.7117C31.018 46.7967 30.8733 46.8868 30.7341 46.9873C30.1595 47.4086 29.5619 47.7945 28.9511 48.1679C29.3499 47.7604 29.7992 47.4461 30.2631 47.1517C30.725 46.8559 31.2029 46.5875 31.636 46.2265C31.4679 46.1207 31.2983 46.2222 31.1327 46.083C32.3127 45.9893 33.2104 45.2159 34.1786 44.6685C34.9033 44.2313 35.5775 43.7008 36.2162 43.1357C36.4193 42.9553 36.5841 42.7544 36.6745 42.4753C36.8577 41.8836 37.1589 41.3431 37.3187 40.6581C36.822 40.6794 36.4003 40.8561 35.9869 41.0484C35.5701 41.2318 35.1728 41.4514 34.7536 41.5947C35.1954 41.2975 35.647 41.0233 36.1161 40.7839C36.5796 40.5244 37.0633 40.3049 37.5876 40.1461C37.775 39.567 38.0277 39.0083 38.1807 38.3345C37.7713 38.3886 37.4989 38.6578 37.1519 38.7174L38.0587 38.1875C38.2076 38.1003 38.3392 37.9977 38.3982 37.8087C38.6338 37.0681 38.8598 36.3336 39.0754 35.6014C39.0828 35.5746 39.0563 35.5303 39.0351 35.4576C38.6187 35.7279 38.1807 35.9604 37.7532 36.2099C37.3271 36.4572 36.8946 36.6905 36.5007 37.0118C36.6234 36.8164 36.7838 36.6764 36.9602 36.5541C37.1469 36.4199 37.3197 36.2694 37.5169 36.1522C38.0966 35.7857 38.6505 35.369 39.1764 34.9197C39.2508 34.8568 39.3327 34.7865 39.373 34.6963C39.513 34.3946 39.6239 34.0819 39.7285 33.7552C39.8303 33.4233 39.9208 33.0707 40.0217 32.7061C39.6204 32.8203 39.3839 33.0893 39.0331 33.2039C39.3658 32.958 39.6459 32.7006 39.9372 32.4639C40.0398 32.3793 40.1187 32.2747 40.1629 32.1393C40.3354 31.6041 40.4968 31.0676 40.6617 30.5207C40.4943 30.4283 40.4244 30.5424 40.3424 30.5934C39.9039 30.8609 39.4753 31.1513 39.0312 31.4083C38.905 31.4827 38.7962 31.5726 38.7055 31.6817C38.612 31.7855 38.5325 31.9057 38.4628 32.0487C38.1436 32.7015 37.8036 33.3492 37.4553 34.0006C37.4115 34.0819 37.4006 34.2215 37.2469 34.2093C37.5333 33.5077 37.8768 32.8689 38.0502 32.1326C37.8959 32.0334 37.8149 32.1364 37.7294 32.1883C37.1413 32.5392 36.5377 32.8568 35.9713 33.2551C35.2538 33.7294 34.6694 34.3521 34.2178 35.187C33.8996 35.7892 33.612 36.3905 33.3008 37.0008C33.2263 37.1469 33.1399 37.2879 33.0272 37.4037C33.2734 36.8213 33.5003 36.2316 33.7473 35.6625C33.9895 35.0868 34.2406 34.511 34.5544 33.989C34.1209 34.1606 33.7027 34.3559 33.302 34.5763C32.8943 34.7886 32.5118 35.0474 32.1609 35.3863C31.8073 35.7296 31.5373 36.1511 31.2951 36.605C31.0556 37.0641 30.8301 37.5201 30.583 37.9771C30.7054 37.5091 30.8585 37.0692 31.0399 36.6365C31.2157 36.1934 31.4186 35.7598 31.6436 35.3194C31.2529 35.4795 30.8872 35.6477 30.5317 35.8039C30.1742 35.9586 29.8355 36.1266 29.5087 36.3287C29.0247 36.6313 28.633 37.0759 28.3188 37.6328C27.8201 38.4762 27.5027 39.4185 27.4063 40.5167C27.3469 41.2181 27.2778 41.9256 27.0848 42.6064C27.1093 41.8644 27.1934 41.1323 27.1934 40.3378C27.0366 40.3745 27.0027 40.498 26.9577 40.6008C26.3796 41.9296 25.7487 43.1987 25.0832 44.4947C25.0319 44.5931 24.9577 44.6849 24.939 44.7935C24.9043 45.0061 24.8248 45.1262 24.6497 45.2366C24.4588 45.3582 24.4366 45.7015 24.1846 45.8985C24.2598 45.5223 24.5132 45.323 24.5625 45.0085C24.5063 44.9785 24.45 44.9484 24.3799 44.9118C25.1662 44.2617 25.418 43.2121 25.8576 42.3335C25.8159 42.3041 25.7929 42.2783 25.7672 42.2666C25.736 42.2542 25.7042 42.2574 25.673 42.2546C25.6445 42.2281 25.6464 42.2006 25.6794 42.1662C26.1511 41.6788 26.4128 41.0079 26.6731 40.3392C27.1425 39.1292 27.592 37.9468 28.1588 36.6998C27.6864 36.8568 27.3121 36.9805 26.9312 37.0514C26.2123 37.1723 25.7319 37.6056 25.4366 38.429C25.2665 38.9018 24.9858 39.2869 24.6244 39.5991C24.8023 39.2793 24.9817 38.9669 25.1465 38.6442C25.3155 38.3244 25.4615 37.9692 25.5959 37.6668C25.4395 37.425 25.3404 37.5282 25.2479 37.5526C24.492 37.7532 23.7489 38.0012 22.9839 38.1633C22.6521 38.2273 22.3824 38.4824 22.1258 38.7404C21.4251 39.4604 20.8785 40.3821 20.2777 41.2751C20.1268 41.5019 20.1135 41.8065 20.0903 42.0977C20.0743 42.3043 20.1116 42.5261 20.0256 42.7153C20.0017 42.4325 19.9792 42.1475 19.9502 41.8099C19.634 42.0482 19.4875 42.4191 19.2011 42.6624C19.1261 42.507 19.2848 42.4331 19.2537 42.3182C19.217 42.2026 19.1106 42.2398 19.0514 42.1659C19.072 42.1517 19.0898 42.1226 19.1113 42.1217C19.4079 42.081 19.6325 41.9094 19.8197 41.6378C20.4677 40.6627 21.1027 39.704 21.7051 38.7448C21.7558 38.662 21.8343 38.5924 21.8306 38.4424C21.2291 38.5372 20.6375 38.655 20.0846 38.8802C19.8084 38.9898 19.5415 39.1379 19.2817 39.3039C19.0197 39.4683 18.7704 39.6706 18.5325 39.9225C18.2527 40.2185 17.9296 40.4584 17.5757 40.6414C18.075 40.1381 18.5675 39.6364 19.0695 39.119C18.2646 39.2145 17.726 39.2992 17.1632 39.6039C16.5998 39.9242 16.0083 40.4073 15.0646 41.3436C15.0078 41.2267 15.1367 41.1478 15.0911 41.042C14.991 40.9617 14.88 41.0308 14.7732 41.0004C15.0002 41.0003 15.1757 40.8453 15.3598 40.7349C15.7962 40.466 16.1263 40.0196 16.5396 39.7055C15.6603 39.9761 14.71 39.8312 13.8852 40.515C13.941 40.0193 14.316 40.1333 14.457 39.8739C14.9067 39.9732 15.3291 39.7905 15.7577 39.7051C16.1378 39.6304 16.5087 39.5075 16.8746 39.3779C16.8353 39.1643 16.7091 39.2484 16.6465 39.185C16.6255 39.151 16.6371 39.1175 16.6765 39.1164C17.0384 39.1057 17.4049 39.1752 17.7657 39.1125C17.9406 39.0757 18.1161 39.0425 18.2931 39.0071C18.2473 38.7601 18.1118 38.7863 18.0223 38.7424C17.6023 38.5263 17.177 38.3481 16.7749 38.1125C16.5547 37.9797 16.3389 37.8787 16.1122 37.8053C15.8854 37.7319 15.6527 37.7023 15.4059 37.7397C15.4587 37.6584 15.5237 37.6498 15.5908 37.6426C15.8228 37.6781 16.0597 37.7106 16.2936 37.709L16.4081 37.7705C17.0676 38.1172 17.7477 38.4302 18.4609 38.6161C18.7957 38.6984 19.1231 38.7146 19.4535 38.6626C19.7819 38.609 20.1155 38.5079 20.4719 38.394C19.7996 38.1025 19.2108 37.8987 18.6704 37.4406C19.0137 37.577 19.3509 37.7187 19.6942 37.8359C20.036 37.9552 20.3834 38.056 20.7392 38.0892C21.4614 38.1532 22.1355 37.9398 22.7953 37.6522C22.5371 37.5182 22.2843 37.3751 22.0356 37.2254C21.7884 37.0734 21.5431 36.9036 21.3005 36.7389C20.8175 36.4015 20.3469 36.0535 19.8798 35.7145C19.6157 35.5218 19.3395 35.5 19.0486 35.4582C19.0905 35.4141 19.1242 35.3737 19.1881 35.3035C18.9744 35.1015 18.75 34.9561 18.5236 34.8188C18.2944 34.6763 18.068 34.5487 17.8498 34.398C17.8041 34.2825 17.7744 34.175 17.7797 34.025C18.0472 34.3097 18.3433 34.5282 18.6426 34.7073C18.9413 34.8827 19.2474 35.0409 19.5413 35.2386C19.5768 35.2636 19.6224 35.2574 19.6903 35.2732C19.4321 34.681 19.0565 34.2655 18.7759 33.7536C19.0642 33.941 19.2615 34.2819 19.4703 34.599C20.131 35.5969 20.8957 36.2836 21.7412 36.7069C22.5823 37.1079 23.4985 37.2255 24.4669 37.1459C24.9047 37.1184 25.3033 36.8869 25.7625 36.727C25.3854 36.3873 25.0166 36.0535 24.6561 35.7255C24.2937 35.4058 23.9277 35.0868 23.5475 34.8155C24.0372 35.0007 24.472 35.3682 24.9127 35.6918C25.2241 35.9243 25.5411 36.1575 25.8622 36.3839C26.0797 36.5406 26.2902 36.5673 26.5271 36.478C26.8757 36.3427 27.2265 36.2184 27.5793 36.0956C27.9287 35.964 28.2759 35.8212 28.6238 35.6821C28.5708 35.4909 28.449 35.4947 28.3574 35.4493C27.3676 34.9595 26.4258 34.2792 25.5117 33.6121C25.005 33.2451 24.5005 32.8989 24.0131 32.5199C23.8302 32.3749 23.6632 32.3307 23.4703 32.3581C23.1315 32.4139 22.7866 32.3532 22.3589 32.2471C22.7178 32.0901 23.0701 32.3193 23.3436 32.1213C22.9448 31.6414 22.2243 31.1653 21.8129 31.1058C21.7899 30.7339 21.5374 30.7417 21.3864 30.6031C21.2152 30.4439 21.0262 30.3331 20.808 30.1727C21.0606 30.0626 21.2531 30.5379 21.452 30.3643C22.3796 31.214 23.4322 31.7865 24.4991 32.5454C24.2833 31.7717 24.0035 31.1706 23.6411 30.6266C23.5398 30.4751 23.4103 30.355 23.3386 30.1699C23.806 30.5572 24.0962 31.1559 24.389 31.7501C24.4983 31.9714 24.5966 32.2009 24.7011 32.4252C24.7979 32.6376 24.9256 32.8239 25.0931 32.9356C25.5559 33.2524 26.0208 33.5706 26.485 33.8852C26.7205 34.0417 26.9595 34.1975 27.2005 34.3354C27.4394 34.4718 27.6816 34.5979 27.9321 34.7105C28.4234 34.932 28.9079 35.0623 29.3911 35.0827C29.8714 35.0979 30.3547 35.0254 30.8099 34.7794C31.4225 34.4617 32.0568 34.2011 32.6855 33.9108C32.5994 33.7443 32.4818 33.7607 32.382 33.7384C31.5331 33.5305 30.7272 33.1352 29.9346 32.7523C29.8472 32.7099 29.7597 32.6674 29.6982 32.5632C30.0016 32.6138 30.2926 32.787 30.5916 32.9081C31.1403 33.1286 31.6922 33.2999 32.2477 33.3777C32.5254 33.4166 32.8072 33.4391 33.0804 33.4172C33.3515 33.3937 33.6259 33.3406 33.896 33.2555C34.1322 33.1818 34.3488 33.0719 34.5668 32.9597C35.1394 32.6683 35.7169 32.3836 36.2688 32.004C36.0076 31.9382 35.7476 31.8702 35.4843 31.803C35.2236 31.7313 34.9574 31.6493 34.6981 31.5657C34.1774 31.3971 33.6648 31.2054 33.1616 30.9594C33.3543 31.0152 33.5436 31.0718 33.7342 31.1262C34.1592 31.2561 34.5869 31.3719 35.0178 31.458C35.4495 31.5478 35.8725 31.5738 36.3022 31.5693C36.8633 31.555 37.3968 31.4347 37.8815 31.1357C38.2 30.9471 38.5109 30.7466 38.8239 30.5477L39.7635 29.9544C39.8772 29.8809 40.0133 29.8391 40.1283 29.6415C39.221 29.402 38.3635 29.1593 37.4845 28.8981C37.1093 29.3352 36.6351 29.6415 36.0957 29.8249C36.4169 29.4908 36.8705 29.3301 37.0901 28.7962C36.8011 28.6051 36.5185 28.5692 36.2521 28.4582C35.8532 28.2954 35.4457 28.0785 35.0642 28.0433C34.6958 28.011 34.435 28.3685 34.1073 28.5186C33.8899 28.6248 33.6747 28.7422 33.4412 28.8114C33.8027 28.4992 34.2682 28.3533 34.5823 27.8892C34.1169 27.6059 33.6767 27.4716 33.2229 27.2668C32.6619 27.6562 32.0492 27.9449 31.3548 28.0062C31.5163 27.9375 31.6715 27.8547 31.84 27.8038C32.0307 27.746 32.2164 27.6816 32.3805 27.5698C32.5445 27.458 32.6966 27.3314 32.8489 27.2145C32.7847 27.0219 32.6684 27.0071 32.5726 26.9588C32.2963 26.8152 32.0146 26.6998 31.7479 26.5309C31.3116 26.2584 30.9158 26.1491 30.5122 26.4668C30.6008 26.2345 30.8012 26.3118 30.854 26.1087C30.4667 25.8003 30.0566 25.6264 29.6441 25.3835C29.3308 25.6367 28.9748 25.8181 28.5809 25.9056C28.8392 25.7129 29.1746 25.6675 29.3468 25.318C29.316 25.1489 29.1969 25.1289 29.1114 25.0687C28.946 24.9584 28.7739 24.8787 28.6161 24.7513C27.833 24.1189 27.1252 24.1388 26.416 24.2633C25.7577 24.3436 25.1926 24.6179 24.6389 25.1758C24.7455 24.8409 24.966 24.7977 25.0292 24.4802C24.7148 24.5693 24.3953 24.5938 24.0835 24.6398C23.773 24.6836 23.4674 24.7243 23.193 24.8896C23.1138 24.6095 22.9896 24.7878 22.8744 24.7322C23.1187 24.3919 23.4984 24.5956 23.8067 24.5311C24.1473 24.4478 24.5007 24.4119 24.8506 24.3574C24.8029 24.138 24.6595 24.2259 24.6014 24.0087C25.5036 24.4368 26.2505 24.012 27.0797 23.8279C26.7108 23.4748 26.3657 23.273 26.0355 23.0273C25.3652 22.513 24.6986 22.0171 24.0539 21.4952C23.8488 21.328 23.6569 21.3049 23.4575 21.2892C23.4849 21.2348 23.5074 21.1834 23.5498 21.0947C23.04 20.6743 22.558 20.2767 22.0716 19.8375C21.9172 19.6997 21.7797 19.7341 21.6393 19.7537C21.6116 19.638 21.7156 19.6729 21.6876 19.509C21.2854 19.142 20.9033 18.5521 20.4409 18.5368C20.4492 18.5234 20.4697 18.4898 20.5095 18.4249C20.3467 18.1788 20.1433 18.077 19.9439 17.8274C20.404 18.0365 20.7778 18.5181 21.1799 18.8658C21.3997 19.0528 21.6076 19.318 21.8509 19.3838C21.9729 19.4186 22.0227 19.6396 22.1347 19.7346C22.6035 20.1293 23.068 20.5018 23.5485 20.8824C23.5693 20.8971 23.5942 20.8858 23.6191 20.8841C23.7087 20.7134 23.5371 20.4963 23.5547 20.3068C23.8672 21.1712 23.8611 21.1861 24.499 21.6264C24.8124 21.8411 25.1188 22.1501 25.4731 22.2686C25.3163 21.2962 24.9207 20.4212 24.6087 19.5219C24.9083 20.3196 25.2611 21.0939 25.48 21.9211C25.5749 22.2828 25.7307 22.5304 25.9981 22.6934C26.874 23.2279 27.7673 23.7875 28.6903 24.3231C28.7854 24.3774 28.8832 24.4175 29.0165 24.4827C28.9748 24.2194 28.8532 24.0279 28.7559 23.8407C28.029 22.4438 27.2664 21.0664 26.4227 19.8018C25.959 19.1063 25.6171 18.3045 25.1349 17.644C24.9779 17.4275 24.8387 17.1819 24.6681 17.0071C24.6613 16.9158 24.6567 16.8453 24.6522 16.7845C24.6638 16.751 24.6757 16.7754 24.7056 16.8093C24.8659 16.9864 24.9883 17.2009 25.115 17.4377C25.2794 17.7395 25.4317 18.0904 25.6937 18.272C25.7438 18.3073 25.7791 18.4348 25.8219 18.5161C26.2062 19.2389 26.6455 19.9012 27.0827 20.5717C27.1445 20.4807 27.049 20.3684 27.094 20.2657C27.376 21.3456 28.052 22.1139 28.5254 23.0373C28.7761 23.5346 29.0634 23.9967 29.3389 24.473C29.3956 24.5706 29.451 24.6994 29.5212 24.7457C29.8832 24.9882 30.2487 25.23 30.6736 25.3503C30.4662 24.6945 30.1528 24.1435 29.9219 23.4969C30.2692 24.1679 30.532 24.8211 30.8302 25.4895C31.441 25.7986 32.0591 26.1641 32.7762 26.4167C32.5191 25.569 32.0777 24.8956 31.7426 24.0826C32.2957 24.9052 32.6883 25.7364 33.0991 26.6061C33.8719 26.9237 34.6669 27.2344 35.5408 27.5625C35.3028 26.6641 34.8337 25.9969 34.3781 25.2686C34.6724 25.5242 35.0078 25.9466 35.2444 26.389C35.4719 26.8122 35.6862 27.2421 35.9188 27.7009C36.6776 27.983 37.4304 28.2064 38.2169 28.3702C38.1467 27.9875 37.8297 27.8568 37.7217 27.5115C38.0113 27.6773 38.2136 27.9417 38.415 28.1832C38.6492 28.4637 38.8965 28.606 39.1964 28.6477C39.4928 28.6902 39.7914 28.7535 40.1191 28.8083C40.0418 28.5104 39.898 28.3064 39.7626 28.1084C39.2257 27.3228 38.6618 26.5567 38.1497 25.7501C37.7934 25.1912 37.3635 24.9425 36.8755 24.813C36.608 24.7428 36.3406 24.692 36.0722 24.5988C36.4615 24.5433 36.8716 24.6147 37.3206 24.7103C37.2792 24.5146 37.165 24.3892 37.0729 24.2665C36.5141 23.5264 35.9436 22.8004 35.4055 22.046C35.164 21.7091 34.8999 21.526 34.6038 21.4293C34.2773 21.324 33.9535 21.2334 33.6303 21.108C33.953 21.0344 34.3124 21.1789 34.6497 21.2278C34.6959 21.0841 34.604 21.0001 34.5398 20.9196C34.0328 20.2705 33.5216 19.628 33.0284 18.9661C32.7004 18.5266 32.36 18.1807 31.9106 18.1489C32.0001 17.9589 32.1687 18.1323 32.2512 18.0463C31.8797 17.3806 31.4579 16.9773 31.0153 16.6908C30.5748 16.4058 30.0982 16.2042 29.6402 15.9965C29.8287 15.9276 30.0517 16.0753 30.2598 16.1451C30.4872 16.2223 30.7176 16.3335 30.9562 16.4217C30.9449 16.2599 30.8351 16.1953 30.7682 16.1096C30.5192 15.7898 30.2688 15.4723 30.0198 15.1525C29.6536 14.6731 29.2861 14.2153 28.8287 14.0945C28.9271 14.0069 29.0596 14.1708 29.1901 14.1187C28.7746 13.5053 28.3477 12.9543 27.8558 12.4023C27.8552 12.184 27.5851 12.0351 27.5266 11.7504C27.9052 12.3314 28.3269 12.8275 28.7493 13.3369C29.1599 13.8315 29.5193 14.4342 29.9634 14.8596C30.0163 14.8072 29.966 14.7237 29.9684 14.6613C29.9851 14.6827 30.0081 14.6989 30.0158 14.7203C30.1574 15.1374 30.3961 15.4595 30.6595 15.7703C30.976 16.1409 31.2856 16.5322 31.6767 17.0003C31.4834 16.2873 31.2064 15.6818 31.1542 15.0747C31.524 16.3576 31.9406 17.6126 32.9606 18.521C33.0054 18.4918 32.9806 18.4006 32.9593 18.3087C32.9422 18.2197 32.9216 18.1314 32.9051 18.0462C32.966 18.0346 32.9933 18.0923 33.0046 18.1323C33.1447 18.747 33.4522 19.249 33.8605 19.7036C34.1775 20.0586 34.4527 20.4769 34.8071 20.8294C34.8352 20.5641 34.7479 20.307 34.7166 20.0607C34.6477 19.5347 34.5697 19.0088 34.489 18.4873C34.4014 17.9577 34.3158 17.4296 34.2268 16.9022C34.1571 16.475 34.0032 16.0877 33.7683 15.701C33.4566 15.196 33.158 14.6842 32.8938 14.1454L34.0215 16.0334C33.9902 15.441 33.905 14.9708 33.7017 14.4205C33.9334 14.6223 33.9913 14.8202 34.0168 15.0368C34.0984 15.7031 34.2022 16.3818 34.4224 17.085C34.476 17.251 34.4054 17.3614 34.4396 17.5297C34.5395 18.0198 34.6325 18.5212 34.7157 19.0092C34.7997 19.501 34.8837 19.9927 34.9815 20.491C35.0864 21.0168 35.274 21.4855 35.6427 21.9122C36.0316 22.3594 36.3923 22.8478 36.8281 23.389C36.8651 22.4219 36.6635 21.4691 36.4716 20.5199C36.619 20.64 36.6089 20.793 36.6387 20.9198C36.8374 21.736 36.9878 22.5725 37.073 23.3791C37.0943 23.5832 37.1266 23.7694 37.2668 23.9548C37.7461 24.5908 38.2254 25.2268 38.7012 25.8635C38.7466 25.9212 38.8071 25.9734 38.89 25.955C38.8604 25.5305 38.6794 25.1241 38.5457 24.6357C38.8502 25.0939 38.9616 25.5506 39.0722 25.9939C39.1729 26.3949 39.3363 26.7472 39.5757 27.073C39.8807 27.4964 40.1877 27.9212 40.5004 28.3564C40.6213 28.2174 40.5575 28.0827 40.5437 27.964C40.4394 27.0863 40.3164 26.2146 40.2004 25.351C40.1685 25.1107 40.0865 24.9375 39.9145 24.7649C39.338 24.1756 38.8118 23.3432 38.4154 22.4452C38.901 23.2074 39.3061 24.0571 40.0497 24.5687C40.1234 24.4092 40.0809 24.2447 40.0668 24.0874C39.9925 23.3653 39.9196 22.6411 39.8467 21.9265C39.8141 21.5703 39.7087 21.3037 39.4407 21.0442C38.8678 20.4927 38.4159 19.812 38.0274 19.0766C38.5038 19.8099 38.9644 20.5641 39.7423 21.0294C39.6823 20.4937 39.624 20.004 39.5594 19.5196C39.5384 19.3638 39.4318 19.2502 39.348 19.1238C39.2705 19.0018 39.1296 18.9441 39.0906 18.7788C39.2483 18.7747 39.3088 19.0513 39.4935 19.0374C39.4625 18.4933 39.552 17.9572 39.0641 17.3792C39.197 17.5082 39.3384 17.5503 39.4829 17.6362C39.5202 18.0725 39.6529 18.509 39.6604 18.9404C39.6693 19.3792 39.7774 19.8559 39.855 20.3239C39.8844 20.5049 39.8436 20.7228 40.0873 20.8659C40.0387 21.2865 40.0669 21.723 40.1209 22.1808C40.1791 22.6415 40.2602 23.1184 40.3151 23.6185C40.4946 23.3158 40.6374 23.0096 40.7949 22.7426C40.9517 22.472 41.1164 22.2325 41.3151 22.0298C40.8075 22.9854 40.5596 23.5411 40.4879 24.1505C40.4218 24.7703 40.5556 25.483 40.7816 26.8054C41.0903 26.2574 41.2646 25.6659 41.7236 25.3552C41.028 26.3641 40.7903 27.5613 41.2508 29.0811C41.275 29.0757 41.2957 29.0711 41.3178 29.0643C41.3288 29.1585 41.3577 29.2526 41.4053 29.3407C41.4844 29.4894 41.615 29.5783 41.7516 29.6137L41.7739 29.6359L41.7725 29.6381C41.8027 29.8324 41.9449 29.8782 42.0602 29.9435C43.081 30.5386 44.1251 30.6278 45.148 30.308C45.4001 30.2231 45.7094 30.2202 45.7552 29.9065C46.2194 29.9871 46.4017 29.5871 46.7386 29.4562C46.2693 29.891 45.7578 30.2191 45.2139 30.4442C44.663 30.6612 44.0664 30.753 43.4443 30.7596C43.955 31.1005 44.4657 31.4512 45.0027 31.6761C45.5383 31.9033 46.0995 32.0108 46.6915 31.8388C47.0556 31.7367 47.4359 31.6813 47.7871 31.5125C48.0306 31.3928 48.3431 31.4626 48.5969 31.3212C48.6148 31.4236 48.6305 31.4955 48.6427 31.5682C48.1361 31.5569 47.6896 31.7546 47.2302 31.8952C46.8676 32.0046 46.5077 32.1096 46.0275 32.2355C47.2043 32.7419 48.2229 33.4283 49.4216 33.5625C49.4634 33.6016 49.4395 33.6552 49.4325 33.7592C49.9221 33.9251 50.393 34.2091 50.9586 34.2557C51.11 34.5739 51.4287 34.6289 51.6981 34.774C51.6725 34.8938 51.597 34.9975 51.6491 35.1464C51.1712 34.7324 50.6669 34.4152 50.1282 34.2563C49.9984 34.3025 50.0599 34.3971 50.0333 34.4649C49.6309 33.9472 49.0651 33.891 48.4685 33.6464C48.707 34.1734 48.882 34.6141 49.1212 35.023C48.8432 34.7213 48.6307 34.3663 48.4299 34.0068C48.2445 33.671 48.003 33.4559 47.6645 33.326C47.283 33.1787 46.9091 33.0239 46.5351 32.8595C46.1611 32.6853 45.7856 32.5135 45.4116 32.3394C45.3006 32.2867 45.1921 32.2102 45.0242 32.2455C45.0567 32.6946 45.3682 33.0585 45.4841 33.5567C45.2263 33.1634 44.9973 32.8353 44.8718 32.4456C44.754 32.087 44.5334 31.8866 44.2239 31.7291C43.6227 31.4237 43.042 31.0654 42.4635 30.7278C42.3135 30.6413 42.1763 30.4996 41.9536 30.522C42.1541 30.9453 42.331 31.3585 42.5417 31.7506C42.7566 32.1552 43.2117 32.2263 43.4667 32.6144C43.2718 32.6596 43.1378 32.3568 42.9094 32.4713C42.9983 32.8575 43.2308 33.1945 43.379 33.5618C43.8139 34.631 43.8208 34.6295 44.7503 35.2178C45.1282 35.4587 45.5027 35.71 45.8417 36.0389C45.2457 35.7787 44.722 35.342 44.0444 35.098C44.408 36.0593 44.7407 36.9347 45.0754 37.8116C45.216 38.1767 45.4627 38.4661 45.7632 38.7068C46.4941 39.3024 47.2843 39.7476 48.0849 40.2002C48.4488 40.4055 48.7841 40.6965 49.2193 40.6831C49.3042 41.0953 49.7218 41.0471 49.906 41.2924C49.9061 41.4238 49.7017 41.3725 49.7186 41.5447C49.5365 41.1791 49.213 41.015 48.8943 40.8383C47.7827 40.2209 46.6624 39.6614 45.6012 38.9322C45.5783 38.916 45.5396 38.9304 45.4801 38.9301C45.4686 39.2071 45.6071 39.449 45.6806 39.6994C45.858 40.3116 46.0748 40.913 46.2336 41.5312C46.3385 41.9352 46.5285 42.2294 46.8743 42.4253C47.1111 42.5603 47.3322 42.7258 47.5492 42.9077C47.1874 42.8159 46.8945 42.5484 46.4994 42.4524C46.6173 42.9424 46.7286 43.3894 46.8407 43.8401C46.9095 44.1129 47.0892 44.307 47.2683 44.5069C47.6049 44.8885 48.0438 45.1468 48.3783 45.5366C47.894 45.3231 47.4913 44.991 47.0926 44.6329C47.0016 44.7962 47.0758 44.9383 47.1071 45.0821C47.2189 45.5967 47.3362 46.1119 47.4314 46.6341C47.5403 47.2363 47.6746 47.8212 48.21 48.2341C47.9825 48.2691 47.9459 48.051 47.7692 48.125L47.7678 48.1273Z" fill="#CB6528"/>
</g>
</svg>
