<svg width="32" height="32" viewBox="0 0 32 32" fill="none" xmlns="http://www.w3.org/2000/svg">
<path d="M17.68 4.00001C10.8933 3.81335 5.33333 9.26668 5.33333 16H2.94667C2.34667 16 2.05333 16.72 2.48 17.1333L6.2 20.8667C6.46667 21.1333 6.88 21.1333 7.14667 20.8667L10.8667 17.1333C10.9588 17.0394 11.0211 16.9202 11.0456 16.7909C11.0701 16.6616 11.0558 16.5279 11.0045 16.4067C10.9531 16.2855 10.8671 16.1822 10.7571 16.1098C10.6472 16.0374 10.5183 15.9992 10.3867 16H8C8 10.8 12.24 6.60001 17.4667 6.66668C22.4267 6.73335 26.6 10.9067 26.6667 15.8667C26.7333 21.08 22.5333 25.3333 17.3333 25.3333C15.1867 25.3333 13.2 24.6 11.6267 23.36C11.3713 23.1588 11.0509 23.0585 10.7264 23.0782C10.4018 23.0979 10.0959 23.2361 9.86667 23.4667C9.30667 24.0267 9.34667 24.9733 9.97333 25.4534C12.0683 27.1098 14.6627 28.0075 17.3333 28C24.0667 28 29.52 22.44 29.3333 15.6533C29.16 9.40001 23.9333 4.17335 17.68 4.00001ZM17 10.6667C16.4533 10.6667 16 11.12 16 11.6667V16.5733C16 17.04 16.2533 17.48 16.6533 17.72L20.8133 20.1867C21.2933 20.4667 21.9067 20.3067 22.1867 19.84C22.4667 19.36 22.3067 18.7467 21.84 18.4667L18 16.1867V11.6533C18 11.12 17.5467 10.6667 17 10.6667Z" fill="#BCBCBC"/>
</svg>
