<svg width="32" height="32" viewBox="0 0 32 32" fill="none" xmlns="http://www.w3.org/2000/svg">
<path d="M17.6799 4.00001C10.8932 3.81335 5.33321 9.26668 5.33321 16H2.94654C2.34654 16 2.05321 16.72 2.47988 17.1333L6.19988 20.8667C6.46654 21.1333 6.87988 21.1333 7.14654 20.8667L10.8665 17.1333C10.9587 17.0394 11.0209 16.9202 11.0455 16.7909C11.07 16.6616 11.0557 16.5279 11.0043 16.4067C10.953 16.2855 10.8669 16.1822 10.757 16.1098C10.6471 16.0374 10.5182 15.9992 10.3865 16H7.99988C7.99988 10.8 12.2399 6.60001 17.4665 6.66668C22.4265 6.73335 26.5999 10.9067 26.6665 15.8667C26.7332 21.08 22.5332 25.3333 17.3332 25.3333C15.1865 25.3333 13.1999 24.6 11.6265 23.36C11.3712 23.1588 11.0507 23.0585 10.7262 23.0782C10.4017 23.0979 10.0958 23.2361 9.86654 23.4667C9.30654 24.0267 9.34654 24.9733 9.97321 25.4534C12.0681 27.1098 14.6625 28.0075 17.3332 28C24.0665 28 29.5199 22.44 29.3332 15.6533C29.1599 9.40001 23.9332 4.17335 17.6799 4.00001ZM16.9999 10.6667C16.4532 10.6667 15.9999 11.12 15.9999 11.6667V16.5733C15.9999 17.04 16.2532 17.48 16.6532 17.72L20.8132 20.1867C21.2932 20.4667 21.9065 20.3067 22.1865 19.84C22.4665 19.36 22.3065 18.7467 21.8399 18.4667L17.9999 16.1867V11.6533C17.9999 11.12 17.5465 10.6667 16.9999 10.6667Z" fill="url(#paint0_linear_2025_2712)"/>
<defs>
<linearGradient id="paint0_linear_2025_2712" x1="15.8078" y1="3.99536" x2="15.8078" y2="28.0001" gradientUnits="userSpaceOnUse">
<stop stop-color="#FF8000"/>
<stop offset="1" stop-color="white"/>
</linearGradient>
</defs>
</svg>
