<svg width="47" height="33" viewBox="0 0 47 33" fill="none" xmlns="http://www.w3.org/2000/svg">
<path d="M27.562 1.58489C27.4964 2.10671 27.295 2.58727 27.0741 3.04114C26.8557 3.49985 26.6154 3.961 26.4965 4.4804C26.3654 5.06532 25.88 5.48764 25.5499 6.00218C25.7805 6.10169 25.8848 5.80073 26.1154 5.89781C25.346 7.27154 24.6009 8.74235 22.8558 9.44378L23.4796 9.4996L23.7927 9.52873L24.1058 9.54572C23.8412 9.82726 23.6471 10.0239 23.4456 10.2132C22.6811 10.9292 21.8025 11.5262 20.5817 11.6427C20.288 11.6694 19.6302 11.5068 19.7977 12.1378C19.8026 12.1573 19.6278 12.2034 19.5356 12.2325C19.1181 12.3708 18.6861 12.4873 18.2371 12.5432C17.7905 12.5869 17.3269 12.582 16.8464 12.4849C16.7493 12.4631 16.5867 12.4145 16.6085 12.5359C16.6741 12.8635 16.3658 12.7373 16.2153 12.7325C15.8416 12.7228 15.4581 12.7276 15.0819 12.6791C14.7057 12.633 14.3246 12.5699 13.963 12.4145C12.1645 11.6573 10.4607 11.5238 8.58702 11.6597C10.7398 12.5043 12.8053 13.4024 14.9678 14.0844C16.611 14.5965 18.1424 14.3441 19.4458 13.6329C19.8997 13.3732 20.3244 13.0917 20.737 12.8077C21.1496 12.5238 21.5574 12.2179 21.9748 11.9485C22.8971 11.3466 23.8194 10.7957 25.0839 10.9389C25.2781 10.9559 25.5329 10.9025 25.6543 10.9923C25.8703 11.1452 25.4091 11.2762 25.5815 11.5286C25.7635 11.4219 25.9479 11.3272 26.1373 11.252C26.3241 11.1719 26.5183 11.1015 26.7149 11.0529C26.9115 11.002 27.1154 10.968 27.3217 10.9534C27.528 10.9389 27.7391 10.9267 27.9551 10.9413C28.642 10.9898 29.2925 11.15 29.9599 11.3151C30.557 11.4413 30.6079 11.5117 30.2876 11.9995C30.2123 12.116 30.1468 12.2422 30.04 12.4121C30.5084 12.3757 30.955 12.366 31.3943 12.3854C31.8312 12.3878 32.2608 12.4218 32.6952 12.4873C33.1224 12.5359 33.5544 12.5844 33.9986 12.6063C34.4403 12.616 34.8942 12.5893 35.365 12.5043C35.1927 13.0771 34.6612 13.446 34.1466 13.8951C35.0058 13.7858 35.7485 13.8659 36.4985 13.9072C37.0785 13.9533 37.6077 14.0649 38.1392 14.1984C38.6731 14.3368 39.1974 14.4654 39.758 14.5407C39.8673 14.5528 40.0566 14.5601 40.0202 14.6984C39.9935 14.7931 39.8964 14.9071 39.792 14.9751C39.5566 15.1256 39.2265 15.162 39.0518 15.4047C39.4595 15.3683 40.0032 15.412 40.6197 15.5066C41.2289 15.5819 41.9182 15.7226 42.605 15.8634C42.9497 15.9338 43.2943 16.0115 43.6317 16.094C43.8016 16.1377 43.9666 16.1814 44.1317 16.2226C44.2943 16.2615 44.452 16.3027 44.6074 16.3464C45.2263 16.5163 45.7724 16.708 46.1631 16.9119C46.0903 17.0139 45.9884 16.9799 45.901 16.9993C45.5418 17.077 45.1874 17.1571 44.8404 17.2469C44.4933 17.3415 44.1414 17.4192 43.8016 17.5333C43.1244 17.7638 42.457 18.0381 41.8089 18.4968C41.3672 18.805 40.9133 19.0939 40.4571 19.3948C40.0008 19.6909 39.5372 19.9676 39.076 20.2613C38.7484 20.4724 38.4062 20.6496 38.0567 20.8341C37.7096 21.0137 37.3504 21.1909 36.9815 21.3389C36.6101 21.4918 36.2315 21.6374 35.8432 21.7709C35.45 21.8947 35.0495 22.0088 34.6369 22.1132C35.0956 22.3656 35.5204 22.5719 35.9014 22.8049C36.1514 22.9554 36.3213 23.0961 35.7267 23.2782C35.467 23.3607 35.2024 23.4432 34.9379 23.5257C34.6757 23.6107 34.4136 23.698 34.1515 23.7757C32.0375 24.4529 29.9017 24.3485 27.8678 23.9359C28.0328 24.3582 28.4163 24.715 28.7415 25.0888C28.9551 25.3363 28.7998 25.3582 28.4478 25.397C27.1542 25.5329 25.9698 25.2829 24.8388 24.9334C23.5718 24.5402 22.5889 23.9189 21.9384 23.1034C21.6472 23.2223 21.8899 23.5257 21.5622 23.5306C21.2855 23.5354 21.1812 23.3121 21.0355 23.1641C20.3535 22.4796 19.9312 21.7685 19.6642 21.0283C19.3997 20.288 19.288 19.5332 19.2346 18.7808C19.1788 17.9701 18.8245 17.2056 18.2711 16.5454C17.7129 15.8998 16.9556 15.3634 16.0382 15.0382L15.1353 14.7081C14.8343 14.6038 14.5382 14.48 14.2397 14.3708C13.6378 14.1547 13.0504 13.9096 12.4534 13.6863C11.2738 13.2082 10.087 12.7495 8.91225 12.2422C8.7375 12.1694 8.55789 12.1063 8.35887 12.0456C8.16228 11.9825 7.94142 11.9243 7.67444 11.8709C7.90744 12.0505 8.07248 12.2228 8.2181 12.3854C8.36858 12.5432 8.49722 12.6888 8.65983 12.8271C8.86614 13.0019 9.087 13.1548 9.31515 13.2907C9.54572 13.4242 9.78843 13.5334 10.0336 13.6378C10.2811 13.7397 10.5287 13.8368 10.7811 13.9242C11.0335 14.0067 11.2859 14.0892 11.5359 14.1742C12.0383 14.3562 12.4946 14.5674 12.9242 14.8198C13.349 15.0795 13.7591 15.3416 14.1693 15.6207C14.514 15.8561 14.6839 16.0188 14.6741 16.1522C14.6669 16.2906 14.4824 16.4095 14.1256 16.5381C15.6304 17.3803 16.0382 18.7274 17.4483 19.6836C16.7032 19.6982 16.1377 19.3657 15.4193 19.4337C15.9484 19.6861 16.1717 20.004 16.4823 20.2734C16.8488 20.5938 17.1449 20.9166 17.4022 21.2637C17.6595 21.6059 17.8827 21.97 18.1133 22.3219C18.3439 22.6762 18.5793 23.0354 18.8633 23.3849C19.0065 23.5597 19.1594 23.7344 19.3317 23.9043C19.504 24.0718 19.6958 24.232 19.9094 24.3873C19.7103 24.3631 19.521 24.3534 19.3439 24.3461C19.1642 24.3364 18.9968 24.3267 18.8317 24.3194C18.5065 24.3 18.2031 24.2684 17.9046 24.1568C17.7711 24.1058 17.6352 24.0961 17.5599 24.181C17.5041 24.2441 17.5697 24.3072 17.6473 24.3679C18.1109 24.7417 18.4216 25.1616 18.7444 25.5863C19.1448 26.1154 19.3827 26.6251 19.5089 27.1494C19.6327 27.6712 19.6448 28.2003 19.6036 28.7367C19.1497 28.6299 19.2613 28.3095 18.7759 28.2464C19.1133 28.9648 19.4943 29.6614 19.8026 30.3677C20.2928 31.4841 20.3123 31.904 19.9555 32.4331C19.754 32.1516 19.572 31.87 19.3608 31.5933C19.1376 31.3021 18.8657 31.0327 18.5623 30.7803C18.2565 30.5254 17.9216 30.2754 17.5697 30.0376C17.2202 29.7949 16.8537 29.5692 16.4945 29.324C16.1352 29.0813 15.7809 28.8386 15.446 28.5886C15.3537 28.5207 15.1547 28.4066 15.0867 28.494C14.6038 29.091 13.997 28.5085 13.5116 28.3022C13.1257 28.142 12.7713 27.9479 12.4388 27.7488C12.1063 27.5474 11.7981 27.3338 11.5092 27.1032C10.9389 26.6251 10.451 26.0936 10.0263 25.4941C9.79571 26.3363 9.56028 27.0256 8.82487 27.4989C8.72779 27.5595 8.6841 27.6906 8.51178 27.6615C8.28364 27.6226 8.1817 27.46 8.12345 27.3338C7.83705 26.7173 7.43173 26.0936 7.00214 25.4795C6.57011 24.8728 6.12353 24.2441 5.74491 23.6179C5.24493 22.7976 5.14784 22.0015 4.93183 21.1763C4.29108 21.3705 4.13575 21.3438 3.80081 20.7904C3.27899 19.9361 3.07754 19.1812 3.1455 18.4895C3.21103 17.8027 3.53383 17.2007 4.05566 16.6571C4.69398 15.9993 5.6187 15.56 6.2643 14.8974C7.10407 14.0407 7.3662 13.0601 6.84437 11.7883C6.71817 11.4655 6.56283 11.3223 6.20605 11.1743C4.88815 10.6161 3.56296 10.1792 2.21107 9.77386C2.02661 9.72047 1.84216 9.6695 1.65527 9.62339C1.47081 9.57484 1.28635 9.52388 1.10432 9.47776C0.737833 9.3831 0.368917 9.30301 0 9.23263C0.334938 9.13311 0.667448 9.02875 0.997531 8.92196L1.02908 8.92924C1.29364 9.00691 1.55091 9.07001 1.79847 9.11613C2.04603 9.15981 2.29117 9.1768 2.51931 9.17195C2.78872 9.28845 3.05813 9.39524 3.32753 9.4899C3.4052 9.52388 3.48529 9.553 3.56539 9.58213H3.54111C3.99255 9.74717 4.41972 9.93891 4.85174 10.1112C5.28376 10.2811 5.70365 10.4559 6.12596 10.6015C6.5507 10.7423 6.96816 10.8661 7.38319 10.9559C7.8055 11.0335 8.22053 11.0748 8.63556 11.0675C9.13554 11.1986 9.65979 11.1913 10.1258 11.1355C10.434 11.1015 10.7496 11.0214 11.0287 10.917C11.3442 10.8806 11.5748 10.752 11.8005 10.65C12.5068 10.32 12.9849 9.76173 13.4533 9.22534C13.6669 8.98021 13.9266 8.79818 14.196 8.60644C14.463 8.4147 14.7324 8.23024 14.9581 8.00452C15.0139 7.9487 15.094 7.90744 15.1353 7.83705C15.3707 7.6259 15.4217 7.29096 15.3926 6.98272L15.3901 6.96088C15.4605 6.42449 15.7202 5.95121 15.9289 5.46579C15.9969 5.38084 16.0576 5.29104 16.1158 5.19639C16.3173 4.99979 16.509 4.8032 16.7226 4.61389C17.0697 4.30565 17.4774 4.03867 17.9046 4.04595C18.0308 4.04352 18.0842 4.63088 18.0624 4.97067C18.0551 5.05076 18.0988 5.10658 18.1691 5.11629C18.2104 5.11872 18.2784 5.08717 18.2978 5.05076C18.4919 4.68912 18.7516 4.40758 19.0332 4.13818C19.3147 3.86634 19.6157 3.61878 19.8924 3.35423C20.2564 3.00716 20.6302 2.64552 21.004 2.26447C21.1083 3.07997 20.7952 3.80081 20.8899 4.65515C21.1132 4.39302 21.3656 4.17944 21.6277 4.00954C21.8899 3.83479 22.1593 3.70616 22.4311 3.5581C22.7005 3.41248 22.9675 3.27171 23.2151 3.10667C23.4626 2.93434 23.6932 2.73047 23.8874 2.47563C23.9407 2.81056 23.9869 3.07997 24.0378 3.39792C24.2975 3.2353 24.5572 3.07269 24.8096 2.93434C25.0621 2.79357 25.3096 2.66736 25.5499 2.51203C25.7683 2.37611 25.9868 2.2402 26.1907 2.09457C26.3945 1.94652 26.5838 1.7742 26.744 1.58246C27.0644 1.19655 27.2634 0.708708 27.2464 0C27.6105 0.531531 27.6275 1.05335 27.562 1.58489Z" fill="#EA540A"/>
</svg>
