<svg width="63" height="62" viewBox="0 0 63 62" fill="none" xmlns="http://www.w3.org/2000/svg">
<g opacity="0.53">
<path d="M46.2855 49.921C46.5737 49.0971 46.5961 48.275 46.5802 47.4591C46.5762 47.2487 46.5833 47.0342 46.5826 46.8231C46.583 46.0691 46.8974 45.6383 47.7608 45.719C47.9252 45.7331 48.1031 45.6963 48.2717 45.6649C48.4404 45.6334 48.6745 45.6108 48.7109 45.4384C48.764 45.1887 48.4791 45.2974 48.3482 45.2455C47.9566 45.0878 47.6198 44.929 47.8557 44.3925C47.989 44.0901 47.7148 43.9184 47.5545 43.7163C47.4507 43.5883 47.1954 43.4917 47.3281 43.3028C47.4105 43.1862 47.6705 43.098 47.8269 43.1155C48.2811 43.1607 48.7357 43.0753 49.1743 42.9536C49.6155 42.8366 50.0573 42.7143 50.5133 42.7265C50.6861 42.732 50.963 42.7005 50.992 42.5004C51.0298 42.2178 50.7104 42.4007 50.5772 42.3217C50.0938 42.0353 49.0629 42.1575 49.6442 41.0738C49.7557 40.8652 49.515 40.8807 49.3882 40.8571C48.8856 40.7687 48.5078 40.4947 48.1704 40.1592C47.9268 39.9193 47.7936 39.6326 48.0053 39.3106C48.2175 38.9833 48.5946 38.9466 48.8799 39.0885C49.3359 39.3171 49.4194 39.1727 49.5029 38.7295C49.6087 38.1615 50.1295 38.3131 50.4859 38.3339C51.4534 38.4034 52.2375 37.7604 53.1319 37.5256C53.2115 37.504 53.3238 37.4241 53.2506 37.3276C53.2121 37.2824 53.086 37.2792 53.0043 37.291C51.9157 37.4749 50.923 37.1838 49.9442 36.9105C49.6455 36.8281 49.3709 36.6959 49.3073 36.3639C49.2467 36.0621 49.5323 35.9567 49.714 35.7972C49.7914 35.7314 49.9075 35.6369 49.9011 35.5644C49.8895 35.4088 49.7176 35.4409 49.6079 35.4172C48.5629 35.1971 47.6863 34.7206 47.033 33.8785C46.8441 33.6377 46.5746 33.3894 46.7333 33.044C46.8991 32.6748 47.2612 32.6652 47.6115 32.6649C48.163 32.6659 48.7483 32.8798 49.2422 32.4445C49.3176 32.3773 49.4334 32.3396 49.4837 32.2588C49.5562 32.1442 49.6307 32.0395 49.7092 31.946C49.7838 31.8498 49.8637 31.7629 49.9444 31.6878C50.109 31.537 50.2864 31.4316 50.4819 31.3637C50.8755 31.2325 51.3428 31.2664 51.9193 31.4546C52.0237 31.4862 52.1428 31.6385 52.2335 31.4875C52.2648 31.4312 52.1661 31.2696 52.093 31.1902C51.7954 30.8722 51.402 30.7303 50.9976 30.6268C50.574 30.522 50.1583 30.3968 49.8134 30.1246C49.6271 29.9794 49.3208 29.7439 49.3443 29.6085C49.5059 28.6872 48.6527 28.9546 48.3109 28.6475C48.1298 28.4857 47.8446 28.452 47.6162 28.336C47.1264 28.0853 46.9737 27.7373 47.3039 27.274C47.5948 26.8704 47.8758 26.4602 48.1541 26.054C48.1979 25.9917 48.2251 25.9156 48.259 25.8468C48.2002 25.8281 48.1339 25.7817 48.0904 25.7958C47.2925 26.0398 46.4774 25.8855 45.6744 25.7476C45.5958 25.7329 45.5161 25.7546 45.4362 25.7419C45.1238 25.6931 44.6161 26.0283 44.5481 25.716C44.4951 25.4848 44.512 25.2426 44.579 25.0021C44.6428 24.7622 44.7633 24.5312 44.9343 24.3447C45.0181 24.2518 45.2833 24.2467 45.1886 24.0963C45.074 23.9156 44.865 24.0344 44.7222 24.1C44.5012 24.2024 44.2829 24.3008 44.0711 24.4064C43.8528 24.5048 43.6371 24.6078 43.4327 24.7239C43.0206 24.9568 42.6438 25.2443 42.3219 25.6475C41.7763 26.3477 40.8577 26.1083 40.0458 25.8193C39.7171 25.7001 39.9413 25.5799 40.0464 25.5066L40.7849 24.9589C41.0304 24.7759 41.266 24.5778 41.5062 24.3855L42.9347 23.2297C43.4641 22.775 43.9683 22.2895 44.4631 21.8007C44.7076 21.5544 44.9547 21.3126 45.1859 21.0519C45.413 20.7885 45.6343 20.5212 45.8515 20.2513C46.0688 19.9814 46.282 19.7089 46.4874 19.4311C46.6947 19.1547 46.896 18.8743 47.0748 18.5763C47.4417 17.9835 47.7801 17.3776 48.0881 16.7575C48.1578 16.6212 48.305 16.4276 48.1102 16.3081C47.8638 16.1547 47.7422 15.8072 47.5066 15.6979C47.271 15.5886 47.3013 15.876 47.2652 16.0089C47.1072 16.5568 46.9074 17.0858 46.6719 17.5914C46.5542 17.8441 46.4272 18.0937 46.2915 18.3347C46.1493 18.5685 45.9977 18.799 45.8395 19.0224C45.5238 19.4724 45.1783 19.9028 44.8103 20.3155C44.629 20.5264 44.4297 20.7171 44.2284 20.9064C44.0251 21.0944 43.8198 21.2811 43.6086 21.4639C43.295 21.7331 42.9768 21.9965 42.6559 22.2552C42.333 22.5126 41.9895 22.7451 41.6547 22.986C40.9743 23.4582 40.308 23.9481 39.6043 24.3821C39.4315 24.4934 39.2291 24.7105 39.0096 24.5292C38.8126 24.3655 38.9546 24.0974 38.9618 23.883C38.9754 23.4422 39.0694 23.0828 39.2569 22.8018C39.443 22.5229 39.7081 22.3015 40.0846 22.1704C40.44 22.0454 40.9794 21.9132 41.0369 21.6179C41.1033 21.2831 41.2886 21.0747 41.4766 20.871C41.6606 20.6646 41.854 20.47 41.9418 20.1891C41.9554 20.1468 41.916 20.0725 41.9024 20.0152C41.8484 20.0281 41.7765 20.0206 41.7477 20.0558C41.4067 20.4749 40.8752 20.3049 40.3854 20.2534C40.2244 20.2386 40.0328 20.2009 40.1276 19.9701C40.3882 19.37 40.3095 18.6238 40.3684 17.9538C40.4008 17.5624 40.5305 17.2179 40.7179 16.9198C40.7577 16.8549 40.8436 16.7804 40.7448 16.6927C40.6956 16.6462 40.5757 16.6641 40.5066 16.687C40.1498 16.8054 39.8017 16.9324 39.4528 17.056C38.8586 17.2717 38.5464 17.0494 38.3548 16.2973C38.3101 16.1228 38.2806 15.9469 38.2194 15.7757C38.0743 15.3644 38.1476 14.98 37.566 14.6091C37.1221 14.323 36.9919 13.5686 36.878 13.0099C36.801 12.6205 36.7055 12.2418 36.4385 11.8728C36.3793 11.7941 36.306 11.6804 36.2231 11.7199C36.1915 11.7333 36.2101 11.8479 36.231 11.9157C36.3754 12.4063 36.3869 12.8607 36.2635 13.252C36.1646 13.5713 36.0464 13.8551 35.5453 13.6822C35.1532 13.5469 35.0342 13.9184 34.9799 14.2783C34.9306 14.6217 34.9252 15.0024 34.8197 15.3144C34.6749 15.76 34.3433 15.6929 33.9996 15.1938C33.658 14.7045 33.4199 14.2094 33.2517 13.7117C33.0776 13.2102 32.976 12.7022 32.9179 12.1973C32.9053 12.0866 32.9606 11.9549 32.8273 11.8588C32.775 11.8216 32.6798 11.8928 32.6247 11.942C32.502 12.0463 32.3628 12.1369 32.1559 11.9839C31.9657 11.8447 31.9226 11.6114 31.8817 11.4138C31.6884 10.4955 31.5778 9.62869 31.6692 8.86616C31.6798 8.78495 31.7512 8.69807 31.6463 8.59782C31.5374 8.49496 31.4913 8.60411 31.468 8.67419C31.2547 9.23697 30.6678 9.4717 30.807 10.3858C30.8367 10.596 30.7179 10.7769 30.516 10.6727C30.1294 10.4727 30.0762 10.6142 30.123 11.0064C30.1572 11.2878 30.0205 11.4655 29.7822 11.4513C29.5631 11.4382 29.4307 11.1633 29.2901 10.9485C29.1309 10.7101 29.0224 10.4594 28.9759 10.2097C28.9074 9.82887 29.0305 9.4857 28.4179 9.21395C28.1036 9.07285 28.085 8.45155 28.0231 8.06077C28.0045 7.93753 28.0974 7.81356 27.9561 7.70366C27.8196 7.59966 27.7492 7.74129 27.7414 7.86141C27.7228 8.13662 27.6358 8.35554 27.5515 8.57906C27.4685 8.8006 27.3749 9.01231 27.357 9.29939C27.3452 9.50792 27.294 9.75036 27.0839 9.69764C26.877 9.64424 26.8269 9.33517 26.7154 9.13668C26.6319 8.9822 26.5662 8.81375 26.4232 8.74542C26.0229 8.55343 25.9672 8.20944 25.9345 7.8521C25.9248 7.77169 25.9724 7.68628 25.8729 7.61238C25.8206 7.57512 25.7575 7.61907 25.7102 7.64775C25.5801 7.72446 25.557 7.91988 25.5431 8.11854C25.5132 8.58842 25.2716 8.57483 24.8884 8.28312C24.3687 7.89598 23.9292 7.26556 23.4383 6.84327C23.1271 6.57615 22.8262 6.15922 22.514 6.12762C22.6817 6.55664 22.9871 6.74595 23.2246 7.05577C23.6763 7.63729 24.0033 8.31331 24.4012 8.93345C24.4426 9.00047 24.4942 9.12547 24.4792 9.16119C24.2318 9.86669 24.8162 10.5496 25.1938 11.2048C25.3934 11.5551 25.4411 11.6861 25.1465 11.632C25.023 11.6077 24.9159 11.5715 25.0186 11.8525C25.1053 12.0887 24.9618 12.0428 24.8473 11.9789C24.6129 11.8505 24.3979 11.658 24.1904 11.402C24.1026 11.2931 24.0601 11.0374 23.9206 11.1023C23.9048 11.109 24.0097 11.4085 24.0905 11.5498C24.3928 12.0815 24.742 12.5245 25.1206 12.9185C25.3092 13.1165 25.5077 13.3039 25.7074 13.4807C25.9032 13.6549 26.1074 13.8204 26.3097 13.9847C27.156 14.6718 27.8871 15.5081 28.3091 16.6935C28.459 17.1193 28.5356 17.5311 28.3448 17.8213C28.2442 17.9743 28.1078 17.9957 27.9624 17.9485C27.815 17.9 27.6592 17.7862 27.5193 17.6829C26.3439 16.7993 25.4525 15.5617 24.6913 14.1477C24.6185 14.0116 24.6133 13.8289 24.5733 13.6688C24.5401 13.5246 24.6657 13.3595 24.4776 13.2558C24.3531 13.1854 24.3294 13.3947 24.2906 13.5143C24.2481 13.6657 24.1765 13.8093 24.1803 13.9854C24.1848 14.7796 23.8486 14.516 23.4371 14.1288C22.9008 13.6283 22.3861 13.1079 21.9033 12.5173C21.761 12.3441 21.6095 12.1762 21.4563 12.0499C21.256 11.8869 20.963 11.6659 20.9003 11.8609C20.8381 12.0421 21.1407 12.2011 21.2804 12.3783C21.8173 13.0813 22.0543 13.9116 22.2319 14.737C22.3523 15.3029 22.1036 15.5037 21.6967 15.2221C21.1839 14.8764 20.7749 14.2775 20.3467 13.7598C20.2875 13.6896 20.2233 13.5535 20.1837 13.5531C20.0847 13.5478 20.132 13.7097 20.1399 13.8146C20.1638 14.0381 20.2515 14.3291 20.083 14.3948C19.9205 14.4559 19.7352 14.2658 19.6059 14.0641C19.268 13.5432 18.8121 13.2322 18.5296 12.6053C18.4614 12.458 18.3168 12.2406 18.2145 12.3356C18.1267 12.4173 18.2664 12.6031 18.3089 12.742C18.4437 13.1779 18.6011 13.6399 18.4084 13.946C18.2204 14.2493 17.9166 13.9841 17.654 13.786C17.4956 13.6676 17.3454 13.4977 17.1954 13.3536C17.0865 13.2507 16.9481 12.9633 16.9814 13.415C17.0016 13.6787 16.8056 13.5699 16.6865 13.5172C16.2889 13.347 15.9114 13.0163 15.5387 12.7172C15.4744 12.6636 15.3875 12.4926 15.3506 12.605C15.3066 12.7326 15.4144 12.8803 15.4821 12.9419C15.9645 13.3728 16.3366 14.0756 16.7711 14.6572C16.9229 14.8594 17.2647 14.9845 17.073 15.4278C17.0392 15.5052 17.1441 15.5968 17.209 15.6452C17.3383 15.7387 17.4753 15.8117 17.6027 15.921C17.7029 16.0068 17.8418 16.0639 17.9564 16.145C18.0678 16.2267 18.1522 16.3278 18.1377 16.5231C18.1113 16.9356 18.0457 17.4902 17.5832 17.3797C17.4947 17.3585 17.3495 17.246 17.3402 17.442C17.3392 17.4954 17.5012 17.6474 17.5959 17.7154C18.0844 18.0592 18.6167 18.2497 19.0992 18.6977C19.3202 18.9028 19.6084 19.1008 19.6428 19.5076C19.6782 19.8867 19.404 19.8146 19.2242 19.8672C19.0261 19.9305 19.2595 20.3202 19.0874 20.4262C18.6977 20.6596 18.3625 21.3558 17.8112 20.3758C17.7845 20.3298 17.708 20.3336 17.6558 20.3135C17.6741 20.3939 17.6794 20.4941 17.7147 20.5486C17.8699 20.7759 18.0194 21.0421 18.2038 21.1946C19.0461 21.8877 19.9346 22.5712 20.8293 23.2105C21.2171 23.491 21.6136 23.5979 22.0109 23.6257C22.4095 23.6514 22.8103 23.6046 23.1971 23.5401C23.6624 23.4731 24.136 23.4627 24.6381 23.7813C25.1005 24.0739 25.2322 24.5532 24.9467 24.9661C24.6075 25.4604 23.9932 25.7455 23.3435 25.7596C22.6858 25.76 22.0054 25.5177 21.5312 25.0267C21.2257 24.712 20.9266 24.5695 20.6281 24.5213C20.3289 24.4698 20.027 24.4962 19.7285 24.5477C19.453 24.5943 19.6383 24.7758 19.7599 24.907C19.8502 25.0034 19.9533 25.128 19.9198 25.2569C19.8748 25.4294 19.7418 25.2679 19.6473 25.2514C19.6348 25.2489 19.6182 25.2351 19.6096 25.2352C19.1946 25.321 18.7778 25.3402 18.3599 25.2961C17.942 25.2434 17.5189 25.1077 17.0988 24.9197C16.9929 24.8729 16.7859 24.8934 16.7897 25.061C16.7929 25.2595 16.9731 25.1673 17.0729 25.2016C17.5635 25.3732 17.8264 25.9217 18.0777 26.4313C18.2301 26.7364 17.9173 26.7101 17.8158 26.8341C17.7491 26.9183 17.5929 26.9437 17.6368 27.0978C17.6854 27.2664 17.8222 27.1969 17.9177 27.1771C18.1384 27.1315 18.3594 27.1287 18.5852 27.2572C18.9043 27.4385 19.2298 27.6752 19.2486 28.1401C19.2587 28.363 19.1838 28.5245 19.0658 28.6348C18.9504 28.7411 18.7938 28.7975 18.6423 28.8288C18.3319 28.8896 18.0006 28.8654 17.6885 28.6431C16.9415 28.1037 16.4795 28.2697 15.8225 28.78C15.2764 29.2123 14.5709 29.2638 13.8789 29.0565C13.7632 29.0204 13.5701 28.8508 13.5312 29.0529C13.4935 29.2444 13.704 29.3572 13.8332 29.4335C14.271 29.6985 14.7234 29.8934 15.1723 30.1372C15.3808 30.2487 15.6115 30.4174 15.5813 30.7448C15.5498 31.0656 15.2837 31.033 15.0872 31.0462C14.7865 31.062 14.4836 31.0422 14.216 30.7781C14.1576 30.7198 14.0476 30.6446 14.0068 30.6719C13.9077 30.7405 13.9693 30.8806 13.9971 30.9985C14.0018 31.013 14.0118 31.0281 14.0139 31.0466C14.0587 31.3464 14.5215 31.5994 14.2509 31.8855C13.9574 32.1935 13.5234 32.1046 13.1485 31.8696C13.0326 31.7991 12.9271 31.7041 12.8126 31.6402C12.694 31.5737 12.5992 31.2979 12.4702 31.4465C12.3491 31.5832 12.4522 31.8161 12.535 31.9758C12.6439 32.1783 12.7816 32.3628 12.9115 32.5506C13.092 32.8087 13.3128 33.0876 13.1514 33.4284C12.9823 33.7897 12.6257 33.7346 12.3866 33.5917C11.8476 33.2773 11.6247 33.1877 11.8457 34.0986C11.9589 34.5629 11.7126 34.9333 11.2622 34.956C10.7445 34.9858 10.2254 34.9833 9.7077 35.013C9.58043 35.0205 9.3569 34.9362 9.35308 35.1585C9.34892 35.3294 9.57921 35.3384 9.71596 35.3685C10.2293 35.4839 10.7516 35.5683 11.2716 35.6909C11.5861 35.7666 11.9743 35.7087 12.1024 36.2369C12.1132 36.2725 12.1742 36.3183 12.2105 36.3193C13.115 36.3246 12.6049 37.014 12.6282 37.442C12.6298 37.4915 12.5919 37.5406 12.5902 37.5907C12.5662 37.8567 12.3252 38.2191 12.5424 38.3562C12.7822 38.5024 12.8862 38.067 13.0261 37.8715C13.2923 37.5142 13.5712 37.1938 13.9333 36.9763C14.0969 36.879 14.264 36.8152 14.4385 36.9697C14.5945 37.1092 14.5937 37.2966 14.562 37.4921C14.5436 37.6023 14.5005 37.7761 14.5464 37.8233C14.6652 37.9413 14.7611 37.7823 14.8604 37.7223C15.0036 37.6343 15.1421 37.5318 15.2807 37.4379C15.5342 37.2601 15.8055 37.0941 16.0661 37.3905C16.3439 37.704 16.115 38.0176 15.9789 38.281C15.6819 38.8628 15.154 39.2416 14.9524 39.8947C14.8962 40.0712 14.7857 40.3259 14.9479 40.4212C15.1506 40.5373 15.1346 40.2194 15.2177 40.106C15.3197 39.9682 15.4797 39.8286 15.6649 39.7027C15.8495 39.5735 16.0611 39.4508 16.2689 39.3597C16.6867 39.1788 17.0939 39.1135 17.2547 39.2932C17.7219 39.8166 18.1673 39.6283 18.645 39.5381C18.9619 39.476 19.1611 39.2768 19.3048 38.9585C19.6656 38.1454 20.6304 37.8944 21.36 38.3996C21.5502 38.5302 21.7024 38.7014 21.6671 38.9543C21.5845 39.5347 21.4357 40.0859 20.9213 40.4138C20.8175 40.4765 20.6361 40.5878 20.6497 40.6451C20.6886 40.8415 20.8836 40.796 21.0169 40.8011C21.3032 40.8071 21.3845 40.9345 21.3389 41.2291C21.242 41.8399 21.2344 42.4924 20.5395 42.7529C20.4967 42.7703 20.4801 42.8562 20.4514 42.9085C20.5109 42.9305 20.5732 42.9743 20.6326 42.9706C20.9801 42.9486 21.3373 42.7991 21.4839 42.5112C21.676 42.128 21.9521 41.8768 22.2588 41.6743C22.5669 41.4697 22.8995 41.2928 23.2142 41.0954C23.4645 40.9355 23.7009 40.7664 23.8269 40.4707C23.8607 40.3933 23.9581 40.3491 24.023 40.2893C24.0407 40.3835 24.0863 40.4874 24.071 40.5713C23.9924 40.9551 24.1461 40.9594 24.4085 40.833C24.7945 40.6484 25.1455 40.4522 25.4279 40.1653C25.7117 39.8765 25.9297 39.5189 26.0599 39.0523C26.23 38.4383 26.8 37.831 27.4681 37.3991C28.1301 36.9462 28.8848 36.651 29.4671 36.7178C30.0243 36.7795 30.3455 37.2867 30.1532 37.8434C29.9532 38.4206 29.4804 38.7588 28.9985 39.0027C28.249 39.3981 27.6068 39.847 27.0823 40.4415C26.5544 41.0281 26.1395 41.7459 25.8071 42.5634C25.522 43.2527 24.9542 43.7874 24.6739 44.5083C24.6285 44.6208 24.5672 44.7313 24.5462 44.8456C24.5152 45.0444 24.4082 45.3327 24.6224 45.4052C24.7685 45.4557 24.7287 45.1136 24.8467 44.9947C25.1226 44.7178 25.0778 43.8203 25.8375 44.4875C26.1189 44.2456 26.3764 44.3778 26.6392 44.5106C26.9032 44.6415 27.1746 44.7829 27.4767 44.5744C27.7237 44.4066 27.8657 44.7447 27.8523 45.0206C27.8226 45.6244 27.5409 46.1223 27.1428 46.5722C26.8067 46.9319 26.4793 47.3002 26.1545 47.673C26.0956 47.7453 26.0326 47.8889 26.0633 47.9461C26.132 48.0624 26.264 47.9784 26.3415 47.9212C26.9336 47.4793 27.4262 47.8428 27.9245 48.085C28.1561 48.2002 28.0453 48.3949 27.9492 48.5367C27.7663 48.8064 27.5362 49.0309 27.3479 49.2914C27.2283 49.4604 26.8035 49.6736 27.3817 49.8202C27.5343 49.8608 27.4478 50.0401 27.3884 50.1434C26.9187 50.9533 26.9647 51.9313 26.359 52.7143C26.2405 52.8642 26.1158 53.1579 26.3004 53.2365C26.5471 53.3418 26.57 53.0124 26.6912 52.8757C27.0854 52.4318 27.4399 51.9618 27.8448 51.5363C28.0401 51.3345 28.2987 51.032 28.6043 51.4634C28.7574 51.6807 28.8411 51.4711 28.901 51.3453C29.0357 51.0667 29.1387 50.7758 29.3013 50.5155C29.5527 50.12 29.8847 49.7491 30.409 49.8176C30.9121 49.8835 31.1469 50.2798 31.2816 50.7156C31.3227 50.8394 31.2509 51.0569 31.4297 51.0663C31.6343 51.0755 31.7126 50.8395 31.6946 50.7109C31.6428 50.361 31.7482 50.0318 31.8575 49.7052C31.9669 49.3786 32.0795 49.0427 32.0528 48.6979C32.0339 48.4236 32.1444 48.1689 32.4311 48.0357C32.7291 47.8986 32.9058 48.0973 33.0988 48.2497C33.2042 48.3361 33.3622 48.4855 33.4405 48.4573C33.6596 48.3707 33.4632 48.1847 33.4979 48.0453C33.659 47.3628 33.7045 46.6526 34.0176 46.016C34.2748 45.4905 34.9072 45.3597 35.2329 45.8385C35.9556 46.8998 36.8838 47.9084 36.505 49.3984C36.483 49.4751 36.48 49.6097 36.527 49.6377C36.6515 49.7082 36.7298 49.5803 36.7985 49.4974C37.0628 49.156 37.325 48.8046 37.3407 48.3823C37.3787 47.3286 37.7001 46.333 37.9514 45.3227C38.0336 44.9811 38.1556 44.8734 38.514 45.0037C38.8764 45.1365 39.2623 45.2422 39.6757 45.1979C39.8003 45.1859 39.96 45.1941 40.0032 45.0461C40.0516 44.8815 39.8819 44.8582 39.7747 44.8134C39.4208 44.6633 39.1922 44.3963 39.1213 44.0451C38.8432 42.6755 38.5862 41.3083 38.808 39.9143C38.8734 39.5246 38.9962 39.1386 39.3844 38.9896C39.8042 38.8272 40.1534 39.0624 40.4404 39.362C41.2847 40.2556 41.7025 41.3044 41.5543 42.5562C41.4912 43.0896 41.403 43.6265 41.3511 44.1645C41.2972 44.7012 41.2756 45.2277 41.3642 45.7641C41.3998 45.9697 41.4184 46.184 41.4922 46.3748C41.5385 46.4906 41.6927 46.6631 41.7651 46.6481C42.0082 46.5944 41.8376 46.4253 41.8223 46.31C41.7181 45.5072 42.1331 44.9061 42.9658 44.7391C43.2432 44.6851 43.2217 44.9386 43.2656 45.0841C43.422 45.6082 43.6429 46.0949 44.0196 46.4962C44.2195 46.7073 44.3795 46.9662 44.8024 46.7688C45.0438 46.657 45.1555 46.8898 45.2542 47.0515C45.7691 47.9222 46.0168 48.8705 45.9339 49.9232C45.9229 50.044 45.76 50.2529 46.008 50.2566C46.0852 50.2561 46.2415 50.0486 46.2862 49.9242L46.2855 49.921Z" fill="#FC9B31"/>
<path d="M44.7423 42.4002C44.7181 42.7229 44.9073 43.0153 44.8917 43.3551C44.7356 43.2895 44.7494 43.0737 44.5608 43.0835C44.5953 42.1129 44.2612 41.2614 44.0663 40.3022C43.7822 40.6392 43.6857 41.0198 43.3666 41.2455C43.4865 41.0198 43.6004 40.7815 43.715 40.5466C43.8666 40.2336 43.9522 39.9085 43.8656 39.5726C43.6125 38.5979 43.3436 37.6299 43.0607 36.6357C42.8708 36.7385 42.9109 36.9329 42.8001 37.0279C42.75 37.0348 42.732 37.0145 42.7476 36.9735C42.9481 36.4563 42.8519 35.9661 42.6441 35.4681C42.496 35.1175 42.396 34.75 42.2683 34.39C42.2233 34.2637 42.2039 34.12 42.0674 34.0417C41.9315 34.1316 41.9617 34.3195 41.8609 34.4296C41.8068 34.4339 41.7981 34.4168 41.8103 34.3679C41.9426 33.8202 41.8713 33.3008 41.6244 32.7714C41.2658 32.0092 40.9467 31.2302 40.5986 30.4435C40.3859 30.6026 40.4379 30.8958 40.199 31.0774C40.2385 30.87 40.2534 30.7175 40.2947 30.5768C40.3888 30.243 40.3484 29.9233 40.1735 29.6006L38.8811 27.1715C38.825 27.0663 38.7564 26.9671 38.6565 26.8075C38.3196 27.6534 38.0645 28.4962 37.7807 29.3827C38.2716 30.0952 38.6914 30.8465 38.7639 31.7366C38.4797 31.0603 38.3146 30.3199 37.7108 29.7921C37.5605 29.9039 37.5241 30.0849 37.471 30.2436C37.0992 31.2943 36.7177 32.3641 36.2899 33.4349C36.2081 33.6373 36.2139 33.8148 36.2727 34.0242C36.4105 34.5246 36.6445 34.9915 36.8021 35.4878C36.5187 35.1308 36.3693 34.6825 35.9718 34.3217C35.7734 34.8401 35.5761 35.3395 35.3683 35.8547L36.6136 38.4464L36.54 38.4805L35.3435 35.9835C35.0557 36.3694 34.9542 36.7836 34.7951 37.1686C34.7535 37.2665 34.8076 37.3704 34.8498 37.4664C35.442 38.8433 35.807 40.2929 36.1292 41.7513C36.3114 42.574 36.3479 43.4149 36.4569 44.2493C36.4971 44.5433 36.4806 44.8455 36.694 45.0968C36.4688 45.1623 36.5756 45.3549 36.4701 45.4505C36.3251 44.8743 36.3443 44.2778 36.237 43.7006C36.2164 43.5846 36.2367 43.4585 36.1106 43.3386C35.962 43.6166 35.8245 43.8735 35.687 44.1304L35.6261 44.1103C35.7344 43.8114 35.8446 43.5138 35.9462 43.2163C36.0303 42.9671 36.0768 42.7187 36.0348 42.4492C35.8007 40.9433 35.4019 39.4716 34.7371 38.084C34.6856 37.9761 34.6564 37.8516 34.4963 37.7748C33.9422 38.8907 33.4253 40.0452 32.8537 41.2093L33.1259 41.8778C32.9503 41.7681 32.9709 41.5767 32.7899 41.4406C32.3197 42.1733 31.989 42.9579 31.5962 43.7158C31.703 44.1161 31.9373 44.4352 31.9967 44.8386C31.8503 44.546 31.7356 44.2485 31.4305 43.9939C31.0976 44.7428 30.6455 45.422 30.3699 46.2398C29.8685 46.8381 29.504 47.5919 29.1747 48.3916C29.1034 48.3789 29.0515 48.5184 28.919 48.5252C28.958 48.2406 29.2871 48.03 29.1589 47.6838C29.3093 47.5892 29.4623 47.4734 29.5555 47.3013C29.931 46.6174 30.3073 45.9539 30.646 45.2914C30.5258 45.1668 30.4535 45.2075 30.3888 45.202C30.3505 45.191 30.355 45.1712 30.4023 45.1425C30.9477 44.8151 31.0803 44.2192 31.3442 43.7181C31.5593 43.3129 31.7036 42.8812 31.9153 42.4768C32.4425 41.4798 32.8596 40.4078 33.2836 39.3686C33.4012 39.0901 33.5188 38.8117 33.6857 38.4148C33.0226 38.7958 32.454 39.1109 31.8942 39.443C31.3178 39.77 30.706 40.0425 30.1656 40.4274C29.9023 40.6158 29.6183 40.7621 29.3369 40.913C29.1943 40.9872 29.0536 41.0626 28.9156 41.1427C28.7749 41.2182 28.6369 41.2982 28.5042 41.3875C27.9565 41.7618 27.3868 42.1046 26.8045 42.4363C27.1847 42.0743 27.613 41.7951 28.0553 41.5336C28.4956 41.2708 28.9512 41.0323 29.364 40.7116C29.2037 40.6177 29.0421 40.7078 28.8842 40.5842C30.0091 40.5009 30.8648 39.8139 31.7879 39.3276C32.4786 38.9392 33.1214 38.4679 33.7303 37.9659C33.9239 37.8056 34.081 37.6271 34.1671 37.3792C34.3418 36.8536 34.6289 36.3735 34.7813 35.7649C34.3078 35.7838 33.9057 35.9408 33.5117 36.1116C33.1143 36.2745 32.7356 36.4696 32.336 36.5969C32.7572 36.3329 33.1877 36.0893 33.6348 35.8766C34.0766 35.6462 34.5378 35.4512 35.0376 35.31C35.2163 34.7956 35.4571 34.2993 35.603 33.7007C35.2128 33.7487 34.9531 33.9879 34.6223 34.0409L35.4867 33.5702C35.6287 33.4927 35.7541 33.4015 35.8104 33.2336C36.035 32.5757 36.2504 31.9232 36.4559 31.2727C36.463 31.2489 36.4377 31.2095 36.4175 31.145C36.0206 31.3851 35.603 31.5917 35.1955 31.8133C34.7892 32.033 34.377 32.2402 34.0015 32.5257C34.1185 32.3521 34.2713 32.2277 34.4395 32.1191C34.6175 31.9999 34.7822 31.8662 34.9702 31.762C35.5229 31.4365 36.0508 31.0663 36.5522 30.6672C36.6231 30.6113 36.7012 30.5488 36.7396 30.4687C36.8731 30.2007 36.9788 29.9229 37.0785 29.6327C37.1755 29.3378 37.2619 29.0246 37.358 28.7007C36.9754 28.8021 36.7501 29.0411 36.4156 29.1429C36.7328 28.9244 36.9998 28.6958 37.2775 28.4855C37.3753 28.4103 37.4505 28.3175 37.4926 28.1971C37.6571 27.7217 37.811 27.2451 37.9681 26.7592C37.8086 26.6771 37.7419 26.7785 37.6637 26.8239C37.2457 27.0615 36.8371 27.3194 36.4138 27.5478C36.2935 27.6139 36.1898 27.6937 36.1033 27.7906C36.0142 27.8829 35.9384 27.9896 35.8719 28.1167C35.5676 28.6966 35.2435 29.2719 34.9115 29.8507C34.8698 29.9228 34.8594 30.0469 34.7129 30.036C34.9859 29.4128 35.3133 28.8453 35.4786 28.1912C35.3315 28.1031 35.2543 28.1946 35.1728 28.2407C34.6121 28.5524 34.0368 28.8345 33.4968 29.1884C32.8128 29.6097 32.2557 30.1629 31.8252 30.9046C31.5219 31.4396 31.2477 31.9737 30.9511 32.5159C30.88 32.6457 30.7977 32.7709 30.6902 32.8739C30.925 32.3565 31.1412 31.8326 31.3767 31.327C31.6076 30.8156 31.847 30.3041 32.1461 29.8404C31.7328 29.9928 31.3342 30.1663 30.9522 30.3621C30.5635 30.5506 30.1989 30.7806 29.8644 31.0816C29.5274 31.3866 29.2699 31.761 29.039 32.1643C28.8108 32.5721 28.5957 32.9773 28.3602 33.3832C28.4769 32.9675 28.6228 32.5767 28.7957 32.1923C28.9634 31.7987 29.1568 31.4135 29.3713 31.0222C28.9988 31.1645 28.6502 31.3139 28.3113 31.4526C27.9705 31.5901 27.6476 31.7393 27.3361 31.9188C26.8747 32.1877 26.5013 32.5826 26.2017 33.0774C25.7264 33.8266 25.4238 34.6637 25.3319 35.6393C25.2752 36.2624 25.2094 36.8909 25.0254 37.4957C25.0488 36.8365 25.129 36.1862 25.129 35.4803C24.9794 35.513 24.9472 35.6227 24.9042 35.714C24.3532 36.8945 23.7517 38.0219 23.1173 39.1732C23.0684 39.2606 22.9977 39.3422 22.9799 39.4386C22.9468 39.6275 22.871 39.7342 22.704 39.8323C22.522 39.9403 22.5009 40.2452 22.2606 40.4203C22.3323 40.086 22.5739 39.909 22.6209 39.6296C22.5673 39.6029 22.5137 39.5762 22.4469 39.5437C23.1964 38.9662 23.4364 38.0338 23.8555 37.2533C23.8157 37.2272 23.7938 37.2042 23.7693 37.1938C23.7396 37.1828 23.7092 37.1857 23.6795 37.1832C23.6523 37.1596 23.6542 37.1352 23.6856 37.1047C24.1353 36.6716 24.3848 36.0756 24.6329 35.4816C25.0804 34.4067 25.5089 33.3563 26.0492 32.2485C25.5989 32.388 25.2421 32.4978 24.879 32.5609C24.1936 32.6683 23.7357 33.0532 23.4542 33.7847C23.292 34.2046 23.0244 34.5468 22.6799 34.8241C22.8495 34.54 23.0206 34.2625 23.1777 33.9758C23.3388 33.6918 23.4779 33.3762 23.6061 33.1075C23.4569 32.8928 23.3625 32.9844 23.2743 33.0061C22.5537 33.1843 21.8453 33.4047 21.116 33.5486C20.7997 33.6054 20.5426 33.8321 20.2981 34.0613C19.63 34.7009 19.109 35.5197 18.5363 36.3131C18.3924 36.5145 18.3797 36.7851 18.3576 37.0438C18.3423 37.2273 18.3779 37.4243 18.2959 37.5924C18.2732 37.3412 18.2517 37.0881 18.224 36.7881C17.9226 36.9998 17.7829 37.3293 17.5099 37.5455C17.4384 37.4074 17.5897 37.3417 17.56 37.2397C17.5251 37.137 17.4237 37.17 17.3672 37.1044C17.3869 37.0917 17.4039 37.0659 17.4243 37.0651C17.7071 37.029 17.9212 36.8765 18.0997 36.6352C18.7174 35.769 19.3227 34.9173 19.897 34.0652C19.9453 33.9917 20.0201 33.9298 20.0166 33.7966C19.4433 33.8808 18.8793 33.9854 18.3522 34.1855C18.0889 34.2828 17.8345 34.4145 17.5867 34.5619C17.337 34.708 17.0994 34.8876 16.8726 35.1114C16.6058 35.3744 16.2978 35.5875 15.9605 35.75C16.4365 35.303 16.9059 34.8572 17.3845 34.3976C16.6172 34.4824 16.1038 34.5577 15.5672 34.8284C15.0301 35.1129 14.4663 35.5421 13.5666 36.3739C13.5125 36.27 13.6354 36.2 13.5919 36.1059C13.4964 36.0346 13.3906 36.096 13.2889 36.069C13.5052 36.0689 13.6726 35.9312 13.8481 35.8331C14.2641 35.5942 14.5788 35.1977 14.9728 34.9187C14.1346 35.159 13.2286 35.0304 12.4423 35.6378C12.4955 35.1974 12.8531 35.2987 12.9875 35.0682C13.4162 35.1564 13.8188 34.9942 14.2273 34.9183C14.5897 34.8519 14.9433 34.7427 15.2921 34.6277C15.2546 34.4379 15.1344 34.5126 15.0746 34.4562C15.0547 34.426 15.0657 34.3963 15.1033 34.3954C15.4482 34.3859 15.7976 34.4476 16.1416 34.3919C16.3083 34.3591 16.4756 34.3297 16.6443 34.2982C16.6007 34.0788 16.4715 34.1021 16.3862 34.0631C15.9858 33.8711 15.5804 33.7128 15.1971 33.5035C14.9872 33.3855 14.7814 33.2958 14.5653 33.2306C14.3491 33.1654 14.1273 33.1391 13.892 33.1723C13.9423 33.1001 14.0043 33.0924 14.0683 33.0861C14.2895 33.1176 14.5153 33.1465 14.7382 33.145L14.8474 33.1997C15.4761 33.5076 16.1244 33.7857 16.8043 33.9508C17.1234 34.024 17.4356 34.0384 17.7506 33.9922C18.0636 33.9446 18.3817 33.8548 18.7214 33.7536C18.0805 33.4946 17.5192 33.3135 17.004 32.9066C17.3313 33.0278 17.6527 33.1537 17.98 33.2577C18.3059 33.3638 18.637 33.4533 18.9762 33.4828C19.6647 33.5396 20.3073 33.3501 20.9363 33.0946C20.6901 32.9755 20.4491 32.8484 20.2121 32.7154C19.9764 32.5804 19.7425 32.4295 19.5113 32.2833C19.0509 31.9835 18.6023 31.6744 18.157 31.3732C17.9052 31.202 17.6418 31.1826 17.3645 31.1455C17.4045 31.1063 17.4366 31.0705 17.4976 31.0081C17.2939 30.8287 17.0799 30.6994 16.8641 30.5775C16.6456 30.4509 16.4298 30.3376 16.2217 30.2037C16.1782 30.1011 16.1499 30.0056 16.1549 29.8723C16.4099 30.1253 16.6922 30.3194 16.9776 30.4785C17.2622 30.6343 17.5541 30.7748 17.8343 30.9505C17.8681 30.9727 17.9116 30.9671 17.9763 30.9812C17.7301 30.4551 17.3721 30.086 17.1046 29.6313C17.3795 29.7977 17.5675 30.1006 17.7666 30.3823C18.3964 31.2687 19.1254 31.8788 19.9314 32.2548C20.7332 32.6111 21.6067 32.7155 22.5297 32.6449C22.9472 32.6204 23.3271 32.4147 23.7649 32.2726C23.4054 31.9709 23.0538 31.6743 22.7102 31.383C22.3646 31.099 22.0158 30.8156 21.6534 30.5746C22.1202 30.7391 22.5346 31.0655 22.9547 31.3531C23.2516 31.5596 23.5538 31.7667 23.8599 31.9679C24.0673 32.1071 24.268 32.1308 24.4937 32.0515C24.8261 31.9312 25.1605 31.8209 25.4968 31.7118C25.8299 31.5948 26.1609 31.468 26.4925 31.3445C26.442 31.1746 26.3259 31.178 26.2385 31.1377C25.295 30.7025 24.3972 30.0982 23.5258 29.5055C23.0428 29.1795 22.5618 28.8719 22.0972 28.5352C21.9229 28.4064 21.7636 28.3672 21.5797 28.3915C21.2568 28.4411 20.9279 28.3872 20.5203 28.2929C20.8624 28.1534 21.1982 28.357 21.4589 28.1812C21.0788 27.7549 20.392 27.3319 19.9998 27.279C19.9778 26.9487 19.7371 26.9555 19.5931 26.8325C19.4299 26.691 19.2498 26.5926 19.0418 26.4501C19.2826 26.3523 19.4661 26.7746 19.6557 26.6203C20.54 27.3751 21.5434 27.8838 22.5604 28.5579C22.3547 27.8706 22.088 27.3366 21.7425 26.8534C21.646 26.7188 21.5226 26.612 21.4542 26.4476C21.8998 26.7917 22.1763 27.3235 22.4555 27.8514C22.5597 28.048 22.6534 28.2519 22.753 28.4511C22.8453 28.6398 22.9671 28.8053 23.1267 28.9045C23.5679 29.186 24.0111 29.4687 24.4536 29.7482C24.6781 29.8872 24.906 30.0256 25.1357 30.1481C25.3634 30.2693 25.5944 30.3812 25.8332 30.4813C26.3015 30.6781 26.7634 30.7938 27.2239 30.8119C27.6819 30.8254 28.1425 30.7611 28.5765 30.5425C29.1605 30.2603 29.7652 30.0288 30.3645 29.7709C30.2824 29.623 30.1703 29.6376 30.0752 29.6177C29.2659 29.433 28.4977 29.0818 27.7421 28.7418C27.6588 28.704 27.5754 28.6663 27.5167 28.5737C27.806 28.6186 28.0834 28.7725 28.3684 28.8802C28.8915 29.076 29.4176 29.2282 29.9471 29.2973C30.2119 29.3319 30.4805 29.3519 30.7409 29.3324C30.9994 29.3115 31.261 29.2643 31.5184 29.1888C31.7436 29.1233 31.9501 29.0256 32.1579 28.926C32.7038 28.6671 33.2543 28.4142 33.7805 28.0769C33.5314 28.0185 33.2836 27.9581 33.0325 27.8984C32.7841 27.8347 32.5303 27.7618 32.2831 27.6876C31.7867 27.5378 31.2981 27.3675 30.8184 27.149C31.0021 27.1986 31.1825 27.2488 31.3642 27.2971C31.7694 27.4126 32.1771 27.5154 32.5879 27.5919C32.9994 27.6717 33.4026 27.6948 33.8122 27.6908C34.3472 27.6781 34.8557 27.5712 35.3178 27.3056C35.6214 27.138 35.9178 26.96 36.2161 26.7832L37.1118 26.2562C37.2203 26.1908 37.35 26.1537 37.4596 25.9782C36.5947 25.7655 35.7773 25.5498 34.9393 25.3178C34.5817 25.7061 34.1296 25.9782 33.6154 26.1412C33.9216 25.8443 34.354 25.7016 34.5634 25.2273C34.2878 25.0575 34.0185 25.0257 33.7645 24.927C33.3842 24.7824 32.9957 24.5897 32.6321 24.5584C32.2809 24.5297 32.0323 24.8473 31.7198 24.9806C31.5126 25.075 31.3075 25.1793 31.0849 25.2407C31.4295 24.9634 31.8732 24.8338 32.1727 24.4216C31.729 24.1698 31.3094 24.0505 30.8767 23.8686C30.342 24.2145 29.7579 24.471 29.0959 24.5255C29.2499 24.4644 29.3979 24.3909 29.5585 24.3456C29.7403 24.2943 29.9173 24.2371 30.0737 24.1378C30.23 24.0385 30.3751 23.926 30.5202 23.8222C30.4591 23.651 30.3482 23.6379 30.2568 23.595C29.9934 23.4674 29.7249 23.3649 29.4706 23.2149C29.0548 22.9728 28.6775 22.8757 28.2927 23.1579C28.3772 22.9515 28.5683 23.0202 28.6185 22.8398C28.2493 22.5658 27.8584 22.4113 27.4652 22.1956C27.1665 22.4205 26.8271 22.5817 26.4516 22.6593C26.6979 22.4882 27.0176 22.4478 27.1818 22.1374C27.1524 21.9872 27.0388 21.9694 26.9573 21.9159C26.7997 21.818 26.6356 21.7471 26.4852 21.634C25.7387 21.0722 25.0639 21.0898 24.3878 21.2004C23.7603 21.2718 23.2216 21.5155 22.6938 22.011C22.7954 21.7135 23.0056 21.6752 23.0658 21.3931C22.7661 21.4723 22.4615 21.494 22.1642 21.5349C21.8683 21.5738 21.577 21.61 21.3154 21.7568C21.2399 21.508 21.1215 21.6664 21.0117 21.617C21.2445 21.3146 21.6066 21.4957 21.9004 21.4383C22.2251 21.3643 22.562 21.3324 22.8955 21.2841C22.85 21.0891 22.7133 21.1672 22.658 20.9742C23.5181 21.3545 24.23 20.9772 25.0206 20.8137C24.6689 20.5 24.3399 20.3207 24.0251 20.1024C23.3862 19.6455 22.7507 19.205 22.1361 18.7413C21.9405 18.5929 21.7577 18.5723 21.5676 18.5584C21.5936 18.51 21.6151 18.4644 21.6555 18.3856C21.1695 18.0121 20.71 17.6589 20.2464 17.2687C20.0991 17.1463 19.9681 17.1769 19.8342 17.1942C19.8078 17.0915 19.907 17.1225 19.8803 16.9769C19.4969 16.6509 19.1326 16.1268 18.6919 16.1132C18.6997 16.1013 18.7193 16.0715 18.7572 16.0139C18.6021 15.7952 18.4082 15.7048 18.2181 15.483C18.6566 15.6688 19.013 16.0966 19.3963 16.4055C19.6059 16.5717 19.804 16.8072 20.0359 16.8657C20.1522 16.8966 20.1997 17.0929 20.3065 17.1773C20.7534 17.528 21.1962 17.8589 21.6543 18.1969C21.6741 18.21 21.6978 18.2 21.7216 18.1985C21.807 18.0469 21.6434 17.854 21.6602 17.6856C21.9581 18.4536 21.9522 18.4668 22.5604 18.858C22.8591 19.0486 23.1512 19.3231 23.489 19.4285C23.3395 18.5646 22.9624 17.7873 22.6649 16.9884C22.9506 17.697 23.2869 18.3848 23.4955 19.1197C23.586 19.441 23.7346 19.661 23.9895 19.8058C24.8245 20.2806 25.6761 20.7777 26.5559 21.2535C26.6466 21.3018 26.7398 21.3374 26.8669 21.3953C26.8271 21.1614 26.7112 20.9913 26.6184 20.825C25.9255 19.584 25.1985 18.3605 24.3943 17.237C23.9522 16.6191 23.6263 15.9068 23.1666 15.3201C23.0169 15.1278 22.8842 14.9096 22.7216 14.7543C22.7151 14.6732 22.7107 14.6106 22.7064 14.5565C22.7174 14.5268 22.7288 14.5485 22.7574 14.5786C22.9101 14.736 23.0268 14.9265 23.1476 15.1368C23.3044 15.4049 23.4495 15.7167 23.6993 15.878C23.747 15.9093 23.7807 16.0226 23.8214 16.0949C24.1878 16.737 24.6066 17.3253 25.0234 17.9209C25.0823 17.8401 24.9913 17.7404 25.0342 17.6491C25.303 18.6085 25.9474 19.291 26.3987 20.1113C26.6377 20.5531 26.9115 20.9636 27.1742 21.3867C27.2282 21.4734 27.2811 21.5879 27.348 21.629C27.6931 21.8444 28.0415 22.0592 28.4466 22.1661C28.2488 21.5835 27.9501 21.094 27.7299 20.5196C28.061 21.1157 28.3116 21.6959 28.5958 22.2898C29.1781 22.5643 29.7674 22.889 30.4509 23.1135C30.2059 22.3604 29.7851 21.7622 29.4657 21.0399C29.9929 21.7707 30.3672 22.5091 30.7588 23.2816C31.4955 23.5638 32.2533 23.8399 33.0864 24.1313C32.8595 23.3332 32.4124 22.7405 31.978 22.0935C32.2586 22.3206 32.5783 22.6958 32.8039 23.0888C33.0207 23.4648 33.2251 23.8467 33.4467 24.2543C34.1701 24.5048 34.8878 24.7033 35.6375 24.8488C35.5706 24.5089 35.2684 24.3928 35.1654 24.086C35.4415 24.2333 35.6343 24.4682 35.8264 24.6827C36.0497 24.9319 36.2853 25.0583 36.5712 25.0954C36.8538 25.1331 37.1385 25.1893 37.4509 25.2381C37.3772 24.9734 37.2401 24.7922 37.111 24.6162C36.5992 23.9183 36.0617 23.2378 35.5735 22.5212C35.2338 22.0247 34.824 21.8038 34.3588 21.6887C34.1038 21.6264 33.8488 21.5812 33.593 21.4985C33.9641 21.4492 34.355 21.5126 34.7831 21.5976C34.7437 21.4237 34.6347 21.3122 34.547 21.2033C34.0142 20.5458 33.4704 19.9009 32.9574 19.2307C32.7272 18.9314 32.4755 18.7688 32.1932 18.6829C31.8819 18.5892 31.5733 18.5088 31.2652 18.3973C31.5728 18.332 31.9154 18.4604 32.2369 18.5038C32.2809 18.3762 32.1934 18.3016 32.1322 18.2301C31.6489 17.6534 31.1616 17.0826 30.6913 16.4946C30.3787 16.1041 30.0541 15.7969 29.6258 15.7687C29.7111 15.5999 29.8718 15.7539 29.9505 15.6775C29.5963 15.0861 29.1942 14.7279 28.7723 14.4734C28.3524 14.2201 27.898 14.041 27.4615 13.8565C27.6411 13.7953 27.8538 13.9265 28.0521 13.9886C28.2689 14.0571 28.4886 14.1559 28.716 14.2343C28.7052 14.0905 28.6006 14.0332 28.5367 13.957C28.2994 13.673 28.0607 13.3909 27.8233 13.1068C27.4742 12.6809 27.1239 12.2742 26.6878 12.1669C26.7816 12.0891 26.9079 12.2347 27.0323 12.1884C26.6362 11.6434 26.2293 11.154 25.7604 10.6636C25.7598 10.4696 25.5023 10.3374 25.4465 10.0845C25.8075 10.6006 26.2094 11.0413 26.6122 11.4938C27.0036 11.9333 27.3462 12.4687 27.7695 12.8465C27.82 12.8 27.772 12.7258 27.7743 12.6704C27.7903 12.6894 27.8121 12.7038 27.8195 12.7229C27.9545 13.0934 28.182 13.3795 28.4332 13.6556C28.7348 13.9848 29.03 14.3325 29.4028 14.7483C29.2186 14.1149 28.9545 13.577 28.9048 13.0377C29.2572 14.1773 29.6544 15.2922 30.6267 16.0992C30.6695 16.0732 30.6458 15.9922 30.6255 15.9106C30.6092 15.8315 30.5895 15.7531 30.5739 15.6774C30.6318 15.6671 30.6579 15.7184 30.6687 15.7539C30.8022 16.2999 31.0954 16.746 31.4846 17.1498C31.7868 17.4651 32.0492 17.8368 32.387 18.1499C32.4138 17.9142 32.3305 17.6858 32.3007 17.467C32.235 16.9997 32.1607 16.5325 32.0838 16.0693C32.0002 15.5988 31.9187 15.1296 31.8338 14.6612C31.7673 14.2816 31.6206 13.9376 31.3967 13.594C31.0996 13.1454 30.8149 12.6907 30.5631 12.2121L31.6381 13.8893C31.6083 13.3631 31.5271 12.9453 31.3332 12.4565C31.5541 12.6358 31.6093 12.8115 31.6336 13.004C31.7114 13.5959 31.8103 14.1989 32.0202 14.8235C32.0713 14.971 32.004 15.069 32.0367 15.2186C32.1319 15.654 32.2205 16.0994 32.2999 16.5329C32.3799 16.9698 32.46 17.4066 32.5532 17.8493C32.6533 18.3164 32.8321 18.7328 33.1836 19.1118C33.5543 19.5091 33.8982 19.9429 34.3136 20.4238C34.3489 19.5646 34.1567 18.7182 33.9737 17.875C34.1143 17.9816 34.1046 18.1176 34.133 18.2302C34.3225 18.9553 34.4659 19.6984 34.5471 20.415C34.5674 20.5963 34.5982 20.7616 34.7318 20.9263C35.1887 21.4913 35.6456 22.0563 36.0992 22.622C36.1424 22.6732 36.2001 22.7197 36.2792 22.7033C36.251 22.3262 36.0784 21.9651 35.9509 21.5312C36.2412 21.9383 36.3474 22.344 36.4529 22.7378C36.5489 23.0941 36.7047 23.407 36.9328 23.6965C37.2236 24.0726 37.5163 24.45 37.8144 24.8366C37.9296 24.7131 37.8688 24.5935 37.8556 24.488C37.7562 23.7082 37.639 22.9339 37.5284 22.1667C37.498 21.9532 37.4198 21.7993 37.2559 21.6461C36.7062 21.1226 36.2046 20.383 35.8267 19.5853C36.2896 20.2624 36.6758 21.0172 37.3847 21.4717C37.455 21.3301 37.4145 21.1839 37.401 21.0441C37.3302 20.4027 37.2607 19.7593 37.1912 19.1245C37.1601 18.8081 37.0596 18.5712 36.8041 18.3407C36.258 17.8508 35.8273 17.2461 35.4569 16.5928C35.911 17.2442 36.3501 17.9142 37.0917 18.3276C37.0345 17.8517 36.9789 17.4167 36.9173 16.9863C36.8973 16.8479 36.7957 16.747 36.7158 16.6347C36.6419 16.5263 36.5076 16.4751 36.4704 16.3282C36.6208 16.3246 36.6785 16.5703 36.8545 16.5579C36.825 16.0746 36.9102 15.5984 36.4451 15.0849C36.5719 15.1995 36.7067 15.2369 36.8444 15.3132C36.8799 15.7008 37.0065 16.0885 37.0136 16.4718C37.0221 16.8616 37.1251 17.2851 37.1991 17.7009C37.2272 17.8616 37.1882 18.0552 37.4206 18.1823C37.3742 18.556 37.4011 18.9437 37.4526 19.3504C37.5081 19.7597 37.5854 20.1834 37.6378 20.6276C37.8088 20.3587 37.9449 20.0867 38.0951 19.8495C38.2446 19.6091 38.4015 19.3963 38.591 19.2163C38.1071 20.0652 37.8708 20.5588 37.8025 21.1002C37.7394 21.6508 37.8669 22.2839 38.0824 23.4587C38.3767 22.9719 38.5429 22.4464 38.9804 22.1704C38.3173 23.0667 38.0908 24.1302 38.5297 25.4804C38.5528 25.4756 38.5725 25.4715 38.5936 25.4654C38.604 25.5492 38.6316 25.6328 38.677 25.711C38.7524 25.8431 38.8769 25.9221 39.0071 25.9535L39.0283 25.9732L39.027 25.9752C39.0559 26.1478 39.1914 26.1885 39.3013 26.2465C40.2744 26.7751 41.2698 26.8544 42.2449 26.5703C42.4852 26.4948 42.78 26.4923 42.8237 26.2136C43.2662 26.2852 43.44 25.9299 43.7612 25.8136C43.3138 26.1998 42.8262 26.4913 42.3077 26.6913C41.7825 26.884 41.2138 26.9656 40.6207 26.9714C41.1076 27.2744 41.5945 27.5858 42.1064 27.7857C42.617 27.9875 43.1519 28.083 43.7163 27.9302C44.0634 27.8395 44.4259 27.7903 44.7607 27.6404C44.9928 27.534 45.2908 27.596 45.5327 27.4704C45.5498 27.5613 45.5647 27.6252 45.5763 27.6898C45.0934 27.6797 44.6677 27.8554 44.2299 27.9803C43.8842 28.0775 43.5411 28.1708 43.0833 28.2826C44.2051 28.7325 45.1762 29.3423 46.3188 29.4615C46.3587 29.4962 46.3359 29.5438 46.3292 29.6362C46.7959 29.7836 47.2448 30.0359 47.7841 30.0773C47.9284 30.36 48.2322 30.4088 48.489 30.5377C48.4646 30.6441 48.3926 30.7363 48.4423 30.8685C47.9867 30.5008 47.506 30.2189 46.9925 30.0778C46.8687 30.1189 46.9273 30.2029 46.902 30.2631C46.5183 29.8032 45.979 29.7533 45.4103 29.536C45.6376 30.0042 45.8045 30.3956 46.0325 30.7589C45.7675 30.4909 45.5649 30.1755 45.3735 29.8562C45.1967 29.5578 44.9665 29.3667 44.6439 29.2514C44.2802 29.1205 43.9237 28.983 43.5672 28.8369C43.2106 28.6822 42.8527 28.5295 42.4961 28.3749C42.3903 28.3281 42.2869 28.2601 42.1268 28.2915C42.1578 28.6904 42.4548 29.0137 42.5652 29.4563C42.3195 29.107 42.1012 28.8155 41.9816 28.4693C41.8693 28.1507 41.659 27.9727 41.3639 27.8328C40.7908 27.5614 40.2373 27.2431 39.6858 26.9433C39.5428 26.8663 39.412 26.7405 39.1997 26.7604C39.3908 27.1365 39.5595 27.5035 39.7603 27.8518C39.9652 28.2113 40.399 28.2744 40.6421 28.6192C40.4563 28.6593 40.3285 28.3904 40.1108 28.492C40.1955 28.8352 40.4172 29.1346 40.5585 29.4608C40.9731 30.4107 40.9796 30.4093 41.8657 30.932C42.226 31.146 42.583 31.3693 42.9062 31.6614C42.338 31.4302 41.8387 31.0423 41.1928 30.8255C41.5394 31.6795 41.8565 32.4572 42.1756 33.2362C42.3097 33.5605 42.5449 33.8176 42.8313 34.0314C43.5281 34.5606 44.2814 34.9561 45.0446 35.3581C45.3915 35.5405 45.7111 35.799 46.126 35.7871C46.2069 36.1533 46.6051 36.1105 46.7806 36.3284C46.7808 36.4451 46.5858 36.3996 46.602 36.5525C46.4284 36.2278 46.12 36.082 45.8162 35.925C44.7565 35.3765 43.6885 34.8795 42.6769 34.2317C42.6551 34.2173 42.6182 34.2301 42.5615 34.2298C42.5505 34.4759 42.6826 34.6908 42.7526 34.9133C42.9217 35.4571 43.1284 35.9914 43.2798 36.5406C43.3798 36.8994 43.5609 37.1608 43.8906 37.3348C44.1163 37.4547 44.327 37.6017 44.5339 37.7633C44.189 37.6818 43.9097 37.4442 43.5332 37.3589C43.6455 37.7942 43.7517 38.1913 43.8585 38.5917C43.9241 38.834 44.0954 39.0064 44.2661 39.1841C44.587 39.523 45.0054 39.7525 45.3243 40.0987C44.8626 39.9091 44.4787 39.6141 44.0986 39.296C44.0118 39.441 44.0826 39.5672 44.1125 39.695C44.219 40.1521 44.3309 40.6099 44.4216 41.0737C44.5254 41.6087 44.6535 42.1283 45.1638 42.4951C44.947 42.5262 44.9121 42.3325 44.7436 42.3982L44.7423 42.4002Z" fill="#CB6528"/>
</g>
</svg>
