<svg width="336" height="247" viewBox="0 0 336 247" fill="none" xmlns="http://www.w3.org/2000/svg">
<path d="M285.939 142.534C287.395 138.687 289.268 134.424 292.176 131.512C293.321 130.679 294.672 130.056 296.439 129.955L296.649 130.266C296.026 133.49 294.36 135.257 291.97 136.92C289.996 138.687 288.123 140.661 286.251 142.74L285.939 142.534Z" fill="#F2BE65"/>
<mask id="mask0_2025_1941" style="mask-type:luminance" maskUnits="userSpaceOnUse" x="290" y="156" width="28" height="8">
<path d="M290.304 156.8H317.509V163.968H290.304V156.8Z" fill="white"/>
</mask>
<g mask="url(#mask0_2025_1941)">
<path d="M290.514 157.609C295.193 157.714 299.768 158.13 304.342 158.547C309.123 158.648 313.596 159.376 317.649 162.183L317.548 162.6C312.763 163.951 308.294 163.121 303.719 161.665C299.246 160.521 294.777 159.376 290.307 158.025L290.514 157.609Z" fill="#F2BE65"/>
</g>
<path d="M279.286 173.31C281.159 175.077 284.589 177.989 285.733 179.963C286.045 181.003 286.251 182.042 285.94 183.498L285.628 183.708C282.926 183.187 281.782 181.731 281.159 179.34C280.326 177.468 279.598 175.494 278.975 173.516L279.286 173.31Z" fill="#F2BE65"/>
<path d="M74.2525 147.109C93.072 162.705 115.843 178.612 121.87 203.774L121.457 203.879C114.905 193.274 107.94 183.498 100.142 173.831C92.134 164.472 82.985 155.946 74.046 147.42C73.941 147.42 74.2525 147.109 74.2525 147.109Z" fill="#F2BE65"/>
<path d="M120.936 120.802C124.054 130.161 127.278 139.415 129.773 148.981C132.58 158.546 133.931 168.423 132.685 178.405H132.269C127.799 164.265 127.383 149.604 123.638 135.257L120.519 120.802H120.936Z" fill="#F2BE65"/>
<path d="M140.794 85.246C142.978 97.5135 144.851 109.886 146.202 122.258C147.969 134.631 148.799 147.213 147.136 159.691H146.72C144.123 147.42 143.395 135.047 143.083 122.468C142.355 109.991 141.522 97.6185 140.378 85.246C140.483 85.351 140.794 85.246 140.794 85.246Z" fill="#F2BE65"/>
<path d="M235.616 68.712C231.353 80.36 225.428 91.2765 221.165 102.816L207.13 137.025C198.292 160.209 187.789 182.564 175 203.879L174.688 203.669C183.526 180.586 194.131 158.337 204.218 135.881C213.055 116.228 225.844 86.8035 235.616 68.712Z" fill="#F2BE65"/>
<path d="M202.762 101.259C197.876 115.5 191.951 129.434 185.92 143.157C180.201 157.091 173.961 170.709 166.579 183.915L166.163 183.81C169.491 169.047 176.04 155.323 183.008 141.911C189.662 128.394 196.42 114.982 202.346 101.154L202.762 101.259Z" fill="#F2BE65"/>
<path d="M259.844 156.051C252.669 164.161 238.217 180.275 230.937 188.283C221.477 199.199 211.6 209.699 200.06 218.537L199.745 218.225C211.705 200.967 229.275 185.787 243.936 170.814L259.427 155.74L259.844 156.051Z" fill="#F2BE65"/>
<path d="M260.362 177.467C260.362 180.484 260.778 184.642 260.155 187.449C259.634 188.489 259.011 189.423 257.765 190.256L257.348 190.151C255.787 187.761 256.099 185.682 257.243 183.498C258.076 181.419 258.906 179.34 259.945 177.366L260.362 177.467Z" fill="#F2BE65"/>
<path d="M242.27 154.178C238.112 153.244 233.849 152.722 230.003 151.476C228.757 150.748 227.612 150.02 226.573 148.564L226.674 148.148C229.796 146.902 232.498 147.731 235.099 149.499C237.594 150.85 240.09 152.204 242.48 153.867L242.27 154.178Z" fill="#F2BE65"/>
<path d="M250.278 135.982C247.572 132.969 244.559 130.057 242.48 126.627C241.958 125.377 241.647 124.026 241.958 122.259L242.27 122.052C245.392 123.197 246.743 125.276 247.572 128.184C248.612 130.68 249.655 133.074 250.589 135.776L250.278 135.982Z" fill="#F2BE65"/>
<path d="M266.704 128.082C268.058 124.754 269.098 120.907 270.967 118.1C271.8 117.267 272.839 116.438 274.4 116.021L274.712 116.228C275.23 119.14 273.984 121.219 272.006 123.091C270.344 124.964 268.783 126.731 267.015 128.394L266.704 128.082Z" fill="#F2BE65"/>
<path d="M239.151 92.316C240.814 95.018 243.726 98.035 244.765 100.009C245.077 101.049 245.287 102.088 244.975 103.544L244.664 103.754C241.857 103.233 240.607 101.465 240.089 98.9695C239.361 96.8905 238.945 94.7065 238.735 92.421L239.151 92.316Z" fill="#F2BE65"/>
<path d="M257.449 77.343C263.168 79.2155 268.992 80.878 274.4 83.3735C276.062 84.518 277.725 85.6625 278.974 87.5315L278.764 87.843C274.295 88.053 270.865 86.3905 267.431 83.9965C264.001 81.9175 260.571 79.9435 257.243 77.6545L257.449 77.343Z" fill="#F2BE65"/>
<path d="M275.023 58.317C277.413 57.694 281.676 56.3395 283.755 56.5495C284.693 56.861 285.733 57.2775 286.667 58.317V58.7335C284.9 60.7075 283.027 60.9175 280.843 60.0845C278.869 59.668 276.997 59.3565 275.023 58.7335V58.317Z" fill="#F2BE65"/>
<path d="M259.322 42.616C261.3 40.019 263.69 36.6905 266.291 34.923C267.432 34.5065 268.576 34.195 270.137 34.5065L270.344 34.818C269.721 37.625 268.058 38.9795 265.664 39.809C263.69 40.8485 261.713 41.993 259.532 42.9275L259.322 42.616Z" fill="#F2BE65"/>
<mask id="mask1_2025_1941" style="mask-type:luminance" maskUnits="userSpaceOnUse" x="234" y="10" width="7" height="22">
<path d="M234.752 10.3845H240.128V31.36H234.752V10.3845Z" fill="white"/>
</mask>
<g mask="url(#mask1_2025_1941)">
<path d="M237.279 30.9715C236.761 25.774 235.616 20.678 235.41 15.5855C235.616 13.818 235.928 12.152 236.866 10.3845H237.279C239.673 13.608 239.774 17.038 239.151 20.678C238.84 24.213 238.423 27.6465 237.695 31.0765L237.279 30.9715Z" fill="#F2BE65"/>
</g>
<path d="M218.774 39.6025C216.174 36.897 213.16 34.923 210.665 32.5325C210.038 31.493 209.415 30.4535 209.209 28.7875L209.415 28.476C212.534 28.371 214.406 30.1385 215.656 32.634C217.007 34.7165 218.151 37.002 218.981 39.3925L218.774 39.6025Z" fill="#F2BE65"/>
<path d="M208.271 54.3656C205.051 53.2211 201.099 52.2866 198.292 50.6241C197.459 49.7911 196.626 48.8566 196.108 47.2956L196.315 46.9841C199.227 46.2561 201.201 47.4006 203.073 49.3746C204.946 50.9356 206.713 52.3916 208.481 54.1591L208.271 54.3656Z" fill="#F2BE65"/>
<path d="M208.897 78.2775C206.608 79.0055 204.529 79.7335 202.555 80.6715C200.473 82.1275 198.705 82.7505 195.898 82.0225L195.692 81.711C196.525 78.799 198.915 77.6545 201.617 77.6545C204.008 77.343 206.503 77.343 208.792 77.8645L208.897 78.2775Z" fill="#F2BE65"/>
<path d="M156.496 54.9885C161.487 54.159 166.579 53.1195 171.465 53.326C173.131 53.6375 174.794 54.159 176.355 55.405V55.8215C173.026 57.694 169.803 57.484 166.373 56.756C163.044 56.3395 159.821 55.9265 156.496 55.405V54.9885Z" fill="#F2BE65"/>
<path d="M155.869 77.448C159.404 77.8645 163.356 78.2775 166.474 80.045C167.412 80.878 168.242 81.8125 168.658 83.3735L168.452 83.685C165.54 84.308 163.667 83.3735 161.693 81.606C159.821 80.36 157.742 79.1105 155.768 77.8645L155.869 77.448Z" fill="#F2BE65"/>
<path d="M146.408 38.7696L152.439 30.1386C153.478 28.6861 154.101 27.0201 155.456 25.8791C156.702 24.7346 158.158 23.5901 160.03 22.8621L160.342 23.0686C160.132 25.1511 159.404 26.8136 158.469 28.3711C155.141 32.4276 150.776 35.7561 146.618 38.9761C146.618 39.0811 146.408 38.7696 146.408 38.7696Z" fill="#F2BE65"/>
<path d="M129.567 33.362C128.94 30.3485 128.317 27.5415 127.488 24.7345C126.238 21.8225 125.615 19.222 126.655 15.897L127.071 15.792C129.983 17.871 130.813 20.9895 130.606 24.318C130.711 27.4365 130.501 30.4535 129.878 33.467L129.567 33.362Z" fill="#F2BE65"/>
<path d="M110.954 39.4975C107.94 34.4015 102.533 31.388 98.4796 27.4365C97.2301 25.879 96.0856 24.318 95.2561 22.134L95.5676 21.8225C97.7516 22.3405 99.5191 23.2785 101.182 24.423C104.3 26.9185 106.484 30.555 108.77 33.7785C109.813 35.441 110.954 37.3135 111.37 39.291L110.954 39.4975Z" fill="#F2BE65"/>
<path d="M105.55 55.9265C101.7 55.1985 97.9581 54.3655 94.1116 53.7425C90.0551 53.431 86.4186 52.703 83.0901 49.9975L83.1951 49.5845C87.2481 48.0235 91.1996 48.958 94.9446 50.624C98.6861 51.975 102.326 53.5325 105.756 55.51L105.55 55.9265Z" fill="#F2BE65"/>
<path d="M102.116 71.729C96.0856 74.3295 90.2651 76.9265 84.5461 79.7335C82.5686 80.36 80.4896 80.983 77.9941 80.878L77.7876 80.5665C80.5946 76.825 84.7526 74.7425 89.2256 73.913C93.4886 72.7685 97.7516 71.9355 102.116 71.3125V71.729Z" fill="#F2BE65"/>
<path d="M112.826 87.948C110.747 90.965 108.77 93.8735 107.002 96.9955C105.445 100.425 103.677 103.232 100.247 105.311L99.932 105.105C99.7255 100.943 101.7 97.825 104.51 95.123C107.002 92.421 109.603 89.8205 112.515 87.6365L112.826 87.948Z" fill="#F2BE65"/>
<path d="M80.906 131.824C81.9455 128.811 85.274 127.46 87.7695 125.899C89.1205 125.171 90.3665 124.236 91.8225 124.026C93.2785 123.82 94.9445 123.82 96.607 124.548L96.712 124.964C95.5675 126.315 94.318 127.145 93.072 127.771C89.327 129.329 84.3395 128.811 81.3225 131.929C81.3225 132.034 80.906 131.824 80.906 131.824Z" fill="#F2BE65"/>
<path d="M65.6216 113.631L66.2481 103.649C66.3496 101.986 66.1431 100.32 66.6611 98.763C67.1826 97.202 67.8056 95.641 69.0551 94.0835H69.4716C70.4061 95.851 70.6126 97.6185 70.6126 99.281C69.8846 104.167 67.9106 109.056 66.0381 113.631C66.0381 113.732 65.6216 113.631 65.6216 113.631Z" fill="#F2BE65"/>
<path d="M43.8936 112.382C41.8146 110.824 39.8371 109.368 37.7581 108.119C35.2626 106.974 33.4951 105.728 32.4556 102.816L32.6621 102.505C35.7841 101.882 38.0696 103.439 39.8371 105.728C41.6046 107.702 43.1656 109.886 44.3101 112.175L43.8936 112.382Z" fill="#F2BE65"/>
<path d="M30.0649 129.538C25.5919 129.955 21.1224 130.784 16.6529 130.578C15.1969 130.266 13.7409 129.745 12.2849 128.499V128.082C15.1969 126.21 18.1089 126.315 21.2274 127.249C24.1394 127.771 27.0479 128.394 29.9599 129.122L30.0649 129.538Z" fill="#F2BE65"/>
<mask id="mask2_2025_1941" style="mask-type:luminance" maskUnits="userSpaceOnUse" x="8" y="146" width="19" height="11">
<path d="M8.3894 146.944H26.8799V156.8H8.3894V146.944Z" fill="white"/>
</mask>
<g mask="url(#mask2_2025_1941)">
<path d="M26.2185 147.731C23.0965 148.981 20.188 150.437 17.5875 152.204C14.8855 154.385 12.5965 156.051 8.85496 156.569L8.54346 156.257C9.47796 152.411 12.5965 150.332 16.1315 149.397C19.355 148.148 22.785 147.42 26.2185 147.315V147.731Z" fill="#F2BE65"/>
</g>
<path d="M43.1654 164.994C41.6044 169.152 40.6699 173.415 38.9024 177.366C38.0694 178.507 37.1349 179.652 35.5739 180.586L35.1574 180.485C34.3279 177.051 35.4724 174.454 37.4464 171.959C39.1089 169.463 40.7749 167.073 42.7489 164.889L43.1654 164.994Z" fill="#F2BE65"/>
<path d="M61.6736 167.384C63.7526 171.021 66.2481 174.559 67.7006 178.301C67.9106 179.652 68.0156 181.108 67.4941 182.77L67.0776 182.875C64.1656 181.108 63.2311 178.612 62.8146 175.599C62.1916 172.893 61.5686 170.191 61.1521 167.384H61.6736Z" fill="#F2BE65"/>
<path d="M86.4184 177.261C89.8484 179.546 93.5899 181.94 96.1904 185.059C96.9184 186.305 97.4364 187.656 97.3349 189.427L97.0234 189.633C93.7999 188.905 92.1339 186.931 90.7829 184.331L86.1069 177.572L86.4184 177.261Z" fill="#F2BE65"/>
<path d="M125.927 68.922C127.173 65.387 128.422 59.9795 129.357 56.4445C129.668 56.4445 129.668 56.6545 129.878 56.756C132.58 59.3565 135.286 61.957 137.988 64.554C133.413 63.4095 127.173 63.826 122.287 63.6195C122.808 63.098 124.782 62.1635 125.51 61.957C129.668 60.396 133.931 58.835 137.883 56.6545C133.83 60.8125 129.878 64.8655 125.927 68.922Z" fill="#F2BE65"/>
<path d="M125.821 68.922C127.071 64.659 127.9 60.1895 128.838 55.8215C129.255 55.7165 129.983 55.7165 130.294 56.133C132.685 58.317 136.426 61.642 138.922 63.826L142.145 66.738L137.781 65.8035C131.957 64.659 124.264 65.5935 118.335 65.5935L121.145 62.685C122.598 61.3305 123.952 60.9175 125.615 60.0845C132.478 57.3825 142.355 52.598 149.009 49.168C142.04 55.51 133.931 63.6195 126.238 69.1285C126.133 69.1285 125.821 68.817 125.821 68.922C129.15 64.1375 132.79 59.668 136.636 55.405L138.922 58.422C134.246 61.5405 128.527 62.7865 123.742 64.8655L122.496 62.0585C127.589 62.475 132.996 62.0585 138.404 63.5145L137.259 65.492C135.285 63.5145 131.852 59.9795 130.084 58.0055C129.878 57.7955 129.461 57.3825 129.356 57.1725C129.356 57.1725 129.566 57.2775 129.461 57.1725L130.189 56.6545C128.94 60.8125 127.799 64.9705 126.238 69.027L125.821 68.922Z" fill="#F2BE65"/>
<path d="M54.7051 142.223C54.4986 139.416 53.7706 135.258 53.2491 132.552C53.4591 132.552 53.5606 132.552 53.6656 132.657C56.2661 134.008 58.8631 135.359 61.4636 136.609C58.0336 136.71 53.9771 138.271 50.6521 139.104C50.8586 138.583 51.8981 137.543 52.3146 137.232C54.6036 135.258 57.0956 133.28 58.9681 130.89C57.5121 134.736 56.0561 138.478 54.7051 142.223Z" fill="#F2BE65"/>
<path d="M54.4985 142.223L52.521 132.657L52.4195 132.034C53.1475 131.723 53.5605 131.513 54.187 131.929C57.8235 133.592 62.608 135.776 66.248 137.438L61.5685 137.855C57.2005 138.271 52.3145 140.662 47.845 141.911C48.1565 141.078 49.196 137.855 49.714 137.337C50.652 136.087 52.4195 134.53 53.5605 133.49C56.4725 130.995 62.713 124.338 65.415 121.531L60.7355 131.513C59.073 135.153 57.2005 138.688 54.81 142.118L54.4985 142.223C55.0165 138.065 56.056 134.113 57.3055 130.267L60.529 132.136C58.45 135.153 55.643 137.127 52.9375 139.311L52.521 139.727C52.4195 139.832 52.3145 140.039 52.4195 139.727L50.3405 137.543C53.8755 136.815 57.512 135.464 61.5685 135.464L61.047 137.75L56.994 135.464C55.9545 134.841 54.2885 133.903 53.249 133.28C53.249 133.28 53.459 133.28 53.5605 133.28L54.082 132.447L54.915 142.223H54.4985Z" fill="#F2BE65"/>
<path d="M257.971 150.02C262.027 148.253 268.264 145.029 272.317 142.845C272.422 143.055 272.216 143.262 272.111 143.573C270.137 148.043 268.159 152.516 266.185 156.88C266.08 151.994 263.795 146.902 262.44 142.534C263.168 142.534 264.729 143.573 265.247 143.99C268.159 146.38 271.071 148.771 274.606 150.332C269.097 150.125 263.585 150.02 257.971 150.02Z" fill="#F2BE65"/>
<path d="M257.866 149.81L271.904 142.117L272.734 141.599L273.045 142.639C273.255 143.367 272.944 143.678 272.734 144.095C272.527 144.613 271.904 146.174 271.694 146.797C270.76 149.082 268.264 155.113 267.33 157.507L265.041 163.016L264.729 156.985C264.418 151.683 261.506 146.174 259.738 140.766H262.339C264.418 140.871 265.352 141.701 266.808 142.74C269.409 144.718 272.422 147.213 275.334 148.669L283.549 152.932C275.334 152.306 266.185 151.788 258.076 150.125C257.971 150.227 257.971 149.81 257.866 149.81C263.48 148.981 268.992 148.669 274.606 148.564L273.773 152.099C269.097 150.332 266.29 147.213 262.545 144.613C262.44 144.508 262.234 144.508 262.545 144.508L264.208 142.117C265.352 146.692 267.431 151.578 267.536 156.985L264.936 156.467C266.808 152.617 269.615 146.797 271.488 143.052C271.593 142.95 271.488 143.052 271.488 143.157L272.734 143.678L258.076 150.227L257.866 149.81Z" fill="#F2BE65"/>
<path d="M234.371 62.0585C238.217 59.8745 244.038 55.9266 247.783 53.326C247.884 53.5326 247.783 53.7426 247.678 54.054C246.222 58.7335 244.766 63.3081 243.31 67.9875C242.687 63.0981 239.775 58.3171 238.007 54.159C238.735 54.0541 240.401 54.887 240.919 55.3C244.143 57.2775 247.261 59.4615 250.901 60.6026C245.392 60.9175 239.88 61.4355 234.371 62.0585Z" fill="#F2BE65"/>
<path d="M234.266 61.852L247.261 52.598L248.094 51.975L248.511 52.9095C248.822 53.6375 248.511 53.949 248.406 54.4705C248.301 55.0935 247.783 56.6545 247.678 57.2775C247.055 59.668 245.182 65.905 244.559 68.4005L242.998 74.1195L241.959 68.194C241.024 62.9965 237.489 57.7955 235.099 52.598L237.696 52.2865C239.775 52.1815 240.814 52.9095 242.375 53.7425C245.182 55.405 248.511 57.589 251.524 58.7335L260.155 61.957C251.836 62.2685 242.792 62.7865 234.472 62.1635C234.371 62.2685 234.266 61.852 234.266 61.852C239.775 60.396 245.287 59.4615 250.796 58.7335L250.38 62.37C245.599 61.124 242.375 58.317 238.322 56.133C238.217 56.028 237.906 56.028 238.322 56.028L239.775 53.431C241.441 57.9005 244.143 62.475 244.766 67.7775L242.169 67.571C243.625 63.6195 245.704 57.3825 247.16 53.5325C247.16 53.431 247.16 53.5325 247.261 53.6375L248.511 54.054L234.682 62.2685L234.266 61.852Z" fill="#F2BE65"/>
</svg>
