<svg width="25" height="34" viewBox="0 0 25 34" fill="none" xmlns="http://www.w3.org/2000/svg">
<mask id="mask0_2025_192" style="mask-type:luminance" maskUnits="userSpaceOnUse" x="1" y="0" width="23" height="22">
<path d="M1.83252 0H23.0037V21.0586H1.83252V0Z" fill="white"/>
</mask>
<g mask="url(#mask0_2025_192)">
<path d="M12.5 20.9732C6.73389 20.9732 2.04199 16.2699 2.04199 10.4897C2.04199 4.70859 6.73301 0.00524902 12.5 0.00524902C18.267 0.00524902 22.9589 4.70859 22.9589 10.4897C22.9589 16.2699 18.267 20.9732 12.5 20.9732ZM12.5 2.39123C8.04565 2.39123 4.42181 6.02387 4.42181 10.4897C4.42181 14.9546 8.04565 18.5872 12.5 18.5872C16.9544 18.5872 20.5791 14.9546 20.5791 10.4897C20.5791 6.02387 16.9544 2.39123 12.5 2.39123Z" fill="#797879"/>
</g>
<mask id="mask1_2025_192" style="mask-type:luminance" maskUnits="userSpaceOnUse" x="0" y="9" width="25" height="25">
<path d="M0 9.79724H25V33.7837H0V9.79724Z" fill="white"/>
</mask>
<g mask="url(#mask1_2025_192)">
<path d="M24.998 25.8903C24.998 30.254 21.4692 33.7916 17.116 33.7916H7.88357C3.53126 33.7916 0.00244141 30.254 0.00244141 25.8903V17.8086C0.00244141 13.4448 3.53126 9.90808 7.88357 9.90808H17.116C21.4692 9.90808 24.998 13.4448 24.998 17.8086V25.8903Z" fill="#FBCA6F"/>
</g>
<path d="M22.8104 25.183C22.8104 28.7831 19.8992 31.7013 16.3079 31.7013H8.69244C5.10115 31.7013 2.18994 28.7831 2.18994 25.183V18.516C2.18994 14.9168 5.10115 11.9985 8.69244 11.9985H16.3079C19.8992 11.9985 22.8104 14.9168 22.8104 18.516V25.183Z" fill="#F8B858"/>
<path d="M14.6316 21.3876C14.6316 21.5284 14.6184 21.6674 14.5911 21.8046C14.5639 21.9427 14.5234 22.0765 14.4697 22.2058C14.4161 22.3351 14.3501 22.4583 14.2727 22.5753C14.1944 22.6923 14.1064 22.7996 14.007 22.8991C13.9084 22.9985 13.8011 23.0865 13.6841 23.1648C13.5679 23.2431 13.4448 23.3082 13.3154 23.3627C13.1861 23.4164 13.0533 23.4568 12.916 23.4841C12.7788 23.5114 12.6398 23.5246 12.4999 23.5246C12.36 23.5246 12.221 23.5114 12.0837 23.4841C11.9465 23.4568 11.8137 23.4164 11.6843 23.3627C11.555 23.3082 11.4318 23.2431 11.3157 23.1648C11.1996 23.0865 11.0913 22.9985 10.9928 22.8991C10.8934 22.7996 10.8054 22.6923 10.7271 22.5753C10.6497 22.4583 10.5837 22.3351 10.53 22.2058C10.4773 22.0765 10.4368 21.9427 10.4095 21.8046C10.3822 21.6674 10.3682 21.5284 10.3682 21.3876C10.3682 21.2477 10.3822 21.1087 10.4095 20.9714C10.4368 20.8333 10.4773 20.6996 10.53 20.5703C10.5837 20.4409 10.6497 20.3178 10.7271 20.2008C10.8054 20.0837 10.8934 19.9764 10.9928 19.877C11.0913 19.7776 11.1996 19.6887 11.3157 19.6113C11.4318 19.533 11.555 19.467 11.6843 19.4133C11.8137 19.3597 11.9465 19.3192 12.0837 19.2919C12.221 19.2647 12.36 19.2515 12.4999 19.2515C12.6398 19.2515 12.7788 19.2647 12.916 19.2919C13.0533 19.3192 13.1861 19.3597 13.3154 19.4133C13.4448 19.467 13.5679 19.533 13.6841 19.6113C13.8011 19.6887 13.9084 19.7776 14.007 19.877C14.1064 19.9764 14.1944 20.0837 14.2727 20.2008C14.3501 20.3178 14.4161 20.4409 14.4697 20.5703C14.5234 20.6996 14.5639 20.8333 14.5911 20.9714C14.6184 21.1087 14.6316 21.2477 14.6316 21.3876Z" fill="#9A764A"/>
<path d="M13.5198 25.6159C13.5198 26.1543 13.0843 26.5907 12.5468 26.5907C12.0092 26.5907 11.5737 26.1543 11.5737 25.6159V23.6179C11.5737 23.0795 12.0092 22.6422 12.5468 22.6422C13.0843 22.6422 13.5198 23.0795 13.5198 23.6179V25.6159Z" fill="#9A764A"/>
</svg>
