<svg width="120" height="43" viewBox="0 0 120 43" fill="none" xmlns="http://www.w3.org/2000/svg">
<path d="M17.3851 41.1726C14.5196 41.4608 11.996 41.1519 9.81432 40.2457C7.6592 39.3368 5.92436 37.9435 4.6098 36.0656C3.32178 34.1851 2.54832 31.958 2.28942 29.3843C1.95312 26.0412 2.28305 23.0598 3.2792 20.4403C4.30188 17.8181 5.91126 15.6997 8.10735 14.0852C10.3273 12.4414 13.0823 11.454 16.3724 11.123C17.9643 10.9629 19.1254 11.1811 19.8554 11.7777C20.5828 12.3478 21.0092 13.2563 21.1346 14.5034C21.1533 14.6891 21.1574 14.8629 21.1469 15.0248C21.1629 15.184 21.1683 15.371 21.1631 15.5859C22.0913 14.6885 23.1391 14.1811 24.3066 14.0637C25.2883 13.9649 26.2609 14.1753 27.2244 14.6948C28.1852 15.1878 29.0069 16.0298 29.6896 17.2208C30.3987 18.4091 30.8494 19.9584 31.0416 21.8688C31.3272 24.7078 31.1429 27.2724 30.4889 29.5627C29.8614 31.8504 28.8808 33.8251 27.5471 35.4869C26.2399 37.1461 24.711 38.4657 22.9603 39.4459C21.2069 40.3995 19.3485 40.9751 17.3851 41.1726ZM17.119 35.3299C18.4191 35.1991 19.5491 34.5762 20.509 33.4612C21.4927 32.317 22.1022 30.9156 22.3374 29.2571C21.2939 28.2096 20.5159 27.1354 20.0031 26.0345C19.5142 24.9044 19.2124 23.769 19.0976 22.6281C18.9775 21.4341 19.0167 20.3581 19.2151 19.4001C19.4135 18.4421 19.7182 17.6074 20.1291 16.896C19.6435 16.8645 19.1619 16.8727 18.6843 16.9208C17.1984 17.0702 15.9304 17.5194 14.8801 18.2683C13.8563 19.0145 13.0263 19.9556 12.3901 21.0917C11.7778 22.1985 11.3487 23.3941 11.1027 24.6786C10.8805 25.9338 10.8295 27.1583 10.9496 28.3523C11.0857 29.7055 11.4102 30.9325 11.9229 32.0334C12.4622 33.1316 13.1646 33.9856 14.03 34.5954C14.9219 35.2025 15.9515 35.4473 17.119 35.3299ZM48.2061 38.0721C45.3406 38.3604 42.817 38.0514 40.6353 37.1452C38.4802 36.2364 36.7454 34.843 35.4308 32.9652C34.1428 31.0846 33.3693 28.8575 33.1104 26.2839C32.7741 22.9407 33.1041 19.9594 34.1002 17.3399C35.1229 14.7177 36.7323 12.5993 38.9284 10.9847C41.1483 9.34095 43.9033 8.35357 47.1934 8.02261C48.7854 7.86247 49.9464 8.08069 50.6764 8.67729C51.4038 9.24734 51.8302 10.1559 51.9556 11.4029C51.9743 11.5887 51.9784 11.7625 51.9679 11.9243C51.9839 12.0835 51.9893 12.2706 51.9841 12.4855C52.9123 11.5881 53.9601 11.0807 55.1276 10.9633C56.1093 10.8645 57.0819 11.0749 58.0454 11.5944C59.0062 12.0874 59.828 12.9293 60.5106 14.1203C61.2198 15.3086 61.6704 16.858 61.8626 18.7683C62.1482 21.6073 61.964 24.172 61.3099 26.4623C60.6824 28.7499 59.7018 30.7247 58.3681 32.3865C57.0609 34.0457 55.532 35.3653 53.7813 36.3455C52.0279 37.2991 50.1695 37.8746 48.2061 38.0721ZM47.94 32.2294C49.2401 32.0987 50.3701 31.4758 51.33 30.3608C52.3137 29.2165 52.9232 27.8152 53.1584 26.1566C52.115 25.1091 51.3369 24.035 50.8241 22.9341C50.3352 21.804 50.0334 20.6685 49.9186 19.5276C49.7985 18.3336 49.8377 17.2577 50.0361 16.2996C50.2346 15.3416 50.5392 14.507 50.9501 13.7956C50.4645 13.764 49.9829 13.7723 49.5053 13.8203C48.0195 13.9698 46.7514 14.419 45.7011 15.1679C44.6773 15.9141 43.8473 16.8552 43.2112 17.9913C42.5989 19.0981 42.1697 20.2937 41.9237 21.5781C41.7015 22.8333 41.6505 24.0579 41.7706 25.2519C41.9068 26.6051 42.2312 27.8321 42.744 28.933C43.2833 30.0312 43.9856 30.8852 44.851 31.4949C45.7429 32.102 46.7726 32.3469 47.94 32.2294ZM71.5091 35.7682C69.7314 35.947 68.4204 35.5697 67.576 34.6362C66.7556 33.6735 66.2412 32.1573 66.0331 30.0878C65.8996 28.7611 65.9117 26.7498 66.0693 24.0538C66.2508 21.3287 66.518 17.7238 66.8709 13.2393L64.3332 9.19298C65.5001 8.27155 66.7587 7.46151 68.1089 6.76286C69.4564 6.03768 70.8333 5.60436 72.2395 5.4629C72.9559 5.39084 73.7254 5.44743 74.5481 5.63269C75.3973 5.81528 76.0091 6.03515 76.3833 6.29231C77.3516 5.7929 78.2774 5.40495 79.1608 5.12848C80.0708 4.84933 80.9237 4.66972 81.7197 4.58965C83.4709 4.41349 84.9862 4.68988 86.2655 5.41882C87.5423 6.12123 88.5538 7.11833 89.3002 8.41011C90.0731 9.69922 90.5383 11.1265 90.6958 12.6919C90.8345 14.0716 90.7093 15.4913 90.3201 16.9509C89.9283 18.384 89.2458 19.7257 88.2727 20.976C87.2997 22.2264 86.012 23.2806 84.4099 24.1386C82.8077 24.9966 80.8657 25.5403 78.5839 25.7699C77.9206 25.8366 77.24 25.8649 76.5421 25.8547C75.8681 25.8153 75.1901 25.736 74.5081 25.617C74.445 26.5882 74.4388 27.3259 74.4895 27.83C74.6257 29.1832 74.8333 30.3148 75.1124 31.2247C75.4181 32.132 75.802 32.884 76.264 33.4808C74.7922 34.8349 73.2072 35.5974 71.5091 35.7682ZM75.9741 21.0072C77.0619 20.8977 78.07 20.5283 78.9984 19.8989C79.9506 19.2403 80.6983 18.4146 81.2417 17.4219C81.7851 16.4292 81.9967 15.3359 81.8766 14.1419C81.7618 13.001 81.3287 12.0261 80.5773 11.2173C79.8233 10.3819 78.7697 10.0322 77.4165 10.1684C76.8858 10.2218 76.2863 10.3893 75.6178 10.6709C75.5917 11.4776 75.5313 12.4753 75.4364 13.6641C75.3655 14.8237 75.2733 16.039 75.16 17.3101C75.0732 18.5785 74.9558 19.8097 74.8079 21.0039C75.1874 21.0461 75.5761 21.0472 75.9741 21.0072ZM105.923 32.2661C103.535 32.5063 101.555 32.5314 99.9809 32.3412C98.41 32.1777 97.1707 31.8467 96.2629 31.3484C95.3551 30.8501 94.6914 30.2468 94.2718 29.5386C93.876 28.8012 93.6354 28.0079 93.55 27.1589C93.4699 26.3629 93.5092 25.5549 93.6679 24.7349C93.8532 23.9122 94.2215 23.0444 94.7729 22.1312C95.2217 22.8633 95.9067 23.5449 96.8278 24.1758C97.749 24.8068 98.7629 25.2944 99.8695 25.6387C101.003 25.9804 102.087 26.0991 103.122 25.995C104.501 25.8562 105.621 25.5292 106.48 25.0139C107.363 24.4695 107.957 23.7129 108.262 22.7442C103.69 22.5877 100.182 21.681 97.7369 20.024C95.2894 18.3405 93.9362 16.2119 93.6773 13.6383C93.5252 12.1259 93.6969 10.7686 94.1923 9.56626C94.7144 8.36129 95.4541 7.32204 96.4114 6.4485C97.3661 5.54842 98.4297 4.7982 99.6022 4.19783C100.772 3.57094 101.943 3.0913 103.116 2.75893C104.286 2.40003 105.335 2.17387 106.264 2.08045C109.633 1.74148 112.26 1.87924 114.145 2.49373C116.053 3.07901 117.106 4.35337 117.303 6.31679C117.418 7.4577 117.249 8.43957 116.795 9.2624C116.369 10.0826 115.751 10.7343 114.942 11.2177C114.157 11.6719 113.273 11.9484 112.292 12.0472C111.124 12.1646 109.95 11.9477 108.769 11.3965C107.585 10.8188 106.706 9.94231 106.132 8.76718C105.204 8.8606 104.32 9.27107 103.482 9.99861C102.642 10.6996 102.143 11.6074 101.987 12.7219C105.602 13.216 108.535 13.8723 110.789 14.6909C113.068 15.5068 114.765 16.5154 115.877 17.7168C116.99 18.9181 117.63 20.3546 117.798 22.0262C117.993 23.963 117.587 25.6522 116.579 27.0936C115.572 28.535 114.134 29.6981 112.267 30.5827C110.426 31.4648 108.311 32.0259 105.923 32.2661Z" fill="#FF8000"/>
</svg>
