<svg width="200" height="189" viewBox="0 0 200 189" fill="none" xmlns="http://www.w3.org/2000/svg">
<path d="M48.1614 119.547C43.8332 119.224 40.2864 117.073 37.5259 113.104C34.578 108.854 33.3436 103.552 33.8176 97.1925C34.3801 89.7134 36.4478 83.0102 40.0259 77.0884C44.0416 70.4217 48.703 67.2863 54.0155 67.6873C59.1197 68.0727 62.8124 70.1196 65.0936 73.8331C67.3749 77.5467 68.2499 82.9321 67.7186 89.9946C67.1614 97.4738 65.2186 104.14 61.8957 109.995C58.0624 116.765 53.4843 119.948 48.1614 119.547ZM53.3436 76.63C50.0832 76.3852 47.1093 78.5519 44.427 83.1248C41.9166 87.4061 40.453 92.255 40.052 97.6665C39.7759 101.318 40.4947 104.359 42.2134 106.786C43.8593 109.125 46.0676 110.396 48.8332 110.604C52.052 110.849 54.9114 108.677 57.4218 104.083C59.7186 99.9009 61.078 95.0467 61.4895 89.5259C61.8384 84.9061 61.3905 81.6404 60.1509 79.7342C58.9634 77.9165 56.6926 76.8852 53.3436 76.63Z" fill="url(#paint0_linear_2025_2099)"/>
<path d="M84.0363 122.25C79.7081 121.927 76.1613 119.776 73.4008 115.807C70.4529 111.562 69.2133 106.255 69.6925 99.9009C70.255 92.4165 72.3227 85.7186 75.9008 79.7915C79.9165 73.1248 84.5779 69.9894 89.8904 70.3904C94.9946 70.7759 98.6873 72.8227 100.969 76.5363C103.25 80.2498 104.125 85.6352 103.594 92.6977C103.036 100.177 101.094 106.844 97.7706 112.703C93.9373 119.469 89.3592 122.656 84.0363 122.25ZM89.2185 79.3331C85.9581 79.0884 82.9842 81.255 80.3019 85.8331C77.7863 90.1092 76.3279 94.9581 75.9217 100.37C75.6508 104.021 76.3696 107.062 78.0883 109.489C79.7342 111.828 81.9425 113.099 84.7081 113.307C87.9269 113.552 90.7863 111.38 93.2915 106.786C95.5935 102.604 96.9529 97.7498 97.3644 92.229C97.7081 87.6092 97.2654 84.3436 96.0258 82.4373C94.8383 80.6196 92.5675 79.5884 89.2185 79.3331Z" fill="url(#paint1_linear_2025_2099)"/>
<path d="M113.26 103.911C113.01 103.896 112.401 103.771 111.432 103.542C111.115 106.614 110.693 111.672 110.161 118.713C110.078 119.88 109.729 120.859 109.125 121.656C108.521 122.448 107.802 122.818 106.969 122.755C106.135 122.687 105.474 122.219 104.99 121.344C104.505 120.463 104.307 119.443 104.391 118.276L105.083 109.073C105.338 105.661 105.865 100.625 106.656 93.9582C107.443 87.1821 107.969 82.1196 108.234 78.7759C108.677 73.0571 109.953 70.4009 112.057 70.8019C112.568 70.6405 113.266 70.5415 114.151 70.5103C115.036 70.479 116.109 70.5103 117.365 70.604C120.234 70.8228 122.818 72.4217 125.125 75.4061C127.687 78.7394 128.797 82.6509 128.463 87.1353C128.042 92.7707 126.219 97.1353 123 100.234C120.146 102.958 116.901 104.187 113.26 103.911ZM116.224 79.078C115.755 79.0467 115.344 79.0207 114.984 79.005C114.625 78.9894 114.318 78.9894 114.068 79.0155C113.99 80.0519 113.865 81.604 113.693 83.6665C113.484 86.1092 113.057 89.9061 112.422 95.0571C113.156 95.2863 113.646 95.4113 113.896 95.4321C116.177 95.604 118.13 94.9321 119.76 93.4165C121.5 91.8019 122.474 89.5623 122.693 86.703C122.833 84.8332 122.203 83.1144 120.802 81.5467C119.463 80.0311 117.932 79.2082 116.224 79.078Z" fill="url(#paint2_linear_2025_2099)"/>
<path d="M139.13 126.406C135.417 126.125 132.583 124.661 130.635 122.015C128.99 119.812 128.271 117.354 128.474 114.651C128.578 113.265 128.943 112.135 129.568 111.265C130.188 110.396 130.99 109.995 131.974 110.068C133.286 110.167 134.177 111.25 134.641 113.323C135.271 116.094 137.057 117.588 139.995 117.807C142.516 118 145.01 117.354 147.49 115.885C150.057 114.375 151.422 112.609 151.573 110.583C151.781 107.812 151.156 105.927 149.703 104.932C148.667 104.213 146.521 103.677 143.266 103.318C140.745 103.042 138.531 102.156 136.625 100.661C134.057 98.6301 132.922 95.9165 133.224 92.5051C133.589 88.2186 135.406 84.4009 138.672 81.0519C141.938 77.703 145.375 76.1665 148.99 76.4374C150.422 76.5467 152.156 77.1769 154.188 78.3228C156.714 79.7551 157.917 81.2707 157.797 82.8749C157.714 84.0207 157.37 85.0155 156.781 85.854C156.12 86.8019 155.328 87.2394 154.406 87.1665C153.719 87.1144 152.708 86.8176 151.375 86.2759C150.042 85.7342 149.021 85.4374 148.318 85.3801C146.432 85.2603 144.589 85.8071 142.792 87.0207C140.932 88.2551 139.943 89.6717 139.823 91.2811C139.76 92.1144 139.974 92.8228 140.469 93.4009C140.964 93.9842 141.734 94.4217 142.786 94.7238C144.646 95.0155 146.5 95.3124 148.349 95.604C151.568 96.2238 154.031 97.7915 155.74 100.312C157.62 103.109 158.385 106.838 158.036 111.5C157.609 117.177 155.135 121.318 150.615 123.917C147.172 125.896 143.344 126.724 139.13 126.406Z" fill="url(#paint3_linear_2025_2099)"/>
<path d="M162.995 128.37C162.115 128.302 161.349 127.536 160.693 126.073C160.104 124.724 159.849 123.484 159.932 122.364C160.021 121.219 160.391 120.286 161.047 119.562C161.708 118.838 162.417 118.5 163.177 118.557C164.052 118.625 164.813 119.39 165.453 120.854C166.042 122.203 166.297 123.432 166.214 124.531C166.13 125.651 165.761 126.588 165.109 127.333C164.458 128.083 163.755 128.427 162.995 128.37ZM163.958 116.396C163.136 116.333 162.49 115.896 162.016 115.088C161.537 114.276 161.344 113.286 161.432 112.125C161.495 111.265 161.573 109.984 161.662 108.276C161.755 106.568 161.833 105.281 161.896 104.427C162.125 101.39 162.484 96.8384 162.974 90.7655C163.469 84.6977 163.828 80.1457 164.057 77.1092C164.141 75.9425 164.484 74.9894 165.083 74.2498C165.688 73.5102 166.386 73.1717 167.193 73.229C167.995 73.2915 168.641 73.7342 169.125 74.5571C169.604 75.3748 169.802 76.3696 169.714 77.5363L167.089 112.547C167.005 113.713 166.662 114.661 166.073 115.39C165.479 116.125 164.776 116.458 163.958 116.396Z" fill="url(#paint4_linear_2025_2099)"/>
<mask id="mask0_2025_2099" style="mask-type:luminance" maskUnits="userSpaceOnUse" x="0" y="29" width="200" height="139">
<path d="M0 29.2968H200V167.963H0V29.2968Z" fill="white"/>
</mask>
<g mask="url(#mask0_2025_2099)">
<path d="M91.8646 167.646C86.5938 167.646 81.5833 166.094 77.7604 163.265C74.9479 161.187 72.974 158.583 71.9948 155.713C71.2812 156.198 70.5365 156.625 69.7552 157C65.0729 159.265 59.7031 159.354 54.6458 157.255C49.6719 155.193 45.5885 151.25 43.1406 146.151C42.4115 144.635 41.8542 143.068 41.4688 141.469C38.401 142.974 35.0365 143.755 31.5677 143.755C19.1094 143.755 8.97917 133.599 8.97917 121.109C8.97917 117.724 9.72917 114.406 11.1667 111.38C8.17188 109.505 5.63021 106.979 3.72396 103.969C1.33854 100.198 0.078125 95.8332 0.078125 91.3436C0.078125 78.328 10.6406 67.7342 23.625 67.7342C24.5104 67.7342 25.3958 67.7863 26.2708 67.8853C26.2708 67.7967 26.2708 67.7082 26.2708 67.6249C26.2708 60.0936 29.1927 53.0155 34.5052 47.6926C39.8125 42.3696 46.8698 39.4426 54.3802 39.4426C57.8438 39.4426 61.1979 40.0571 64.3802 41.2759C65.6615 38.2342 68.0833 35.5103 71.3958 33.4321C75.5 30.8592 80.7396 29.4426 86.151 29.4426C90.5521 29.4426 94.8229 30.3696 98.5 32.1196C101.229 33.4165 103.531 35.1144 105.276 37.1092C109.646 33.5103 116.078 31.4217 123.042 31.4217C127.177 31.4217 131.229 32.1717 134.766 33.5988C137.401 34.6613 139.708 36.078 141.552 37.7499C145.161 34.604 149.812 32.8332 154.646 32.8332C165.641 32.8332 174.583 41.8019 174.583 52.828C174.583 53.5936 174.542 54.3644 174.453 55.1249C178.667 55.4321 183.016 57.6769 186.344 61.3957C189.953 65.4321 191.724 70.5988 191.172 75.1301C193.552 76.0936 195.625 77.9269 197.151 80.4634C199.047 83.6144 199.922 87.5884 199.615 91.6457C199.323 95.4999 198.01 99.0624 195.885 101.828C197.495 106.203 198.135 111.672 197.698 117.401C197.24 123.437 195.625 129.057 193.151 133.224C190.536 137.63 187.198 140.021 183.693 140.021C183.495 140.021 183.302 140.01 183.104 139.995C182.354 139.937 181.62 139.776 180.917 139.505C179.531 142.927 176.891 146.297 173.156 149.39C168.417 153.312 162.318 156.448 155.51 158.458C150.089 160.057 144.516 160.828 139.391 160.682C135.401 160.568 131.729 159.901 128.615 158.745C126.484 164.13 122.146 167.588 117.245 167.588C113.448 167.588 109.938 165.495 107.557 161.953C103.693 165.526 97.974 167.646 91.8646 167.646ZM73.1771 149.521C73.3854 149.521 73.5938 149.552 73.8021 149.609C73.875 149.63 73.9427 149.651 74.0156 149.672L74.1615 149.713C75.0938 149.979 75.75 150.818 75.7917 151.792C75.9167 154.724 77.5625 157.51 80.4323 159.63C83.4896 161.885 87.5469 163.13 91.8646 163.13C97.9062 163.13 103.391 160.677 106.182 156.734C106.656 156.062 107.458 155.703 108.276 155.797C109.094 155.89 109.797 156.422 110.104 157.182C111.589 160.818 114.323 163.073 117.245 163.073C119.344 163.073 120.932 161.943 121.901 160.989C123.354 159.557 124.469 157.484 125.031 155.146C125.193 154.474 125.656 153.911 126.281 153.625C126.906 153.333 127.63 153.349 128.245 153.661C134.474 156.838 144.432 157.015 154.24 154.12C160.464 152.286 166.01 149.443 170.286 145.906C174.245 142.63 176.766 138.979 177.385 135.635C177.536 134.833 178.109 134.172 178.88 133.906C179.651 133.646 180.505 133.823 181.109 134.37C181.87 135.052 182.651 135.432 183.443 135.489C185.344 135.635 187.464 133.969 189.276 130.911C191.406 127.333 192.797 122.411 193.208 117.057C193.625 111.536 192.906 106.161 191.229 102.307C190.87 101.484 191.031 100.526 191.641 99.8697C193.599 97.7551 194.87 94.6353 195.12 91.3019C195.359 88.1717 194.708 85.1561 193.292 82.7967C191.99 80.6353 190.177 79.2707 188.177 78.953C187.531 78.8488 186.958 78.4686 186.615 77.9061C186.271 77.3436 186.188 76.6561 186.385 76.0311C187.51 72.5363 186.177 67.9738 182.99 64.4113C179.901 60.9634 175.62 59.1197 172.089 59.7238C171.328 59.8488 170.557 59.5832 170.042 59.0103C169.526 58.4426 169.333 57.6457 169.536 56.9009C169.896 55.578 170.078 54.2082 170.078 52.828C170.078 44.2915 163.156 37.3488 154.646 37.3488C150.281 37.3488 146.099 39.2186 143.177 42.4738C142.734 42.9582 142.104 43.2342 141.453 43.2186C140.797 43.203 140.177 42.9009 139.76 42.3957C136.49 38.4113 130.083 35.9374 123.042 35.9374C116.302 35.9374 110.021 38.2655 106.661 42.0103C106.188 42.5363 105.49 42.8124 104.781 42.7446C104.073 42.6821 103.438 42.2863 103.068 41.6821C101.714 39.4738 99.4635 37.578 96.5677 36.1978C93.4896 34.7342 89.8906 33.9634 86.151 33.9634C81.5729 33.9634 77.1823 35.1353 73.7865 37.2655C70.6094 39.2551 68.5521 41.9269 67.9948 44.7863C67.8646 45.4738 67.4167 46.0624 66.7865 46.3801C66.1562 46.6926 65.4219 46.6926 64.7917 46.3801C61.5365 44.7759 58.0313 43.9582 54.3802 43.9582C41.3646 43.9582 30.776 54.5728 30.776 67.6249C30.776 68.5207 30.8281 69.4374 30.9323 70.3488C31.0156 71.0832 30.7396 71.8124 30.1875 72.3019C29.6302 72.7915 28.875 72.9738 28.1615 72.8019C26.6823 72.4374 25.1563 72.2551 23.625 72.2551C13.125 72.2551 4.58333 80.8176 4.58333 91.3436C4.58333 94.9738 5.60417 98.4999 7.53125 101.552C9.41146 104.521 12.0625 106.911 15.1979 108.469C15.7656 108.75 16.1927 109.255 16.3646 109.864C16.5417 110.474 16.4531 111.13 16.125 111.672C14.3958 114.505 13.4844 117.765 13.4844 121.109C13.4844 131.104 21.5938 139.239 31.5677 139.239C35.276 139.239 38.8385 138.12 41.875 136.005C42.5365 135.542 43.3906 135.469 44.1198 135.812C44.849 136.156 45.3385 136.864 45.4062 137.667C45.5938 139.911 46.2031 142.109 47.2031 144.193C49.1667 148.286 52.4219 151.443 56.3698 153.078C60.224 154.677 64.2865 154.625 67.8021 152.932C69.2031 152.255 70.4688 151.338 71.5573 150.208C71.9896 149.765 72.5729 149.521 73.1771 149.521Z" fill="url(#paint5_linear_2025_2099)"/>
</g>
<path d="M142.818 30.9113C142.677 30.9113 142.536 30.9009 142.396 30.8748C141.333 30.6717 140.562 29.7394 140.562 28.6509V6.5415C140.562 2.97379 143.458 0.0727539 147.01 0.0727539C149.151 0.0727539 151.141 1.13005 152.344 2.90609C153.547 4.67692 153.797 6.92171 153.01 8.9165L144.911 29.4842C144.568 30.3592 143.729 30.9113 142.818 30.9113ZM147.01 4.59359C145.943 4.59359 145.068 5.46859 145.068 6.5415V16.7811L148.818 7.25505C149.057 6.64567 148.984 5.98942 148.62 5.44775C148.25 4.90609 147.667 4.59359 147.01 4.59359Z" fill="url(#paint6_linear_2025_2099)"/>
<path d="M59.4428 30.9113C58.797 30.9113 58.1668 30.6353 57.7293 30.1196L43.2605 13.1717C41.6616 11.3019 41.021 8.84361 41.5001 6.42694C41.9845 4.01027 43.5157 1.98423 45.7085 0.869648C47.9324 -0.260562 50.5001 -0.291811 52.7501 0.791523C55.0001 1.87486 56.5835 3.9009 57.0939 6.35402L61.646 28.1926C61.8595 29.203 61.3595 30.2238 60.4376 30.6821C60.1199 30.8384 59.7762 30.9113 59.4428 30.9113ZM49.3022 4.52069C48.771 4.52069 48.2397 4.64569 47.7449 4.9009C46.7918 5.38006 46.1303 6.26027 45.922 7.30715C45.7137 8.35402 45.9897 9.42173 46.6824 10.2342L55.4376 20.4894L52.6824 7.2759C52.4637 6.2134 51.7762 5.3384 50.797 4.86444C50.323 4.63527 49.8126 4.52069 49.3022 4.52069Z" fill="url(#paint7_linear_2025_2099)"/>
<path d="M28.4374 171.614C27.3177 171.614 26.1979 171.354 25.1666 170.833C22.9895 169.745 21.4999 167.64 21.1874 165.219C20.8749 162.797 21.7812 160.385 23.6093 158.776L36.0208 147.833C36.7656 147.177 37.8489 147.088 38.6927 147.609C39.5364 148.13 39.9427 149.14 39.6927 150.104L35.5104 166.135C34.9531 168.281 33.4739 170.041 31.4583 170.958C30.4895 171.396 29.4635 171.614 28.4374 171.614ZM33.4687 156.099L26.5833 162.166C25.8749 162.797 25.5364 163.698 25.6562 164.64C25.776 165.583 26.3333 166.37 27.1822 166.797C27.9427 167.177 28.8229 167.192 29.5937 166.838C30.3697 166.489 30.9374 165.812 31.151 164.989L33.4687 156.099Z" fill="url(#paint8_linear_2025_2099)"/>
<mask id="mask1_2025_2099" style="mask-type:luminance" maskUnits="userSpaceOnUse" x="71" y="174" width="20" height="15">
<path d="M71.3335 174.63H90.0002V188.713H71.3335V174.63Z" fill="white"/>
</mask>
<g mask="url(#mask1_2025_2099)">
<path d="M80.4012 188.713C75.6044 188.713 71.8387 185.911 71.8387 182.333C71.8387 178.755 75.6044 175.948 80.4012 175.948C85.2033 175.948 88.9637 178.755 88.9637 182.333C88.9637 185.911 85.2033 188.713 80.4012 188.713ZM80.4012 180.469C77.8856 180.469 76.3492 181.672 76.3492 182.333C76.3492 182.989 77.8856 184.193 80.4012 184.193C82.9169 184.193 84.4585 182.989 84.4585 182.333C84.4585 181.672 82.9169 180.469 80.4012 180.469Z" fill="url(#paint9_linear_2025_2099)"/>
</g>
<path d="M108.229 23.7967C104.818 23.7967 102.146 20.1509 102.146 15.4946C102.146 10.8384 104.818 7.19257 108.229 7.19257C111.641 7.19257 114.313 10.8384 114.313 15.4946C114.313 20.1509 111.641 23.7967 108.229 23.7967ZM108.229 11.7082C107.75 11.7082 106.651 13.1405 106.651 15.4946C106.651 17.8488 107.75 19.2759 108.229 19.2759C108.714 19.2759 109.807 17.8488 109.807 15.4946C109.807 13.1405 108.714 11.7082 108.229 11.7082Z" fill="url(#paint10_linear_2025_2099)"/>
<path d="M13.4844 61.1821C10.5625 61.1821 8.1875 58.8019 8.1875 55.8749C8.1875 52.9478 10.5625 50.5676 13.4844 50.5676C16.4063 50.5676 18.7812 52.9478 18.7812 55.8749C18.7812 58.8019 16.4063 61.1821 13.4844 61.1821ZM13.4844 55.0832C13.0469 55.0832 12.6979 55.4374 12.6979 55.8749C12.6979 56.3124 13.0469 56.6665 13.4844 56.6665C13.9167 56.6665 14.2708 56.3124 14.2708 55.8749C14.2708 55.4374 13.9167 55.0832 13.4844 55.0832Z" fill="url(#paint11_linear_2025_2099)"/>
<defs>
<linearGradient id="paint0_linear_2025_2099" x1="42.3419" y1="73.2941" x2="94.9094" y2="107.397" gradientUnits="userSpaceOnUse">
<stop stop-color="#F2BE65"/>
</linearGradient>
<linearGradient id="paint1_linear_2025_2099" x1="78.2156" y1="75.9973" x2="130.785" y2="110.102" gradientUnits="userSpaceOnUse">
<stop stop-color="#F2BE65"/>
</linearGradient>
<linearGradient id="paint2_linear_2025_2099" x1="110.47" y1="76.1759" x2="154.202" y2="96.1095" gradientUnits="userSpaceOnUse">
<stop stop-color="#F2BE65"/>
</linearGradient>
<linearGradient id="paint3_linear_2025_2099" x1="135.934" y1="81.8455" x2="184.305" y2="110.131" gradientUnits="userSpaceOnUse">
<stop stop-color="#F2BE65"/>
</linearGradient>
<linearGradient id="paint4_linear_2025_2099" x1="162.396" y1="79.2141" x2="183.225" y2="82.8715" gradientUnits="userSpaceOnUse">
<stop stop-color="#F2BE65"/>
</linearGradient>
<linearGradient id="paint5_linear_2025_2099" x1="50.4763" y1="44.4556" x2="194.568" y2="249.738" gradientUnits="userSpaceOnUse">
<stop stop-color="#F2BE65"/>
</linearGradient>
<linearGradient id="paint6_linear_2025_2099" x1="143.82" y1="3.42275" x2="167.929" y2="13.3714" gradientUnits="userSpaceOnUse">
<stop stop-color="#F2BE65"/>
</linearGradient>
<linearGradient id="paint7_linear_2025_2099" x1="46.4831" y1="3.35791" x2="77.7889" y2="23.6887" gradientUnits="userSpaceOnUse">
<stop stop-color="#F2BE65"/>
</linearGradient>
<linearGradient id="paint8_linear_2025_2099" x1="25.833" y1="149.916" x2="51.7903" y2="169.523" gradientUnits="userSpaceOnUse">
<stop stop-color="#F2BE65"/>
</linearGradient>
<linearGradient id="paint9_linear_2025_2099" x1="76.1628" y1="177.334" x2="89.777" y2="195.35" gradientUnits="userSpaceOnUse">
<stop stop-color="#F2BE65"/>
</linearGradient>
<linearGradient id="paint10_linear_2025_2099" x1="105.218" y1="8.99628" x2="122.696" y2="21.6301" gradientUnits="userSpaceOnUse">
<stop stop-color="#F2BE65"/>
</linearGradient>
<linearGradient id="paint11_linear_2025_2099" x1="10.8624" y1="51.7206" x2="22.6283" y2="63.3043" gradientUnits="userSpaceOnUse">
<stop stop-color="#F2BE65"/>
</linearGradient>
</defs>
</svg>
