<svg width="119" height="61" viewBox="0 0 119 61" fill="none" xmlns="http://www.w3.org/2000/svg">
<path d="M51.48 17.5933C49.6134 16.8 48.82 14.49 49.94 12.81C52.2034 9.45 55.9834 7 60.9767 7C66.46 7 70.2167 9.49667 72.13 12.6233C73.7634 15.3067 74.72 20.3233 72.2 24.0567C69.4 28.1867 66.7167 29.4467 65.27 32.1067C64.92 32.7367 64.71 33.25 64.57 34.3C64.36 36.0033 62.96 37.3333 61.2334 37.3333C59.2034 37.3333 57.5467 35.5833 57.78 33.5533C57.92 32.3633 58.2 31.1267 58.8534 29.96C60.65 26.7167 64.1034 24.8033 66.11 21.9333C68.2334 18.9233 67.0434 13.3 61.0234 13.3C58.2934 13.3 56.52 14.7233 55.4234 16.4267C54.6067 17.7567 52.9034 18.1767 51.48 17.5933ZM65.6667 46.6667C65.6667 49.2333 63.5667 51.3333 61 51.3333C58.4334 51.3333 56.3334 49.2333 56.3334 46.6667C56.3334 44.1 58.4334 42 61 42C63.5667 42 65.6667 44.1 65.6667 46.6667Z" fill="#FF8000"/>
<path d="M99.5869 35.6878C99.1168 34.8719 99.4684 33.7938 100.353 33.4841C102.132 32.8713 104.218 33.0198 106.069 34.4157C108.101 35.9486 108.796 37.9242 108.631 39.6181C108.486 41.0694 107.439 43.1965 105.461 43.876C103.268 44.6242 101.921 44.3411 100.642 44.9228C100.336 45.0585 100.114 45.19 99.769 45.5401C99.2149 46.1128 98.3242 46.2145 97.6841 45.7318C96.9316 45.1643 96.8067 44.0525 97.4607 43.3652C97.8452 42.9632 98.2948 42.5831 98.8631 42.3332C100.436 41.6332 102.251 41.8893 103.797 41.3864C105.425 40.8642 106.556 38.447 104.325 36.7641C103.313 36.0009 102.258 36.0328 101.375 36.3577C100.7 36.6224 99.9515 36.3019 99.5869 35.6878ZM96.7184 50.4309C96.0009 51.3824 94.6354 51.5738 93.6839 50.8563C92.7325 50.1387 92.5411 48.7732 93.2586 47.8218C93.9761 46.8703 95.3416 46.6789 96.2931 47.3965C97.2445 48.114 97.4359 49.4795 96.7184 50.4309Z" fill="#FF8000"/>
<path d="M17.5869 29.6878C17.1168 28.8719 17.4684 27.7938 18.3533 27.4841C20.1315 26.8713 22.2177 27.0198 24.0687 28.4157C26.1013 29.9486 26.7959 31.9242 26.6311 33.6181C26.4864 35.0694 25.4387 37.1965 23.4609 37.876C21.2684 38.6242 19.9215 38.3411 18.6416 38.9228C18.3357 39.0585 18.1144 39.19 17.769 39.5401C17.2149 40.1128 16.3242 40.2145 15.6841 39.7318C14.9316 39.1643 14.8067 38.0525 15.4607 37.3652C15.8452 36.9632 16.2948 36.5831 16.8631 36.3332C18.4358 35.6332 20.2508 35.8893 21.7969 35.3864C23.4255 34.8642 24.5564 32.447 22.3248 30.7641C21.3128 30.0009 20.2575 30.0328 19.3748 30.3577C18.7003 30.6224 17.9515 30.3019 17.5869 29.6878ZM14.7184 44.4309C14.0009 45.3824 12.6354 45.5738 11.6839 44.8563C10.7325 44.1387 10.5411 42.7732 11.2586 41.8218C11.9761 40.8703 13.3416 40.6789 14.2931 41.3965C15.2445 42.114 15.4359 43.4795 14.7184 44.4309Z" fill="#FF8000"/>
</svg>
