<svg width="39" height="40" viewBox="0 0 39 40" fill="none" xmlns="http://www.w3.org/2000/svg">
<mask id="mask0_2025_365" style="mask-type:luminance" maskUnits="userSpaceOnUse" x="0" y="0" width="39" height="40">
<path d="M0 0H38.3707V39.7307H0V0Z" fill="white"/>
</mask>
<g mask="url(#mask0_2025_365)">
<path d="M17.0301 0.481593C17.0509 0.796789 17.0765 1.11678 17.1181 1.42238C17.1629 1.71838 17.2237 2.00317 17.3117 2.26237C17.4173 2.58876 17.4829 3.14716 17.9165 2.70876C18.0205 2.60316 18.0077 2.81436 18.0173 2.91676C18.0429 3.20476 18.0957 3.46235 18.2045 3.65595C18.3053 3.84475 18.4381 3.95195 18.6237 3.80635C18.7917 3.67355 18.8525 3.41435 18.8877 3.14396C18.9037 3.02396 18.8957 2.84316 18.9853 2.80636C19.0701 2.77116 19.0557 2.96476 19.0701 3.07036C19.0973 3.28636 19.1373 3.50235 19.1357 3.73435C19.1341 4.26394 19.2285 4.69594 19.3693 5.08153C19.5117 5.45592 19.6989 5.79032 19.8733 6.14712C19.9293 6.25911 20.0109 6.34551 20.1165 6.25591C20.2445 6.14872 20.2429 5.94072 20.2733 5.75672C20.2925 5.63672 20.2445 5.46712 20.3437 5.41273C20.4317 5.36313 20.4493 5.53912 20.4909 5.62872C20.5581 5.77752 20.6253 5.95352 20.7661 5.84792C20.9037 5.74232 20.9117 5.51512 20.9149 5.31353C20.9229 4.64634 20.8525 4.02554 20.7597 3.42395C20.7453 3.33435 20.7005 3.21276 20.7837 3.12956C20.8029 3.11036 20.8605 3.22396 20.8829 3.29915C20.9533 3.52635 21.0461 3.74555 21.0797 4.00954C21.2013 4.94393 21.6605 5.55192 21.7885 6.54231C21.7965 6.61591 21.8605 6.72951 21.8733 6.71831C22.2733 6.37431 22.1021 7.0063 22.1613 7.2127C22.3533 7.89109 22.4925 8.57588 22.5357 9.35507C22.5613 9.79987 22.7661 9.99026 23.0461 9.58227C23.0909 9.51667 23.1437 9.39667 23.2109 9.46227C23.2765 9.53107 23.2237 9.65107 23.1997 9.73907C23.0045 10.4127 22.9997 11.163 22.7645 11.827C22.7261 11.9342 22.6909 12.1534 22.7805 12.1774C23.0221 12.243 22.8653 12.3966 22.8301 12.5358C22.7693 12.8126 22.7069 13.091 22.6333 13.419C22.8493 13.2014 23.0093 12.739 23.2173 12.9118C23.3501 13.019 23.0989 13.435 23.0509 13.723C22.9997 14.0334 22.7693 14.163 22.6845 14.435C22.6573 14.5214 22.5677 14.6046 22.6413 14.7006C22.6525 14.715 22.7405 14.6206 22.7933 14.5806C22.8765 14.5182 23.0125 14.3838 23.0333 14.411C23.1309 14.5422 23.0141 14.6814 22.9645 14.7758C22.7549 15.1534 23.0237 15.5294 22.9213 15.9006C23.5853 16.0718 22.9949 16.4878 22.9773 16.7518C22.9133 17.899 23.0845 18.9709 23.4685 20.0077C23.4845 20.0525 23.5309 20.0797 23.5629 20.1149C23.5773 20.0637 23.6077 20.0125 23.6061 19.9613C23.5725 19.0925 23.8301 18.2398 23.6909 17.363C23.6813 17.2958 23.6733 17.1998 23.7005 17.1534C23.9804 16.6766 24.0508 16.1902 24.0236 15.715C23.9964 15.235 23.8717 14.7678 23.7517 14.2798C23.7261 14.1758 23.6685 14.0142 23.6957 13.9726C23.7693 13.8638 23.8365 14.0238 23.91 14.0558C24.1916 14.179 24.2652 13.9246 24.2988 13.6254C24.4236 12.555 24.2732 11.5518 23.9916 10.5951C23.9373 10.4063 23.7917 10.1711 24.1036 10.1535C24.2412 10.1455 24.2524 9.91186 24.2604 9.73747C24.286 9.21427 24.2956 8.69268 24.246 8.17589C24.2396 8.10389 24.2668 8.02069 24.278 7.94229C24.3132 7.99669 24.3596 8.03989 24.3804 8.10549C24.5292 8.57588 24.6684 9.05908 24.838 9.51987C24.9788 9.90226 25.1564 9.88306 25.2492 9.47667C25.4572 8.60628 25.9324 7.92629 25.8268 6.86711C25.8204 6.80311 25.8668 6.72471 25.8908 6.65431C25.9148 6.68631 25.9452 6.70871 25.9644 6.74871C26.0492 6.92791 25.9836 7.3199 26.1596 7.3295C26.4444 7.3439 26.622 7.0175 26.75 6.62551C26.8172 6.43031 26.7228 5.86712 27.0572 6.22391C27.0796 6.24791 27.1948 6.02872 27.246 5.89752C27.3964 5.51352 27.5212 5.08793 27.6556 4.69434C27.686 4.60154 27.718 4.42074 27.8028 4.51514C27.8652 4.58714 27.8124 4.72794 27.7948 4.82713C27.7196 5.25273 27.6428 5.67832 27.6492 6.15192C27.6524 6.27831 27.646 6.50231 27.7132 6.49591C28.0828 6.46551 27.902 6.85911 27.8764 7.0527C27.7868 7.71829 28.1004 8.05749 28.3596 8.29109C28.6188 8.52628 28.7548 8.05589 28.8844 7.76949C28.9724 7.5743 28.9804 7.2831 29.142 7.1855C29.2284 7.4815 29.1308 7.71189 29.0924 7.95349C29.0428 8.28629 28.9628 8.60468 28.8972 8.93428C28.8764 9.03668 28.838 9.21427 28.8668 9.25267C29.1692 9.68147 28.87 9.77587 28.7532 9.95026C28.5164 10.2975 28.414 10.8703 28.006 10.9822C27.8716 11.0174 28.0204 11.1582 28.0412 11.2462C28.0668 11.3774 28.2044 11.5214 28.014 11.6046C27.9628 11.627 27.9516 11.7134 27.9852 11.7838C28.0444 11.9022 28.1228 11.8766 28.2012 11.8542C28.606 11.7278 28.6652 11.8206 28.5788 12.4142C28.5372 12.6846 28.6844 12.6958 28.8076 12.6958C29.1308 12.6942 29.3996 12.4958 29.6604 12.2862C29.7036 12.2494 29.766 12.2574 29.8204 12.2414C29.814 12.3198 29.8252 12.4142 29.8028 12.475C29.6412 12.8942 29.4636 13.3054 29.286 13.723C29.2364 13.8414 29.1436 14.0254 29.2396 14.1086C29.6748 14.4814 29.2268 14.483 29.1516 14.555C28.9516 14.7502 28.6428 14.771 28.478 14.9678C28.35 15.1182 28.2044 15.2494 28.0668 15.3998C27.9292 15.5422 27.8012 15.707 27.7116 15.9406C27.622 16.1758 27.2924 16.2334 27.0716 16.3822C27.006 16.427 26.8956 16.547 26.902 16.5614C26.9628 16.6942 27.0508 16.5694 27.1292 16.5854C27.2396 16.6094 27.4108 16.491 27.4412 16.7038C27.4636 16.8574 27.286 16.8638 27.19 16.9246C27.0764 16.9966 26.8636 16.9662 26.8796 17.1742C26.8988 17.4174 27.11 17.339 27.2476 17.363C27.3324 17.379 27.4492 17.3166 27.4812 17.4638C27.4908 17.507 27.3836 17.5934 27.3228 17.6478C27.2284 17.7326 27.1212 17.811 27.1756 17.9886C27.222 18.1374 27.3404 18.1326 27.4444 18.1358C27.8764 18.1502 28.2908 18.0382 28.6988 17.899C28.7836 17.8718 28.9052 17.8254 28.95 17.9534C28.998 18.0958 28.8604 18.1246 28.7916 18.1838C28.5676 18.379 28.3196 18.5501 28.1084 18.7549C27.9292 18.9325 27.7164 19.1293 28.0044 19.4957C28.1692 19.7101 27.926 19.6829 27.8364 19.7021C27.358 19.8013 26.9228 20.0205 26.5228 20.3677C26.3596 20.5085 26.2188 20.6669 26.2588 20.9421C26.286 21.1261 26.1948 21.2093 26.0604 21.2493C26.0236 21.2573 25.9884 21.2653 25.9516 21.2765C25.6668 21.3757 25.4124 21.5405 25.1996 21.7901C25.4284 21.9565 25.6844 21.8685 25.9244 21.8829C27.3132 21.9117 28.71 22.0317 30.1164 22.0221C30.4684 22.0237 30.822 22.0333 31.1756 22.0253C31.5259 22.0061 31.8779 21.9853 32.2299 21.9597C32.9339 21.9069 33.6427 21.8525 34.3355 21.6989C34.6715 21.6317 35.0011 21.5533 35.3259 21.4589C35.4875 21.4125 35.6491 21.3613 35.8075 21.3053C35.8859 21.2781 35.9659 21.2509 36.0427 21.2189L36.2731 21.1117C36.8811 20.8205 37.4523 20.4525 37.9627 19.9885C38.0331 19.9229 38.1259 19.7853 38.2139 19.8813C38.3275 20.0045 38.1963 20.1117 38.1291 20.1949C37.7979 20.6013 37.4187 20.9469 36.9979 21.2317C36.5771 21.5165 36.1179 21.7501 35.6139 21.8765C34.6507 22.1357 33.6699 22.2973 32.6763 22.3309L31.1964 22.4125C30.7036 22.4237 30.2108 22.4317 29.7196 22.4685C29.342 22.4941 28.9628 22.5213 28.5836 22.5389L27.4444 22.5469C27.0652 22.5517 26.6876 22.5581 26.3084 22.5693C25.9292 22.5805 25.5516 22.5645 25.1724 22.5725C25.0892 22.5741 24.9692 22.5357 24.95 22.6685C24.942 22.7309 25.014 22.8237 25.07 22.8765C25.2076 23.0061 25.3516 23.1293 25.5052 23.2381C25.6876 23.3677 25.886 23.4413 26.07 23.5565C26.254 23.6717 26.4252 23.8157 26.5612 24.1117C26.822 24.6781 27.6044 24.6125 28.214 24.5581C28.3404 24.5469 28.5644 24.5405 28.5836 24.5949C28.6508 24.7773 28.4396 24.7885 28.3532 24.8749C28.1084 25.1117 28.1548 25.2989 28.4412 25.4301C28.5724 25.4893 28.7084 25.5405 28.8444 25.5901C28.9804 25.6349 29.118 25.6749 29.254 25.7228C29.3276 25.7468 29.4508 25.8028 29.4508 25.8396C29.446 25.974 29.3164 25.9564 29.2284 25.9676C28.9548 26.006 28.6796 26.0012 28.4076 26.0316C28.1596 26.0604 27.7468 25.9452 27.7116 26.2252C27.6652 26.5804 27.6156 26.998 27.8796 27.3644C28.1916 27.798 28.5564 28.1292 28.9804 28.3532C29.4028 28.5692 29.8828 28.6556 30.422 28.6364C30.5164 28.6332 30.6476 28.5852 30.6844 28.7084C30.7004 28.758 30.6108 28.8476 30.5548 28.9084C30.3644 29.1164 30.5212 29.214 30.6828 29.3084C31.0444 29.5148 31.4555 29.5868 31.8587 29.6892C31.9691 29.7164 32.1531 29.7116 32.1467 29.838C32.1371 30.0108 31.9451 29.9612 31.8187 29.9676C31.5227 29.9884 31.222 29.9772 30.9292 30.014C30.4124 30.0812 30.0476 30.4396 29.9548 30.8716C29.8732 31.2476 30.3196 31.486 30.6348 31.7004C30.782 31.8012 30.9644 31.8508 31.1324 31.9228C31.3163 32.0012 31.5915 32.0172 31.3083 32.3148C31.1964 32.4348 31.3931 32.5724 31.4891 32.6764C31.8027 33.0155 32.1371 33.3419 32.4603 33.6795C32.5307 33.7579 32.6811 33.8811 32.5595 33.9739C32.4507 34.0571 32.3435 33.9019 32.2427 33.8411C31.9515 33.6683 31.6843 33.4491 31.3755 33.3211C31.0428 33.1819 30.9404 33.3131 30.694 33.6459C30.2748 34.1979 30.8492 34.6635 30.6956 34.8907C30.0252 35.8603 30.9356 36.2379 31.3611 36.8091C31.4011 36.8635 31.4107 36.9339 31.4363 36.9979C31.3563 37.0027 31.27 37.0299 31.2028 37.0091C30.8492 36.8987 30.6204 36.6379 30.3244 36.4683C30.1868 36.3883 30.094 36.2011 29.966 36.0859C29.8364 35.9723 29.6732 35.9355 29.3884 36.1387C29.382 36.1387 29.2556 36.0347 29.214 35.9659C29.1004 35.7899 29.0284 35.5899 28.8956 35.4299C28.7276 35.2283 28.486 35.0555 28.198 35.0939C27.9004 35.1355 27.9324 35.4235 27.8492 35.6203C27.8124 35.7115 27.7724 35.8667 27.7196 35.8715C27.5676 35.8875 27.574 35.7323 27.558 35.6475C27.3996 34.7419 26.7612 34.1243 26.1404 33.4779C25.7372 33.0523 25.4684 33.3275 25.1948 33.6315C25.0412 33.8043 24.9516 34.2043 24.7484 34.1243C24.4604 34.0107 24.774 33.7003 24.7628 33.4683C24.7484 33.1131 24.8668 32.7484 24.5276 32.4492C24.3868 32.3228 24.526 32.1436 24.5932 32.0028C24.8908 31.3884 24.9404 30.7388 24.8588 30.0844C24.8044 29.6556 24.6972 29.1916 24.054 29.4908C24.0124 29.5116 23.9485 29.4876 23.8973 29.486C23.9116 29.4188 23.91 29.342 23.9468 29.286C24.15 28.9756 24.27 28.6412 24.326 28.2732C24.3596 28.0348 24.398 27.7436 24.2668 27.5964C23.5293 26.766 23.8189 25.7036 23.6573 24.7485C23.6381 24.6237 23.6045 24.5053 23.5757 24.3837C23.4285 24.4413 23.4221 24.6045 23.3757 24.7293C23.0685 25.5741 22.8813 26.4428 23.0365 27.3628C23.0653 27.5308 23.1661 27.8076 22.7997 27.6092C22.6429 27.5228 22.6333 27.6396 22.6829 27.7596C22.7213 27.8524 22.7789 27.9372 22.8157 28.0316C22.9069 28.2604 23.4317 28.5468 22.6461 28.6028C22.1901 28.6348 22.2029 29.222 22.3197 29.5884C22.4317 29.9404 22.5117 30.2396 22.4077 30.6172C22.3101 30.966 22.5181 31.3244 22.6509 31.6652C22.7101 31.8188 22.8141 32.022 22.4717 31.9084C22.2669 31.8396 22.0173 31.7292 21.8941 31.942C21.7885 32.1244 22.0413 32.2652 22.1533 32.4124C22.2349 32.518 22.3373 32.6092 22.4237 32.7132C22.4493 32.7436 22.4525 32.7916 22.4653 32.8316C22.4237 32.8363 22.3725 32.8572 22.3421 32.8428C22.0845 32.7212 21.8301 32.5948 21.5773 32.4652C21.4669 32.406 21.8205 33.3387 22.0605 33.7163C22.0877 33.7627 22.1277 33.8491 22.1053 33.8715C22.0269 33.9563 21.9693 33.8651 21.9165 33.8235C21.5149 33.5067 20.6845 33.6363 20.8557 33.8971C20.8877 33.9451 20.9325 34.0219 20.9757 34.0267C22.1725 34.1275 21.2333 35.0811 21.6877 35.5147C21.8109 35.6299 21.5293 35.5995 21.4141 35.5371C20.7309 35.1707 20.2701 35.3259 20.1757 36.0267C20.0989 36.6379 19.4093 36.9083 19.3197 37.4859C17.9629 37.5867 17.7917 38.8491 16.8189 39.3531C16.7069 39.4107 16.5837 39.5435 16.4622 39.4427C16.339 39.3387 16.5022 39.2315 16.5758 39.1451C16.9181 38.7483 17.2205 38.3371 17.3725 37.8555C17.4429 37.6411 17.5229 37.4139 17.2925 37.2475C17.0573 37.0763 16.8573 37.2731 16.6541 37.3467C16.5326 37.3931 16.3886 37.4875 16.3038 37.4571C16.1278 37.3883 16.2702 37.2555 16.291 37.1531C16.3246 36.9675 16.4094 36.7675 16.187 36.6267C15.9662 36.4859 15.7438 36.5611 15.5278 36.6475C14.963 36.8779 14.411 37.1259 13.9102 37.4363C13.411 37.7467 12.9598 38.1211 12.6046 38.5835C12.5182 38.6955 12.4014 38.8555 12.2078 38.7851C12.0206 38.7163 12.1214 38.5499 12.139 38.4283C12.171 38.2123 12.1486 38.0123 11.891 37.8859C11.5342 37.7115 11.1726 37.6571 10.8078 37.8091C10.499 37.9339 10.2238 38.2507 9.84464 37.7819C9.71824 37.6299 9.38865 37.7275 9.15665 37.7579C8.16626 37.8859 7.35827 38.3387 6.48309 38.7035C6.35829 38.7579 6.19509 38.9051 6.07669 38.7707C5.95509 38.6347 6.18869 38.5627 6.28629 38.4795C6.64788 38.1707 7.02548 37.8731 7.37107 37.5547C7.59347 37.3467 7.79187 37.1355 7.63987 36.7819C7.52147 36.5035 7.86067 36.4379 8.01267 36.2891C8.23666 36.0763 8.63186 35.9019 8.45746 35.5531C8.25586 35.1515 7.81587 35.3467 7.46547 35.3227C7.22548 35.3067 6.88788 35.5515 6.79028 35.3371C6.70228 35.1323 7.11508 35.0475 7.31988 34.9195C7.70707 34.6891 8.09106 34.4587 8.46546 34.2171C8.92145 33.9163 8.83025 33.3451 9.15505 32.9627C9.29425 32.7948 8.99505 32.638 8.78706 32.5916L7.76627 32.3756C7.42867 32.2956 7.09108 32.2076 6.75188 32.1228C6.59988 32.086 6.34869 32.0956 6.33269 31.9564C6.31189 31.758 6.57109 31.8348 6.70708 31.8124C7.07828 31.7532 7.46707 31.718 7.83347 31.6476C8.20306 31.5708 8.55186 31.4476 8.83825 31.2412C9.62384 30.6684 10.595 30.5052 11.347 29.974C11.803 29.6524 12.019 29.3196 11.9982 29.0188C11.9774 28.718 11.7278 28.4172 11.251 28.1148C11.155 28.054 10.9934 27.9516 11.003 27.8972C11.0382 27.726 11.219 27.8028 11.3358 27.7948C11.5742 27.7772 11.811 27.7548 12.0414 27.7196C12.2734 27.6812 12.5022 27.6204 12.723 27.5484C13.1646 27.3996 13.5742 27.1804 13.9342 26.8428C14.0478 26.7372 14.1438 26.6876 14.3086 26.782C14.5998 26.9468 14.9454 27.0732 15.3214 27.1212C15.6958 27.1676 16.0958 27.1628 16.4846 27.1116C17.2669 27.0012 18.0045 26.726 18.4717 26.2444C18.6765 26.0396 18.7901 25.8268 18.5645 25.5725C18.3501 25.3277 18.5437 25.3005 18.7165 25.2637C19.1069 25.1789 19.5485 25.1469 19.8221 24.8493C20.0397 24.6109 20.2733 24.4093 20.5181 24.2301C20.7645 24.0509 21.0205 23.8973 21.2845 23.7277C21.8109 23.3981 22.3613 23.0893 22.8829 22.6781C22.3917 22.8205 22.0061 22.8701 21.6653 23.0429C21.4589 23.1469 21.2445 23.2349 21.0269 23.3181C20.8093 23.3933 20.5901 23.4653 20.3757 23.5485C19.9437 23.7165 19.5261 23.9309 19.1645 24.3085C19.1293 24.3453 19.0621 24.3885 19.0269 24.3757C18.7421 24.2685 18.5245 24.2333 18.3181 24.2845C18.1117 24.3277 17.9149 24.4605 17.6701 24.7005C17.4941 24.8749 17.3453 24.9677 17.0797 24.9725C16.6765 24.9805 16.4926 25.4125 16.2398 25.6924C16.0286 25.926 15.851 26.1916 15.643 26.4316C15.5934 26.486 15.4638 26.5468 15.427 26.5212C15.339 26.4588 15.4334 26.374 15.4638 26.2988C15.5614 26.0732 15.675 25.8524 15.7486 25.6189C15.8158 25.3933 15.8414 25.1469 15.6254 24.9901C15.411 24.8317 15.179 24.8653 14.9726 25.0125C14.7262 25.1869 14.5246 25.2973 14.1742 25.2173C13.843 25.1421 13.579 25.5325 13.3678 25.8316C13.251 25.9948 13.1582 26.2172 12.9294 25.942C12.7966 25.782 12.6302 25.8956 12.5198 26.006C12.291 26.238 12.0814 26.494 11.8574 26.734C11.8126 26.7836 11.739 26.8652 11.7038 26.854C11.6046 26.822 11.6942 26.7372 11.6878 26.6764C11.6542 26.4028 11.5054 26.5996 11.4526 26.6428C11.0862 26.9468 10.7182 27.254 10.3518 27.558C10.2654 27.6268 10.1726 27.7676 10.0542 27.67C9.95664 27.59 10.0798 27.4908 10.1166 27.4028C10.195 27.2236 10.4574 27.0348 10.3102 26.8732C10.1486 26.6924 9.89904 26.902 9.71984 26.9948C9.23025 27.2524 8.74706 27.478 8.25106 27.7148C7.75667 27.95 7.25588 28.182 6.74548 28.406C6.62389 28.4588 6.42869 28.5948 6.34389 28.4412C6.27509 28.3212 6.51509 28.2892 6.60948 28.2076C6.90868 27.9484 7.23828 27.7148 7.49427 27.422C7.64787 27.2476 7.91827 27.0012 7.50867 26.75C7.35187 26.654 7.54867 26.5628 7.60627 26.4812C7.85427 26.1292 8.10866 25.774 7.40787 25.6621C7.23348 25.6349 7.23988 25.5469 7.30708 25.4173C7.53907 24.9757 7.28788 24.8861 6.92308 24.8733C6.83668 24.8669 6.75348 24.8781 6.66708 24.8829C6.33269 24.9037 5.5087 25.4989 6.10389 24.3869C6.19989 24.2077 6.08789 23.8477 5.7135 24.0141C5.4831 24.1149 5.4447 23.8461 5.2319 23.8173C4.76631 23.7581 4.35672 23.9261 3.92792 23.9325C3.90072 23.9341 3.85592 23.9277 3.84792 23.9133C3.38873 22.9965 2.52154 23.3709 1.79675 23.2349C1.68635 23.2157 1.51995 23.2477 1.51195 23.1037C1.50235 22.9581 1.67835 22.9677 1.77915 22.9453C2.54074 22.7613 2.90874 22.0877 3.39673 21.5965C3.73112 21.2589 3.44633 20.9261 3.09433 20.7741C2.91833 20.7005 2.78714 20.6285 2.75674 20.5405C2.72794 20.4525 2.80154 20.3517 3.03993 20.2109C3.28793 20.0621 3.47993 19.8013 3.37753 19.4829C3.28153 19.1773 2.99673 19.2237 2.75674 19.2413C2.50074 19.2605 2.33274 19.2365 2.19034 18.9517C2.01115 18.5917 1.57275 18.6413 1.21916 18.5693C1.03996 18.5389 0.745564 18.6477 0.724765 18.4333C0.708765 18.2574 1.01436 18.291 1.16476 18.2078C1.25116 18.163 1.35036 18.1294 1.43035 18.0718C1.63355 17.9262 1.90715 17.8126 1.86235 17.491C1.81595 17.1694 1.57275 17.051 1.30236 17.0302C1.04796 17.0142 0.966361 16.9838 0.999961 16.6478C1.05276 16.1086 0.617566 15.835 0.35197 15.4782C0.255971 15.3486 0.0127741 15.2286 0.105573 15.0798C0.238371 14.875 0.435168 15.0782 0.596766 15.107C1.15516 15.2094 1.67675 15.5966 2.29274 15.0654C2.43994 14.939 2.45594 15.1566 2.50714 15.2478C2.57594 15.3614 2.64794 15.4798 2.74394 15.5502C2.84154 15.6174 2.95833 15.643 3.10873 15.587C3.42713 15.4654 3.44793 15.147 3.46553 14.8702C3.48153 14.6206 3.46073 14.3806 3.46233 14.1342C3.46233 14.0558 3.43033 13.9486 3.52153 13.9166C3.56633 13.9022 3.63512 13.9806 3.67672 14.0318C3.83832 14.243 3.98232 14.475 4.15992 14.675C4.25432 14.779 4.44791 14.9262 4.51511 14.8798C4.99191 14.555 4.97111 15.0046 5.09911 15.2414C5.1855 15.3982 5.2687 15.5742 5.4911 15.499C5.7647 15.3998 5.8287 15.1246 5.8383 14.9086C5.86549 14.411 5.96469 14.2686 6.38389 14.483C6.76148 14.6782 7.04948 14.3422 7.15188 13.819C7.30388 13.0686 7.49747 12.3342 7.29748 11.659C7.28948 11.6286 7.33588 11.5662 7.35507 11.5198C7.39667 11.5502 7.45747 11.5598 7.48307 11.603C7.65427 11.8734 7.80627 12.1694 7.99667 12.4286C8.18706 12.6862 8.34546 13.0158 8.79185 12.7902C9.00305 12.683 8.93905 13.0702 9.01905 13.2142C9.05905 13.283 9.09105 13.4206 9.13425 13.4142C9.24145 13.3982 9.21585 13.2622 9.24625 13.1726C9.26545 13.1134 9.30545 13.059 9.33585 13.0046C9.35825 13.0558 9.39185 13.1022 9.39985 13.1614C9.42385 13.3406 9.34865 13.5598 9.45745 13.7086C9.56144 13.5166 9.48465 14.371 9.67504 13.7134C9.69744 13.6382 9.74544 13.6638 9.78544 13.6926C10.123 13.9358 10.2782 13.8398 10.4542 13.2974C10.5006 13.1502 10.4814 12.915 10.6126 12.8798C10.7582 12.8398 10.7166 13.0958 10.7694 13.2126C10.8766 13.435 10.971 13.6942 11.2302 13.6766C11.4638 13.6574 11.5294 13.403 11.603 13.1822C11.6702 12.9838 11.739 13.0222 11.8286 13.107C12.1006 13.3598 12.267 13.1198 12.3406 12.771C12.4414 12.299 12.419 11.8478 12.3358 11.4238C12.3166 11.3198 12.2462 11.1726 12.3662 11.0926C12.4734 11.0206 12.5086 11.195 12.5406 11.2894C12.7838 12.0254 13.0382 12.779 13.3214 13.5342C13.4014 13.7534 13.5022 13.9422 13.6078 14.1358C13.6654 14.2414 13.731 14.371 13.8654 14.315C13.9902 14.2622 13.971 14.1006 14.0094 13.9806C14.0382 13.8926 14.0206 13.7454 14.123 13.7406C14.1678 13.739 14.227 13.8606 14.2366 13.9438C14.2942 14.4174 14.4526 14.8558 14.4174 15.371C14.4078 15.4942 14.435 15.6574 14.5342 15.6078C14.971 15.3886 14.6814 15.803 14.6654 15.8942C14.603 16.2174 14.5022 16.5358 14.427 16.8606C14.411 16.9294 14.4286 17.0638 14.4638 17.0798C14.5566 17.1198 14.5582 16.9886 14.595 16.9198C14.6686 16.7822 14.7278 16.6206 14.827 16.523C14.9822 16.3694 15.1726 16.1646 15.3342 16.1534C15.4622 16.1438 15.3598 16.483 15.4222 16.6382C15.5582 16.9822 15.4382 17.6382 16.0542 17.4398C16.179 17.3998 16.1918 17.5966 16.227 17.707C16.331 18.0286 16.4606 18.3902 16.7933 18.3278C17.1645 18.2398 17.1053 17.787 17.1805 17.4622C17.1901 17.4206 17.1853 17.3758 17.1917 17.3326C17.2333 17.1038 17.0701 16.731 17.2477 16.6846C17.4157 16.6398 17.4157 17.0686 17.4781 17.3006C17.5837 17.6958 17.6653 18.1086 17.7997 18.4973C17.8669 18.6909 17.9357 18.8813 18.2301 18.8541C18.4957 18.8301 18.4429 19.3069 18.5501 19.5501C18.5741 19.5997 18.5037 19.7949 18.6173 19.6909C19.0573 19.2893 18.9757 19.8013 18.9581 19.9869C18.9133 20.4125 19.2141 20.5741 19.3725 20.8205C19.5245 21.0589 19.6109 20.7149 19.6509 20.5981C19.7901 20.1821 19.9165 20.1837 20.2013 20.4413C20.4141 20.6317 20.6413 20.7933 20.8781 20.9325C20.9965 21.0013 21.1181 21.0685 21.2413 21.1261C21.3645 21.1805 21.4909 21.2301 21.6173 21.2765C22.1245 21.4653 22.6557 21.6061 23.1805 21.7757C22.5901 21.4381 22.0685 20.9997 21.5613 20.5693C21.3053 20.3597 21.0557 20.1245 20.8013 19.9117C20.5469 19.6973 20.2877 19.4973 20.0157 19.3229C19.8013 19.1853 19.9725 18.8765 19.7965 18.6957C19.4925 18.3806 19.1341 18.2718 18.7677 18.1342C18.5869 18.0734 18.5485 18.003 18.7277 17.843C19.0157 17.587 18.9373 17.2974 18.7965 17.0094C18.5485 16.5038 18.0477 16.0542 17.4973 15.7758C17.3581 15.7086 17.2189 15.6414 17.0781 15.5854C16.9389 15.5294 16.7981 15.4846 16.6589 15.4558C16.3822 15.395 16.1134 15.3918 15.875 15.459C15.635 15.5262 15.547 15.4558 15.4558 15.1998C15.299 14.7614 15.0862 14.3838 14.8286 14.0846C14.5726 13.7806 14.2718 13.5438 13.947 13.3438C13.8686 13.2942 13.7246 13.275 13.763 13.131C13.803 12.9758 13.9374 13.0462 14.0302 13.0286C14.1838 12.9982 14.3358 12.9934 14.4878 12.9486C15.131 12.7662 15.3934 12.2478 15.2974 11.4606C15.2862 11.3518 15.283 11.2318 15.2462 11.1454C14.9742 10.5151 14.8094 9.82067 14.6366 9.13427C14.467 8.44148 14.2814 7.78549 13.9518 7.2815C13.907 7.2127 13.7918 7.1455 13.8814 7.0079C13.979 6.86071 14.0606 6.9839 14.1214 7.0479C14.4222 7.3647 14.8446 7.3791 15.1886 7.5999C15.3502 7.69589 15.619 7.5679 15.6126 7.2255C15.6046 6.44631 15.9374 5.58072 15.7678 4.83993C15.707 4.56474 15.643 4.26074 15.7246 3.88635C15.9342 3.89115 15.9134 4.28794 16.075 4.38394C16.1854 4.45754 16.3038 4.58074 16.451 4.38074C16.6077 4.16314 16.5805 3.90395 16.6157 3.65595C16.7629 2.58396 16.8829 1.50878 16.9005 0.507193C16.9021 0.454393 16.9437 0.329595 16.9597 0.321595C17.0317 0.284796 17.0237 0.406394 17.0301 0.481593Z" fill="#EA540A"/>
</g>
</svg>
