<svg width="32" height="33" viewBox="0 0 32 33" fill="none" xmlns="http://www.w3.org/2000/svg">
<mask id="mask0_2025_360" style="mask-type:luminance" maskUnits="userSpaceOnUse" x="0" y="0" width="32" height="33">
<path d="M0 0H32V32.9406H0V0Z" fill="white"/>
</mask>
<g mask="url(#mask0_2025_360)">
<path d="M1.03467 18.198C0.986405 18.1906 0.952989 18.1733 0.929475 18.1857C0.695564 18.3045 0.513633 18.651 0.276009 18.5693C0.164623 18.5297 0.200514 18.1572 0.212891 17.9295C0.235168 17.4456 0.303237 16.9592 0.465366 16.4926C0.633683 16.0334 0.889871 15.5854 1.26982 15.1609C1.37007 15.0483 1.46784 14.9332 1.5619 14.8168C1.57923 14.7946 1.56933 14.7537 1.57304 14.6869C1.17947 14.9456 0.719079 14.9889 0.361405 15.3144C0.315613 15.3565 0.205465 15.4035 0.176999 15.3862C0.0903656 15.3317 0.10893 15.2339 0.133683 15.1238C0.276009 14.4592 0.540861 13.8379 0.950514 13.2673C1.36759 12.7116 1.94061 12.2216 2.67329 11.7896C2.08046 11.7871 2.177 11.5198 2.39482 11.1968C2.59532 10.8911 2.81809 10.6139 3.05571 10.3466C3.29334 10.0805 3.54829 9.83046 3.82551 9.60398C4.10398 9.3812 4.39977 9.16957 4.73145 9.00868C5.06314 8.84903 5.42205 8.72155 5.81066 8.63368C5.97774 8.59655 6.20299 8.60274 6.08294 8.31932C6.0223 8.18195 6.33789 8.00744 6.5322 7.89234C6.75744 7.75497 6.99383 7.64853 7.23145 7.56066C7.47032 7.47031 7.71042 7.39729 7.95299 7.33541C8.43814 7.21289 8.92947 7.13616 9.42205 7.07675C10.3107 6.99878 11.1745 6.88368 12.026 6.43566C13.1065 5.90967 13.427 5.13492 13.6572 4.24878C13.7475 3.89358 13.875 3.55571 14.0297 3.22279C14.1844 2.88863 14.3676 2.55819 14.5693 2.23269C14.7723 1.90596 14.9951 1.58294 15.2315 1.26116C15.4666 0.939373 15.7141 0.617591 15.974 0.314373C16.1077 0.153482 16.2117 0.153482 16.3812 0.236403C16.5755 0.329225 16.6881 0.424522 16.4938 0.612641C16.2302 0.866353 16 1.12749 15.7921 1.40472C15.5854 1.68566 15.3973 1.97155 15.2104 2.25497C14.8985 2.72898 14.6374 3.20918 14.4307 3.69556C14.224 4.18319 14.0669 4.66833 13.9716 5.17947C13.7723 6.20918 13.7537 7.21165 13.9357 8.19309C13.9852 8.45546 14.0891 8.56932 14.3849 8.65348C14.6795 8.74012 14.9654 8.78838 15.2451 8.802C15.5248 8.81437 15.8057 8.81314 16.0817 8.77106C16.6337 8.69061 17.1795 8.48888 17.7414 8.19556C18.1819 7.98517 18.5916 7.73393 19.0062 7.48393C19.2141 7.36017 19.4233 7.2364 19.6374 7.12007C19.7451 7.0619 19.854 7.00373 19.9641 6.95051C20.0768 6.90101 20.1906 6.85398 20.3069 6.81066C21.0681 6.52724 21.8169 6.36759 22.5396 6.39482C23.2649 6.43319 23.9592 6.63121 24.6027 7.00868C25.0161 7.25373 24.9876 7.34036 24.5545 7.68937C24.9295 7.77972 25.3045 7.87502 25.6671 7.98393C26.0285 8.09408 26.3775 8.22031 26.7005 8.39853C26.9431 8.53467 27.1795 8.677 27.4121 8.82304L28.1077 9.2822C28.5718 9.58541 29.0421 9.87007 29.5569 10.0879C29.6609 10.1324 29.7884 10.203 29.7562 10.323C29.7315 10.4134 29.5928 10.4196 29.5037 10.4641C29.1671 10.6238 28.8181 10.7178 28.4443 10.7735C28.0706 10.8342 27.6683 10.8391 27.2339 10.8824C27.7079 11.1448 28.1027 11.4716 28.4171 11.8107C28.7302 12.1547 28.9654 12.531 29.1263 12.9567C29.2302 13.2265 29.651 13.5767 29.0211 13.7958C28.9307 13.8255 29.005 13.9369 29.0545 13.9889C29.4121 14.3713 29.7253 14.7772 30.0656 15.1708C30.4047 15.5668 30.7698 15.9295 31.2277 16.1881C31.4468 16.3107 31.6708 16.4183 31.8899 16.5322C31.3911 16.6819 31.0396 16.6572 30.1151 16.3391C29.5297 16.1535 28.9505 15.948 28.3379 15.7451C28.3589 16.0062 28.6485 15.9542 28.7092 16.198C28.4716 16.2042 28.2364 16.203 28.005 16.1894C27.7748 16.1881 27.5458 16.1745 27.3193 16.1448C26.8676 16.0866 26.4233 15.9629 25.9815 15.7414C25.625 15.578 25.2673 15.4183 24.9567 15.1634C24.906 15.1213 24.8565 15.0854 24.7946 15.1201C24.7092 15.1683 24.7141 15.2463 24.7513 15.3218C24.9196 15.6609 24.8057 16.0211 24.8775 16.479C24.6114 16.2488 24.3193 16.0706 24.0161 15.9196C23.7154 15.7797 23.4022 15.6683 23.0891 15.5569C22.776 15.4456 22.4629 15.3354 22.1584 15.2005C22.0074 15.1337 21.8565 15.0557 21.7117 14.9765C21.5669 14.8985 21.427 14.8107 21.2909 14.7104C21.0594 14.5384 20.7797 14.4245 20.5718 14.1077C20.4753 14.5755 20.7401 14.9109 20.7203 15.3874C20.5112 15.1869 20.276 15.026 20.0297 14.8837C19.7834 14.7426 19.5248 14.6139 19.2748 14.4975C18.7723 14.2574 18.2822 13.9963 17.9245 13.5248C17.6213 14.0433 17.4518 14.0829 17.0433 13.6485C16.5669 13.1436 16.0941 12.6362 15.8763 11.9406C15.6609 11.2525 15.547 10.5149 15.0074 9.94927C14.7983 9.73022 14.5124 9.60026 14.2587 9.26982C14.2364 9.66338 14.2822 9.91957 14.3626 10.1733C14.8973 11.8676 15.6225 13.4815 16.448 15.0557C16.7624 15.6535 17.2822 16.0916 17.8886 16.3527C18.5037 16.6324 19.2117 16.7438 19.9258 16.6485C20.5953 16.5755 21.2698 16.5631 21.9196 16.6287C22.0013 16.6374 22.0829 16.6461 22.1634 16.6597C22.2451 16.6745 22.3268 16.6918 22.4072 16.7104C22.5681 16.7463 22.7277 16.7896 22.8862 16.8404C23.2018 16.9418 23.5087 17.073 23.8045 17.2401C23.9319 17.3107 24.1287 17.3465 24.1324 17.5112C24.1374 17.7067 23.8713 17.5978 23.781 17.7847C24.4901 18.0668 25.0495 18.6052 25.4456 19.2834C25.8008 19.8936 26.0842 20.5285 26.1225 21.2686C26.1324 21.4691 26.1337 21.5607 25.922 21.4753C25.6003 21.3453 25.2797 21.1758 24.9307 21.1374C25.5013 22.2513 25.8849 23.4109 25.8466 24.6943C25.8367 25.0124 25.8404 25.3354 25.8503 25.6522C25.8552 25.8317 25.828 25.906 25.7785 25.922C25.7302 25.9406 25.6609 25.9022 25.5842 25.854C25.3527 25.7042 25.125 25.5223 24.8527 25.3267C24.9703 26.3342 24.9617 27.2896 24.8874 28.2203C24.8602 28.5446 24.8416 28.8775 24.8292 29.2129C24.8156 29.5458 24.8057 29.8787 24.7995 30.2104C24.7822 31.1844 25.1498 31.9728 25.5062 32.7859C25.5297 32.8367 25.578 32.8725 25.5607 32.9456C25.3453 32.8354 25.0768 32.6374 24.7797 32.3886C24.6312 32.2661 24.4753 32.125 24.3169 31.9839C24.1597 31.8478 24 31.7017 23.8404 31.5532C23.2055 30.9542 22.5755 30.2859 22.2958 29.8107C22.2438 30.0013 22.3527 30.1956 22.3713 30.3824C22.3787 30.4666 22.3626 30.5656 22.328 30.6188C22.2772 30.6931 22.2018 30.5928 22.1522 30.5384C21.6498 29.9802 21.0508 29.5767 20.5532 28.9233C20.2327 28.5025 19.906 28.0916 19.6374 27.5297C19.5768 28.0136 19.5916 28.4777 19.3552 28.8119C19.0619 28.1683 18.6597 27.6597 18.2513 27.1572C17.8416 26.6522 17.4951 26.1126 17.1881 25.4728C17.1176 25.6077 17.0644 25.6968 17.0198 25.7921C16.8354 26.1881 16.7772 26.1832 16.453 25.8342C16.0928 25.4456 15.7216 25.0631 15.4369 24.6027C15.0768 24.0211 14.9456 23.3936 15.0446 22.7389C14.7995 22.6993 14.8503 23.0706 14.6659 22.9666C14.5594 22.9097 14.5149 22.7104 14.4369 22.578C13.9295 21.7116 14.104 20.8626 14.3973 20.0161C14.6609 19.2315 15.0656 18.5285 15.3936 17.7574C15.8589 16.6411 16.0173 15.5433 15.5532 14.4332C14.9419 12.9691 14.2537 11.5347 13.828 9.96413C13.5619 10.6621 13.4282 11.3602 13.4443 12.0248C13.4617 12.6906 13.63 13.3292 13.9728 13.948C14.2475 14.4468 14.2513 15.0235 14.3045 15.5792C14.3156 15.6894 14.448 15.8936 14.1411 15.9084C14.0272 15.9146 14.0817 16.0285 14.1077 16.0966C14.3565 16.7723 14.3032 17.4542 14.1745 18.1423C14.1609 18.2191 14.151 18.3602 14.1337 18.3614C13.5532 18.406 13.8181 18.849 13.8515 19.0767C13.9183 19.5458 13.8837 19.9839 13.7896 20.4022C13.6968 20.823 13.5384 21.2104 13.375 21.6238C13.2834 21.8366 13.1919 22.0495 13.0656 22.3441L12.5904 21.4406C12.5508 22.9777 11.7983 24.0941 11.2067 25.2686C11.0322 25.1312 11.1906 24.922 11.0136 24.7859C10.8094 25.2624 10.7587 25.828 10.4456 26.1857C10.375 26.2661 10.3107 26.3503 10.2525 26.4381C10.1956 26.5285 10.1473 26.625 10.1003 26.7215C10.0074 26.9146 9.92947 27.1151 9.85027 27.3144C9.7723 27.5124 9.69433 27.7079 9.6015 27.8936C9.51116 28.0792 9.39977 28.2475 9.27353 28.4146C9.01239 28.7438 8.71537 29.0025 8.13492 28.974C8.55819 28.6263 8.70918 28.2079 8.73641 27.75C8.74383 27.6362 8.74259 27.5198 8.73641 27.401C8.73269 27.2859 8.72279 27.1683 8.70918 27.0495C8.68319 26.8119 8.64235 26.5706 8.60645 26.328C8.52725 25.797 8.42081 25.2636 8.4072 24.6807C8.1473 24.7748 7.92576 24.854 7.64977 24.9542C7.8218 24.4035 7.77601 23.8354 7.75002 23.2587C7.74383 23.1151 7.73888 22.9691 7.74012 22.8255C7.74259 22.6832 7.75002 22.5396 7.76735 22.3973C7.80076 22.1114 7.87254 21.823 8.0124 21.5359C7.6374 21.6498 7.32056 21.8329 7.01735 22.0272C6.71784 22.2277 6.42081 22.422 6.05695 22.5359C6.21165 22.052 6.35769 21.5891 6.52477 21.13C6.79086 20.4592 6.98641 19.7389 7.53096 19.1671C7.55819 19.1374 7.56933 19.0668 7.55447 19.0334C7.52848 18.9753 7.4666 18.9555 7.39482 18.9864C7.09408 19.1151 6.53962 19.2562 6.50497 19.1436C6.38368 18.7599 6.5322 18.3131 6.74259 17.9134C6.77972 17.8428 6.81933 17.7711 6.86141 17.7017L6.99259 17.5013L7.26735 17.1003C7.27725 17.0953 7.28715 17.0916 7.29829 17.0866C7.29457 17.0829 7.28839 17.0792 7.28715 17.0767C7.552 16.8948 7.80571 16.6931 8.07304 16.5124C8.20794 16.4233 8.34408 16.3379 8.48764 16.2636C8.63121 16.1894 8.78591 16.1349 8.9468 16.0916C9.23145 16.0161 9.21413 15.7995 9.14482 15.6287C9.02477 15.3329 8.95546 15.0198 8.87007 14.625C8.65225 15.0693 8.42824 15.4691 8.177 15.849C7.92824 16.2339 7.64358 16.578 7.28839 16.8824C7.22279 16.9369 7.22155 17.0198 7.28715 17.0767C7.28467 17.0792 7.2822 17.0805 7.27972 17.0817L7.26735 17.1003C7.07799 17.1857 6.90225 17.2871 6.73393 17.3998C6.56809 17.5161 6.41462 17.6498 6.2624 17.7834C5.95794 18.052 5.66834 18.3342 5.35027 18.5805C5.25868 18.651 5.16957 18.729 5.02848 18.8465C4.94061 18.3478 5.16834 17.88 5.0619 17.3045C4.91215 17.6547 4.74631 17.9777 4.56066 18.276C4.38121 18.5854 4.18319 18.8701 3.96042 19.1312C3.73888 19.3923 3.49259 19.63 3.21908 19.8465C3.0817 19.9517 2.94185 20.0619 2.79705 20.1671C2.65101 20.2711 2.49754 20.3713 2.33665 20.4654C2.28096 20.1807 2.71537 19.9753 2.49383 19.6374C2.2265 19.9753 2.00373 20.3218 1.81314 20.6758C1.71784 20.8527 1.63121 21.031 1.55076 21.2104C1.46908 21.3886 1.39606 21.5693 1.33294 21.7587C1.07551 22.5062 0.898534 23.2587 0.696801 23.9889C0.617593 23.0569 0.542099 22.1065 0.559425 21.1324C0.564376 20.8899 0.570564 20.6411 0.594079 20.401C0.616356 20.1609 0.646059 19.9183 0.684425 19.6758C0.761158 19.1881 0.873781 18.6968 1.03344 18.198H1.03467ZM13.0483 10.4889C13.1287 10.3069 13.1919 10.125 13.2401 9.94556C13.2896 9.76734 13.3268 9.59408 13.3503 9.41833C13.3985 9.06809 13.401 8.71784 13.38 8.36512C13.3404 7.65967 13.2079 6.94185 13.2005 6.177C12.9753 6.71041 12.8045 7.10026 12.7673 7.51734C12.7228 8.02477 12.8082 8.50992 12.8948 8.9963C12.9827 9.48517 13.073 9.97526 13.0483 10.4889ZM9.40967 15.7859C9.62626 15.8008 9.65967 15.6522 9.74259 15.5532C9.94433 15.3156 10.1052 15.052 10.2748 14.7909C10.448 14.5371 10.6337 14.2921 10.875 14.0767C11.1411 13.8416 11.4134 13.604 11.6659 13.3503C11.7921 13.224 11.9121 13.0904 12.0272 12.9555C12.1423 12.8243 12.25 12.6857 12.3466 12.5384C12.5297 12.2574 12.7748 11.9666 12.7315 11.5099C12.4468 11.979 12.1943 12.4146 11.802 12.5631C11.3367 12.7612 11.2067 13.0953 10.9728 13.4097C10.6881 13.7909 10.3936 14.1597 10.1238 14.547C9.85769 14.9443 9.61017 15.3515 9.40967 15.7859Z" fill="#DAA41A"/>
</g>
</svg>
