<svg width="21" height="22" viewBox="0 0 21 22" fill="none" xmlns="http://www.w3.org/2000/svg">
<g clip-path="url(#clip0_2025_475)">
<path d="M10.5 6.512C10.1753 6.512 9.86378 6.37684 9.63413 6.13625C9.40448 5.89567 9.27547 5.56936 9.27547 5.22912V1.38187C9.27547 1.04163 9.40448 0.71533 9.63413 0.474744C9.86378 0.234159 10.1753 0.098999 10.5 0.098999C10.8248 0.098999 11.1363 0.234159 11.3659 0.474744C11.5956 0.71533 11.7246 1.04163 11.7246 1.38187V5.22912C11.7246 5.56936 11.5956 5.89567 11.3659 6.13625C11.1363 6.37684 10.8248 6.512 10.5 6.512ZM10.5 21.4184C10.2971 21.4184 10.1025 21.3339 9.95896 21.1836C9.81546 21.0333 9.73484 20.8294 9.73484 20.6168V16.7695C9.73484 16.5569 9.81546 16.353 9.95896 16.2027C10.1025 16.0523 10.2971 15.9679 10.5 15.9679C10.703 15.9679 10.8976 16.0523 11.0411 16.2027C11.1846 16.353 11.2652 16.5569 11.2652 16.7695V20.6168C11.2652 20.8294 11.1846 21.0333 11.0411 21.1836C10.8976 21.3339 10.703 21.4184 10.5 21.4184ZM7.74641 7.205C7.54496 7.20443 7.34716 7.14868 7.17263 7.04327C6.99811 6.93787 6.85294 6.78647 6.75153 6.60412L4.91534 3.2725C4.76323 2.99644 4.72202 2.66838 4.80078 2.3605C4.87955 2.05261 5.07183 1.79011 5.33534 1.63075C5.59885 1.47139 5.912 1.42822 6.20589 1.51073C6.49978 1.59325 6.75035 1.79469 6.90247 2.07075L8.73866 5.40237C8.83929 5.58497 8.89229 5.79209 8.89234 6.00294C8.89239 6.21378 8.83949 6.42093 8.73895 6.60359C8.63841 6.78624 8.49377 6.93796 8.31955 7.04353C8.14533 7.14909 7.94767 7.20478 7.74641 7.205ZM15.0912 20.0502C14.9703 20.0497 14.8517 20.0162 14.747 19.953C14.6423 19.8899 14.5551 19.7992 14.494 19.69L12.6578 16.3584C12.61 16.2762 12.5784 16.1849 12.5648 16.0897C12.5512 15.9946 12.556 15.8975 12.5787 15.8043C12.6014 15.7111 12.6417 15.6236 12.6972 15.5469C12.7526 15.4702 12.8222 15.4059 12.9017 15.3578C12.9812 15.3097 13.0691 15.2787 13.1602 15.2667C13.2513 15.2547 13.3438 15.2619 13.4323 15.2878C13.5207 15.3138 13.6033 15.358 13.6752 15.4179C13.747 15.4778 13.8068 15.5521 13.8508 15.6365L15.687 18.9681C15.7473 19.0778 15.779 19.2021 15.779 19.3286C15.7789 19.4552 15.7471 19.5795 15.6868 19.6891C15.6264 19.7987 15.5396 19.8898 15.4351 19.9531C15.3305 20.0165 15.2119 20.05 15.0912 20.0502ZM5.72909 9.23725C5.54145 9.23819 5.35699 9.18644 5.19491 9.08737L2.01472 7.16375C1.78116 7.0085 1.6139 6.76472 1.54788 6.48332C1.48186 6.20192 1.52219 5.90468 1.66045 5.6537C1.7987 5.40272 2.02418 5.21741 2.28978 5.1365C2.55538 5.05559 2.84055 5.08532 3.08572 5.2195L6.26591 7.14312C6.46929 7.2672 6.62805 7.45794 6.71772 7.6859C6.80738 7.91387 6.82296 8.16641 6.76206 8.40458C6.70116 8.64274 6.56715 8.8533 6.38071 9.00378C6.19428 9.15426 5.96576 9.2363 5.73041 9.23725H5.72909ZM18.4498 16.4505C18.3424 16.4507 18.2368 16.4208 18.144 16.3639L14.9638 14.4402C14.832 14.3508 14.738 14.2117 14.7012 14.0517C14.6645 13.8918 14.6877 13.7231 14.7662 13.5805C14.8446 13.438 14.9724 13.3325 15.1229 13.2857C15.2735 13.2389 15.4355 13.2545 15.5755 13.3293L18.7557 15.2529C18.8715 15.3239 18.9619 15.4329 19.0129 15.563C19.064 15.6932 19.0728 15.8372 19.038 15.9731C19.0033 16.109 18.9269 16.2292 18.8207 16.3152C18.7144 16.4012 18.5841 16.4496 18.4498 16.4505ZM4.99147 12.0422H1.31909C1.05524 12.0423 0.802186 11.9324 0.615611 11.737C0.429036 11.5415 0.324219 11.2764 0.324219 11C0.324219 10.7236 0.429036 10.4585 0.615611 10.263C0.802186 10.0676 1.05524 9.95775 1.31909 9.95775H4.99147C5.25533 9.95775 5.50838 10.0676 5.69495 10.263C5.88153 10.4585 5.98634 10.7236 5.98634 11C5.98634 11.2764 5.88153 11.5415 5.69495 11.737C5.50838 11.9324 5.25533 12.0422 4.99147 12.0422ZM19.681 11.6407H16.0086C15.8464 11.6407 15.6908 11.5732 15.5761 11.4531C15.4614 11.3329 15.397 11.1699 15.397 11C15.397 10.8301 15.4614 10.6671 15.5761 10.5469C15.6908 10.4268 15.8464 10.3592 16.0086 10.3592H19.681C19.8432 10.3592 19.9988 10.4268 20.1135 10.5469C20.2282 10.6671 20.2926 10.8301 20.2926 11C20.2926 11.1699 20.2282 11.3329 20.1135 11.4531C19.9988 11.5732 19.8432 11.6407 19.681 11.6407ZM2.55022 16.7709C2.34737 16.7725 2.14974 16.7036 1.98831 16.5749C1.82688 16.4462 1.71079 16.265 1.65824 16.0598C1.60569 15.8545 1.61966 15.6368 1.69795 15.4407C1.77624 15.2447 1.91443 15.0814 2.09084 14.9765L5.27103 13.0529C5.4818 12.9254 5.73227 12.8909 5.96734 12.9569C6.08373 12.9896 6.19284 13.046 6.28843 13.1228C6.38402 13.1997 6.46423 13.2955 6.52447 13.4049C6.58471 13.5142 6.6238 13.6349 6.63952 13.7601C6.65523 13.8852 6.64726 14.0124 6.61606 14.1343C6.58486 14.2563 6.53104 14.3706 6.45768 14.4707C6.38431 14.5709 6.29283 14.6549 6.18847 14.718L3.00828 16.6416C2.86903 16.726 2.71107 16.7705 2.55022 16.7709ZM15.271 8.756C15.1361 8.75623 15.005 8.70978 14.898 8.62388C14.791 8.53798 14.7141 8.41744 14.6792 8.28101C14.6443 8.14458 14.6534 7.99989 14.7051 7.86946C14.7569 7.73902 14.8483 7.63014 14.9652 7.55975L18.1453 5.63612C18.215 5.59405 18.2918 5.56676 18.3715 5.55581C18.4512 5.54485 18.5322 5.55045 18.6099 5.57229C18.6875 5.59412 18.7603 5.63176 18.824 5.68306C18.8878 5.73435 18.9412 5.7983 18.9814 5.87125C19.0216 5.9442 19.0476 6.02472 19.0581 6.10822C19.0685 6.19171 19.0632 6.27655 19.0423 6.35788C19.0215 6.43921 18.9856 6.51545 18.9366 6.58224C18.8876 6.64902 18.8266 6.70505 18.757 6.74712L15.5768 8.67075C15.4831 8.72535 15.3781 8.75372 15.271 8.756ZM5.90891 20.2111C5.76099 20.2116 5.61557 20.1711 5.48737 20.0938C5.35917 20.0165 5.25273 19.9051 5.17881 19.7709C5.10489 19.6367 5.06612 19.4844 5.06641 19.3294C5.0667 19.1744 5.10605 19.0223 5.18047 18.8884L7.01666 15.5567C7.0719 15.4564 7.14546 15.3685 7.23313 15.298C7.32081 15.2275 7.42089 15.1757 7.52765 15.1457C7.63442 15.1157 7.74578 15.108 7.85537 15.1231C7.96497 15.1382 8.07066 15.1758 8.16641 15.2336C8.26215 15.2915 8.34608 15.3686 8.4134 15.4604C8.48071 15.5523 8.5301 15.6571 8.55875 15.769C8.58739 15.8808 8.59472 15.9975 8.58032 16.1123C8.56593 16.2271 8.53008 16.3378 8.47484 16.4381L6.63866 19.7698C6.5649 19.9041 6.45858 20.0157 6.33043 20.0932C6.20229 20.1707 6.05687 20.2114 5.90891 20.2111ZM13.2537 6.644C13.1462 6.64382 13.0407 6.61406 12.9477 6.5577C12.8547 6.50133 12.7774 6.42034 12.7237 6.32285C12.67 6.22536 12.6417 6.11479 12.6417 6.00222C12.6416 5.88966 12.6698 5.77905 12.7234 5.6815L14.5596 2.34987C14.645 2.21178 14.7778 2.1133 14.9305 2.07476C15.0832 2.03623 15.2442 2.06058 15.3802 2.14279C15.5163 2.225 15.617 2.35879 15.6617 2.51656C15.7063 2.67432 15.6914 2.84402 15.6201 2.99062L13.7839 6.32225C13.7308 6.42031 13.6536 6.50173 13.5604 6.55805C13.4672 6.61438 13.3613 6.64496 13.2537 6.644Z" fill="url(#paint0_linear_2025_475)"/>
</g>
<defs>
<linearGradient id="paint0_linear_2025_475" x1="10.3084" y1="0.098999" x2="10.3084" y2="21.4184" gradientUnits="userSpaceOnUse">
<stop stop-color="#FF8000"/>
<stop offset="1" stop-color="white"/>
</linearGradient>
<clipPath id="clip0_2025_475">
<rect width="21" height="22" fill="white"/>
</clipPath>
</defs>
</svg>
