<svg width="21" height="22" viewBox="0 0 21 22" fill="none" xmlns="http://www.w3.org/2000/svg">
<g clip-path="url(#clip0_2025_2070)">
<path d="M10.5 6.512C10.1752 6.512 9.86372 6.37684 9.63407 6.13625C9.40442 5.89567 9.27541 5.56936 9.27541 5.22912V1.38187C9.27541 1.04163 9.40442 0.71533 9.63407 0.474744C9.86372 0.234159 10.1752 0.098999 10.5 0.098999C10.8247 0.098999 11.1362 0.234159 11.3659 0.474744C11.5955 0.71533 11.7245 1.04163 11.7245 1.38187V5.22912C11.7245 5.56936 11.5955 5.89567 11.3659 6.13625C11.1362 6.37684 10.8247 6.512 10.5 6.512ZM10.5 21.4184C10.297 21.4184 10.1024 21.3339 9.9589 21.1836C9.8154 21.0333 9.73478 20.8294 9.73478 20.6168V16.7695C9.73478 16.5569 9.8154 16.353 9.9589 16.2027C10.1024 16.0523 10.297 15.9679 10.5 15.9679C10.7029 15.9679 10.8975 16.0523 11.041 16.2027C11.1845 16.353 11.2652 16.5569 11.2652 16.7695V20.6168C11.2652 20.8294 11.1845 21.0333 11.041 21.1836C10.8975 21.3339 10.7029 21.4184 10.5 21.4184ZM7.74635 7.205C7.5449 7.20443 7.3471 7.14868 7.17257 7.04327C6.99805 6.93787 6.85288 6.78647 6.75147 6.60412L4.91528 3.2725C4.76316 2.99644 4.72196 2.66838 4.80072 2.3605C4.87949 2.05261 5.07177 1.79011 5.33528 1.63075C5.59879 1.47139 5.91194 1.42822 6.20583 1.51073C6.49972 1.59325 6.75029 1.79469 6.90241 2.07075L8.7386 5.40237C8.83923 5.58497 8.89223 5.79209 8.89228 6.00294C8.89233 6.21378 8.83943 6.42093 8.73889 6.60359C8.63835 6.78624 8.49371 6.93796 8.31949 7.04353C8.14527 7.14909 7.94761 7.20478 7.74635 7.205ZM15.0911 20.0502C14.9703 20.0497 14.8516 20.0162 14.7469 19.953C14.6422 19.8899 14.555 19.7992 14.4939 19.69L12.6577 16.3584C12.61 16.2762 12.5784 16.1849 12.5648 16.0897C12.5512 15.9946 12.5559 15.8975 12.5786 15.8043C12.6013 15.7111 12.6416 15.6236 12.6971 15.5469C12.7526 15.4702 12.8221 15.4059 12.9016 15.3578C12.9812 15.3097 13.0691 15.2787 13.1602 15.2667C13.2513 15.2547 13.3438 15.2619 13.4322 15.2878C13.5206 15.3138 13.6032 15.358 13.6751 15.4179C13.747 15.4778 13.8067 15.5521 13.8508 15.6365L15.687 18.9681C15.7472 19.0778 15.779 19.2021 15.7789 19.3286C15.7789 19.4552 15.7471 19.5795 15.6867 19.6891C15.6264 19.7987 15.5396 19.8898 15.435 19.9531C15.3305 20.0165 15.2119 20.05 15.0911 20.0502ZM5.72903 9.23725C5.54139 9.23819 5.35693 9.18644 5.19485 9.08737L2.01466 7.16375C1.7811 7.0085 1.61384 6.76472 1.54782 6.48332C1.4818 6.20192 1.52213 5.90468 1.66039 5.6537C1.79864 5.40272 2.02412 5.21741 2.28972 5.1365C2.55532 5.05559 2.84049 5.08532 3.08566 5.2195L6.26585 7.14312C6.46923 7.2672 6.62799 7.45794 6.71765 7.6859C6.80732 7.91387 6.8229 8.16641 6.762 8.40458C6.7011 8.64274 6.56709 8.8533 6.38065 9.00378C6.19421 9.15426 5.9657 9.2363 5.73035 9.23725H5.72903ZM18.4498 16.4505C18.3423 16.4507 18.2367 16.4208 18.144 16.3639L14.9638 14.4402C14.832 14.3508 14.738 14.2117 14.7012 14.0517C14.6644 13.8918 14.6876 13.7231 14.7661 13.5805C14.8446 13.438 14.9723 13.3325 15.1229 13.2857C15.2735 13.2389 15.4355 13.2545 15.5754 13.3293L18.7556 15.2529C18.8715 15.3239 18.9619 15.4329 19.0129 15.563C19.0639 15.6932 19.0727 15.8372 19.038 15.9731C19.0032 16.109 18.9269 16.2292 18.8206 16.3152C18.7143 16.4012 18.5841 16.4496 18.4498 16.4505ZM4.99141 12.0422H1.31903C1.05518 12.0423 0.802125 11.9324 0.61555 11.737C0.428975 11.5415 0.324158 11.2764 0.324158 11C0.324158 10.7236 0.428975 10.4585 0.61555 10.263C0.802125 10.0676 1.05518 9.95775 1.31903 9.95775H4.99141C5.25526 9.95775 5.50832 10.0676 5.69489 10.263C5.88147 10.4585 5.98628 10.7236 5.98628 11C5.98628 11.2764 5.88147 11.5415 5.69489 11.737C5.50832 11.9324 5.25526 12.0422 4.99141 12.0422ZM19.6809 11.6407H16.0085C15.8463 11.6407 15.6908 11.5732 15.576 11.4531C15.4613 11.3329 15.3969 11.1699 15.3969 11C15.3969 10.8301 15.4613 10.6671 15.576 10.5469C15.6908 10.4268 15.8463 10.3592 16.0085 10.3592H19.6809C19.8431 10.3592 19.9987 10.4268 20.1134 10.5469C20.2281 10.6671 20.2925 10.8301 20.2925 11C20.2925 11.1699 20.2281 11.3329 20.1134 11.4531C19.9987 11.5732 19.8431 11.6407 19.6809 11.6407ZM2.55016 16.7709C2.34731 16.7725 2.14967 16.7036 1.98825 16.5749C1.82682 16.4462 1.71073 16.265 1.65818 16.0598C1.60563 15.8545 1.6196 15.6368 1.69789 15.4407C1.77618 15.2447 1.91437 15.0814 2.09078 14.9765L5.27097 13.0529C5.48174 12.9254 5.73221 12.8909 5.96728 12.9569C6.08367 12.9896 6.19278 13.046 6.28837 13.1228C6.38396 13.1997 6.46417 13.2955 6.52441 13.4049C6.58465 13.5142 6.62374 13.6349 6.63946 13.7601C6.65517 13.8852 6.6472 14.0124 6.616 14.1343C6.5848 14.2563 6.53098 14.3706 6.45762 14.4707C6.38425 14.5709 6.29277 14.6549 6.18841 14.718L3.00822 16.6416C2.86897 16.726 2.71101 16.7705 2.55016 16.7709ZM15.2709 8.756C15.1361 8.75623 15.005 8.70978 14.898 8.62388C14.7909 8.53798 14.714 8.41744 14.6791 8.28101C14.6442 8.14458 14.6534 7.99989 14.7051 7.86946C14.7568 7.73902 14.8482 7.63014 14.9651 7.55975L18.1453 5.63612C18.2149 5.59405 18.2918 5.56676 18.3715 5.55581C18.4512 5.54485 18.5322 5.55045 18.6098 5.57229C18.6874 5.59412 18.7602 5.63176 18.824 5.68306C18.8877 5.73435 18.9412 5.7983 18.9813 5.87125C19.0215 5.9442 19.0476 6.02472 19.058 6.10822C19.0685 6.19171 19.0631 6.27655 19.0423 6.35788C19.0214 6.43921 18.9855 6.51545 18.9365 6.58224C18.8876 6.64902 18.8265 6.70505 18.7569 6.74712L15.5767 8.67075C15.4831 8.72535 15.3781 8.75372 15.2709 8.756ZM5.90884 20.2111C5.76092 20.2116 5.61551 20.1711 5.48731 20.0938C5.35911 20.0165 5.25267 19.9051 5.17875 19.7709C5.10483 19.6367 5.06606 19.4844 5.06635 19.3294C5.06664 19.1744 5.10598 19.0223 5.18041 18.8884L7.0166 15.5567C7.07184 15.4564 7.1454 15.3685 7.23307 15.298C7.32075 15.2275 7.42083 15.1757 7.52759 15.1457C7.63436 15.1157 7.74571 15.108 7.85531 15.1231C7.96491 15.1382 8.0706 15.1758 8.16635 15.2336C8.26209 15.2915 8.34602 15.3686 8.41334 15.4604C8.48065 15.5523 8.53004 15.6571 8.55868 15.769C8.58733 15.8808 8.59466 15.9975 8.58026 16.1123C8.56587 16.2271 8.53002 16.3378 8.47478 16.4381L6.6386 19.7698C6.56484 19.9041 6.45851 20.0157 6.33037 20.0932C6.20223 20.1707 6.05681 20.2114 5.90884 20.2111ZM13.2536 6.644C13.1461 6.64382 13.0406 6.61406 12.9476 6.5577C12.8546 6.50133 12.7774 6.42034 12.7237 6.32285C12.67 6.22536 12.6417 6.11479 12.6416 6.00222C12.6415 5.88966 12.6697 5.77905 12.7233 5.6815L14.5595 2.34987C14.6449 2.21178 14.7777 2.1133 14.9304 2.07476C15.0831 2.03623 15.2441 2.06058 15.3802 2.14279C15.5162 2.225 15.617 2.35879 15.6616 2.51656C15.7062 2.67432 15.6914 2.84402 15.62 2.99062L13.7838 6.32225C13.7307 6.42031 13.6536 6.50173 13.5603 6.55805C13.4671 6.61438 13.3612 6.64496 13.2536 6.644Z" fill="url(#paint0_linear_2025_2070)"/>
</g>
<defs>
<linearGradient id="paint0_linear_2025_2070" x1="10.3083" y1="0.098999" x2="10.3083" y2="21.4184" gradientUnits="userSpaceOnUse">
<stop stop-color="#FF8000"/>
<stop offset="1" stop-color="white"/>
</linearGradient>
<clipPath id="clip0_2025_2070">
<rect width="21" height="22" fill="white"/>
</clipPath>
</defs>
</svg>
