<svg width="49" height="37" viewBox="0 0 49 37" fill="none" xmlns="http://www.w3.org/2000/svg">
<path d="M29.4603 1.97717C29.3916 2.56458 29.1802 3.10553 28.9486 3.61643C28.7194 4.1328 28.4674 4.6519 28.3426 5.23657C28.2051 5.895 27.6959 6.37038 27.3497 6.94959C27.5915 7.06161 27.701 6.72283 27.9429 6.83211C27.1358 8.37848 26.3542 10.0341 24.5236 10.8237L25.1779 10.8865L25.5064 10.9193L25.8348 10.9385C25.5573 11.2554 25.3536 11.4767 25.1423 11.6898C24.3403 12.4957 23.4186 13.1678 22.138 13.299C21.8299 13.329 21.1399 13.146 21.3156 13.8563C21.3207 13.8782 21.1374 13.9301 21.0407 13.9629C20.6027 14.1186 20.1496 14.2498 19.6785 14.3126C19.2101 14.3618 18.7238 14.3563 18.2197 14.247C18.1178 14.2224 17.9473 14.1678 17.9702 14.3044C18.0389 14.6732 17.7156 14.5312 17.5577 14.5257C17.1656 14.5148 16.7634 14.5202 16.3687 14.4656C15.9741 14.4137 15.5744 14.3426 15.195 14.1678C13.3084 13.3154 11.5211 13.1651 9.55562 13.3181C11.8139 14.2689 13.9806 15.2798 16.2491 16.0475C17.9727 16.6239 19.5792 16.3398 20.9465 15.5393C21.4226 15.247 21.8681 14.93 22.3009 14.6104C22.7338 14.2907 23.1615 13.9465 23.5994 13.6432C24.5669 12.9657 25.5344 12.3455 26.8608 12.5067C27.0645 12.5258 27.3318 12.4657 27.4591 12.5668C27.6857 12.7389 27.202 12.8864 27.3828 13.1706C27.5737 13.0504 27.7672 12.9438 27.9658 12.8591C28.1618 12.769 28.3655 12.6897 28.5717 12.6351C28.778 12.5777 28.9918 12.5395 29.2082 12.5231C29.4247 12.5067 29.6462 12.493 29.8728 12.5094C30.5933 12.564 31.2756 12.7444 31.9758 12.9301C32.6021 13.0722 32.6555 13.1514 32.3195 13.7006C32.2405 13.8317 32.1718 13.9738 32.0598 14.1651C32.5512 14.1241 33.0196 14.1131 33.4804 14.135C33.9387 14.1377 34.3894 14.176 34.8451 14.2498C35.2932 14.3044 35.7464 14.359 36.2123 14.3836C36.6757 14.3946 37.1518 14.3645 37.6457 14.2689C37.4649 14.9137 36.9074 15.3289 36.3676 15.8344C37.2689 15.7114 38.048 15.8016 38.8347 15.848C39.4432 15.8999 39.9982 16.0256 40.5558 16.1759C41.1159 16.3316 41.6659 16.4764 42.254 16.5611C42.3686 16.5748 42.5671 16.583 42.5289 16.7387C42.5009 16.8452 42.3991 16.9737 42.2896 17.0501C42.0427 17.2195 41.6964 17.2605 41.5131 17.5337C41.9408 17.4928 42.5111 17.5419 43.1578 17.6485C43.7969 17.7332 44.5199 17.8916 45.2404 18.0501C45.602 18.1293 45.9635 18.2168 46.3174 18.3096C46.4956 18.3588 46.6688 18.408 46.8419 18.4544C47.0125 18.4982 47.178 18.5446 47.3409 18.5938C47.9901 18.785 48.563 19.0009 48.9729 19.2304C48.8965 19.3451 48.7896 19.3069 48.6979 19.3287C48.3211 19.4161 47.9494 19.5063 47.5853 19.6074C47.2212 19.7139 46.8521 19.8014 46.4956 19.9298C45.7853 20.1893 45.0851 20.4981 44.4054 21.0144C43.942 21.3614 43.4659 21.6865 42.9872 22.0253C42.5086 22.3586 42.0223 22.6701 41.5386 23.0007C41.1948 23.2383 40.8359 23.4378 40.4692 23.6454C40.1052 23.8476 39.7283 24.0471 39.3414 24.2137C38.9518 24.3858 38.5546 24.5498 38.1473 24.7C37.7348 24.8394 37.3147 24.9678 36.8819 25.0852C37.3631 25.3694 37.8087 25.6016 38.2084 25.8639C38.4706 26.0333 38.6488 26.1917 38.0251 26.3967C37.7526 26.4895 37.4751 26.5824 37.1976 26.6753C36.9226 26.771 36.6477 26.8693 36.3727 26.9567C34.1551 27.719 31.9146 27.6015 29.7811 27.1371C29.9542 27.6124 30.3565 28.0141 30.6977 28.4348C30.9217 28.7135 30.7588 28.7381 30.3896 28.7818C29.0326 28.9348 27.7901 28.6534 26.6037 28.2599C25.2747 27.8173 24.2435 27.1179 23.5612 26.1999C23.2557 26.3338 23.5103 26.6753 23.1666 26.6808C22.8763 26.6863 22.7668 26.4349 22.6141 26.2682C21.8987 25.4978 21.4557 24.6973 21.1756 23.864C20.8981 23.0307 20.781 22.181 20.725 21.3341C20.6664 20.4216 20.2947 19.5609 19.7142 18.8178C19.1286 18.0911 18.3343 17.4873 17.3719 17.1212L16.4247 16.7496C16.109 16.6321 15.7984 16.4928 15.4853 16.3699C14.8539 16.1267 14.2377 15.8508 13.6114 15.5994C12.3741 15.0612 11.1291 14.5448 9.89679 13.9738C9.71347 13.8918 9.52507 13.8208 9.3163 13.7525C9.11007 13.6815 8.87838 13.6159 8.59832 13.5558C8.84274 13.758 9.01587 13.952 9.16863 14.135C9.32648 14.3126 9.46142 14.4765 9.632 14.6322C9.84841 14.829 10.0801 15.0011 10.3194 15.1541C10.5613 15.3043 10.8159 15.4273 11.073 15.5448C11.3327 15.6595 11.5924 15.7688 11.8572 15.8672C12.122 15.96 12.3868 16.0529 12.649 16.1486C13.176 16.3535 13.6547 16.5912 14.1053 16.8753C14.5509 17.1676 14.9812 17.4627 15.4114 17.7769C15.773 18.0419 15.9512 18.225 15.941 18.3752C15.9334 18.5309 15.7399 18.6648 15.3656 18.8096C16.9441 19.7577 17.3719 21.274 18.8511 22.3504C18.0695 22.3668 17.4762 21.9925 16.7226 22.069C17.2777 22.3531 17.5119 22.7111 17.8378 23.0143C18.2222 23.375 18.5328 23.7383 18.8027 24.129C19.0726 24.5142 19.3068 24.9241 19.5487 25.3202C19.7906 25.7191 20.0375 26.1234 20.3354 26.5169C20.4856 26.7136 20.646 26.9103 20.8268 27.1015C21.0076 27.29 21.2087 27.4704 21.4327 27.6452C21.224 27.6179 21.0254 27.607 20.8395 27.5988C20.6511 27.5878 20.4754 27.5769 20.3023 27.5687C19.9612 27.5469 19.6429 27.5113 19.3297 27.3857C19.1897 27.3283 19.0471 27.3174 18.9682 27.413C18.9096 27.484 18.9784 27.5551 19.0599 27.6234C19.5462 28.0441 19.872 28.5168 20.2107 28.9949C20.6307 29.5905 20.8803 30.1642 21.0127 30.7543C21.1425 31.3417 21.1552 31.9373 21.1119 32.5411C20.6358 32.4209 20.753 32.0603 20.2438 31.9893C20.5977 32.798 20.9974 33.5821 21.3207 34.3771C21.835 35.6339 21.8554 36.1065 21.4811 36.7021C21.2698 36.3852 21.0788 36.0683 20.8573 35.7568C20.6231 35.429 20.338 35.1257 20.0197 34.8416C19.6989 34.5547 19.3476 34.2733 18.9784 34.0055C18.6118 33.7323 18.2273 33.4782 17.8505 33.2023C17.4737 32.9291 17.102 32.6559 16.7506 32.3745C16.6539 32.298 16.4451 32.1696 16.3738 32.2679C15.8672 32.94 15.2307 32.2843 14.7215 32.0521C14.3167 31.8718 13.9449 31.6532 13.5961 31.4292C13.2473 31.2024 12.924 30.962 12.621 30.7024C12.0227 30.1642 11.511 29.5659 11.0654 28.8911C10.8235 29.8391 10.5766 30.615 9.80513 31.1478C9.70329 31.2161 9.65746 31.3636 9.4767 31.3308C9.23737 31.2871 9.13044 31.1041 9.06933 30.962C8.76891 30.268 8.34372 29.5659 7.89308 28.8747C7.43989 28.1916 6.97143 27.484 6.57425 26.7791C6.04977 25.8557 5.94793 24.9596 5.72134 24.0307C5.04919 24.2492 4.88625 24.2192 4.5349 23.5963C3.98751 22.6346 3.77619 21.7849 3.84748 21.0062C3.91622 20.233 4.25484 19.5555 4.80223 18.9435C5.47183 18.2031 6.44186 17.7086 7.11909 16.9627C8.00001 15.9983 8.27498 14.8945 7.72759 13.4629C7.5952 13.0995 7.43225 12.9383 7.05799 12.7717C5.67551 12.1433 4.28539 11.6515 2.86726 11.1953C2.67377 11.1352 2.48027 11.0778 2.28423 11.0259C2.09073 10.9712 1.89724 10.9139 1.70628 10.862C1.32184 10.7554 0.934845 10.6652 0.547852 10.586C0.899201 10.474 1.248 10.3565 1.59426 10.2363L1.62736 10.2445C1.90487 10.3319 2.17475 10.403 2.43444 10.4549C2.69413 10.504 2.95128 10.5232 3.19061 10.5177C3.47321 10.6488 3.75582 10.7691 4.03843 10.8756C4.1199 10.9139 4.20392 10.9466 4.28793 10.9794H4.26247C4.73603 11.1652 5.18413 11.3811 5.63732 11.575C6.09051 11.7663 6.53097 11.963 6.97397 12.1269C7.41952 12.2854 7.85744 12.4247 8.2928 12.5258C8.73581 12.6132 9.17118 12.6597 9.60654 12.6515C10.131 12.799 10.681 12.7908 11.1698 12.728C11.4931 12.6897 11.8241 12.5996 12.1169 12.4821C12.4479 12.4411 12.6898 12.2963 12.9265 12.1816C13.6674 11.81 14.169 11.1816 14.6604 10.5778C14.8844 10.3019 15.1568 10.097 15.4394 9.88113C15.7195 9.66529 16.0021 9.45765 16.2389 9.20357C16.2974 9.14073 16.3815 9.09429 16.4247 9.01505C16.6717 8.77736 16.7252 8.40033 16.6946 8.05336L16.6921 8.02877C16.7659 7.42497 17.0383 6.89222 17.2573 6.3458C17.3286 6.25017 17.3922 6.14909 17.4533 6.04253C17.6647 5.82123 17.8658 5.59993 18.0898 5.38683C18.4539 5.03986 18.8816 4.73932 19.3297 4.74752C19.4621 4.74479 19.5181 5.40596 19.4952 5.78845C19.4876 5.87861 19.5334 5.94145 19.6073 5.95237C19.6505 5.95511 19.7218 5.91959 19.7422 5.87861C19.9459 5.47153 20.2183 5.1546 20.5136 4.85134C20.809 4.54534 21.1247 4.26667 21.4149 3.96887C21.7968 3.57818 22.1889 3.1711 22.581 2.74216C22.6905 3.66015 22.362 4.47158 22.4613 5.43328C22.6956 5.13821 22.9603 4.89779 23.2353 4.70654C23.5103 4.50983 23.7929 4.36503 24.078 4.19837C24.3606 4.03444 24.6407 3.87598 24.9004 3.6902C25.1601 3.49622 25.402 3.26672 25.6056 2.97985C25.6617 3.35688 25.71 3.66015 25.7635 4.01805C26.0359 3.835 26.3083 3.65195 26.5731 3.49622C26.8379 3.33776 27.0976 3.19569 27.3497 3.02084C27.5788 2.86784 27.8079 2.71484 28.0218 2.55091C28.2357 2.38426 28.4343 2.19028 28.6023 1.97444C28.9384 1.54004 29.1471 0.990887 29.1293 0.193115C29.5112 0.791445 29.529 1.37885 29.4603 1.97717Z" fill="#EA540A"/>
</svg>
