<svg width="41" height="46" viewBox="0 0 41 46" fill="none" xmlns="http://www.w3.org/2000/svg">
<mask id="mask0_2025_2039" style="mask-type:luminance" maskUnits="userSpaceOnUse" x="0" y="0" width="41" height="46">
<path d="M0.0913086 0.909668H40.3421V45.6333H0.0913086V0.909668Z" fill="white"/>
</mask>
<g mask="url(#mask0_2025_2039)">
<path d="M17.9563 1.45177C17.9781 1.80658 18.0049 2.16679 18.0486 2.51079C18.0956 2.84398 18.1593 3.16457 18.2517 3.45634C18.3624 3.82375 18.4312 4.45232 18.8861 3.95883C18.9952 3.83996 18.9817 4.0777 18.9918 4.19297C19.0187 4.51715 19.0741 4.80712 19.1882 5.02505C19.2939 5.23757 19.4332 5.35824 19.6279 5.19435C19.8042 5.04486 19.8679 4.75309 19.9049 4.44872C19.9216 4.31364 19.9132 4.11012 20.0072 4.06869C20.0962 4.02907 20.0811 4.247 20.0962 4.36587C20.1247 4.60901 20.1667 4.85215 20.165 5.1133C20.1633 5.70945 20.2623 6.19573 20.41 6.62978C20.5594 7.05123 20.7558 7.42765 20.9387 7.82928C20.9975 7.95536 21.0831 8.05261 21.1938 7.95175C21.3281 7.83108 21.3264 7.59695 21.3583 7.38983C21.3785 7.25475 21.3281 7.06384 21.4322 7.0026C21.5245 6.94677 21.5429 7.14488 21.5866 7.24574C21.6571 7.41324 21.7276 7.61136 21.8753 7.49249C22.0196 7.37362 22.028 7.11787 22.0314 6.89094C22.0397 6.1399 21.9659 5.44109 21.8686 4.7639C21.8534 4.66304 21.8065 4.52616 21.8937 4.43251C21.9139 4.41089 21.9743 4.53877 21.9978 4.62342C22.0716 4.87917 22.169 5.12591 22.2042 5.42308C22.3318 6.47489 22.8135 7.15929 22.9477 8.27414C22.9561 8.35699 23.0233 8.48486 23.0367 8.47226C23.4563 8.08503 23.2767 8.79645 23.3388 9.02878C23.5402 9.79243 23.6862 10.5633 23.7315 11.4404C23.7584 11.9411 23.9732 12.1554 24.267 11.6961C24.3139 11.6223 24.3693 11.4872 24.4398 11.5611C24.5086 11.6385 24.4533 11.7736 24.4281 11.8726C24.2233 12.6309 24.2183 13.4756 23.9716 14.223C23.9313 14.3437 23.8944 14.5904 23.9883 14.6174C24.2418 14.6913 24.0773 14.8642 24.0404 15.0209C23.9766 15.3325 23.9111 15.6458 23.8339 16.015C24.0605 15.7701 24.2283 15.2496 24.4465 15.4441C24.5858 15.5648 24.3223 16.0331 24.272 16.3572C24.2183 16.7067 23.9766 16.8525 23.8876 17.1587C23.8591 17.256 23.7651 17.3496 23.8423 17.4577C23.8541 17.4739 23.9464 17.3676 24.0018 17.3226C24.089 17.2524 24.2317 17.1011 24.2535 17.1317C24.3559 17.2794 24.2334 17.4361 24.1814 17.5423C23.9615 17.9674 24.2435 18.3906 24.136 18.8085C24.8326 19.0012 24.2132 19.4695 24.1948 19.7666C24.1276 21.058 24.3072 22.2647 24.71 23.4318C24.7268 23.4822 24.7755 23.5128 24.8091 23.5524C24.8242 23.4948 24.8561 23.4372 24.8544 23.3795C24.8191 22.4016 25.0894 21.4416 24.9433 20.4546C24.9333 20.379 24.9249 20.2709 24.9534 20.2187C25.2471 19.682 25.321 19.1345 25.2924 18.5996C25.2639 18.0592 25.133 17.5333 25.0071 16.984C24.9803 16.8669 24.9198 16.685 24.9484 16.6382C25.0256 16.5157 25.0961 16.6958 25.1733 16.7319C25.4687 16.8705 25.5459 16.5842 25.5811 16.2474C25.712 15.0425 25.5543 13.9132 25.2589 12.8362C25.2018 12.6237 25.0491 12.3589 25.3764 12.3391C25.5207 12.3301 25.5324 12.0672 25.5408 11.8708C25.5677 11.2819 25.5778 10.6948 25.5257 10.113C25.519 10.032 25.5476 9.93831 25.5593 9.85006C25.5962 9.91129 25.6449 9.95992 25.6667 10.0338C25.8228 10.5633 25.9688 11.1072 26.1467 11.6259C26.2944 12.0563 26.4807 12.0347 26.5781 11.5773C26.7963 10.5975 27.2947 9.83205 27.184 8.63975C27.1773 8.56771 27.2259 8.47946 27.2511 8.40022C27.2763 8.43624 27.3082 8.46145 27.3283 8.50648C27.4173 8.70819 27.3484 9.14945 27.5331 9.16026C27.8318 9.17647 28.0181 8.80905 28.1524 8.3678C28.2229 8.14807 28.1239 7.5141 28.4746 7.91573C28.4981 7.94275 28.619 7.69601 28.6727 7.54832C28.8305 7.11607 28.9614 6.63699 29.1023 6.19393C29.1342 6.08947 29.1678 5.88595 29.2568 5.99221C29.3222 6.07326 29.2668 6.23175 29.2484 6.34342C29.1695 6.8225 29.0889 7.30158 29.0956 7.83469C29.099 7.97697 29.0923 8.22912 29.1628 8.22191C29.5505 8.18769 29.3608 8.63075 29.334 8.84868C29.24 9.59791 29.5689 9.97973 29.8408 10.2427C30.1127 10.5074 30.2554 9.97793 30.3913 9.65555C30.4837 9.43582 30.492 9.10803 30.6616 8.99816C30.7522 9.33136 30.6498 9.59071 30.6095 9.86267C30.5575 10.2373 30.4736 10.5957 30.4048 10.9667C30.3829 11.082 30.3427 11.2819 30.3729 11.3251C30.6901 11.8078 30.3762 11.9141 30.2537 12.1104C30.0053 12.5012 29.8979 13.146 29.4699 13.2721C29.3289 13.3117 29.485 13.4702 29.5068 13.5692C29.5337 13.7169 29.678 13.879 29.4783 13.9727C29.4246 13.9979 29.4128 14.0951 29.4481 14.1744C29.5102 14.3077 29.5924 14.2788 29.6747 14.2536C30.0993 14.1113 30.1614 14.2158 30.0708 14.884C30.0271 15.1884 30.1815 15.201 30.3108 15.201C30.6498 15.1992 30.9318 14.9758 31.2054 14.7399C31.2507 14.6985 31.3161 14.7075 31.3732 14.6895C31.3665 14.7777 31.3782 14.884 31.3547 14.9524C31.1852 15.4243 30.9989 15.8872 30.8126 16.3572C30.7606 16.4905 30.6632 16.6976 30.7639 16.7913C31.2205 17.2109 30.7505 17.2127 30.6716 17.2938C30.4618 17.5135 30.1379 17.5369 29.965 17.7585C29.8308 17.9278 29.678 18.0754 29.5337 18.2447C29.3894 18.405 29.2551 18.5905 29.1611 18.8535C29.0671 19.1183 28.7214 19.1831 28.4897 19.3506C28.4209 19.401 28.3051 19.5361 28.3118 19.5523C28.3756 19.7018 28.4679 19.5613 28.5502 19.5793C28.666 19.6063 28.8456 19.4731 28.8774 19.7126C28.9009 19.8855 28.7146 19.8927 28.6139 19.9611C28.4948 20.0422 28.2716 20.008 28.2883 20.2421C28.3085 20.5159 28.53 20.4276 28.6744 20.4546C28.7633 20.4726 28.8858 20.4024 28.9194 20.5681C28.9295 20.6167 28.817 20.714 28.7532 20.7752C28.6542 20.8707 28.5418 20.9589 28.5988 21.1588C28.6475 21.3263 28.7717 21.3209 28.8808 21.3245C29.334 21.3407 29.7687 21.2147 30.1966 21.058C30.2856 21.0274 30.4132 20.9751 30.4602 21.1192C30.5105 21.2795 30.3662 21.3119 30.294 21.3786C30.059 21.5983 29.7989 21.791 29.5773 22.0215C29.3894 22.2215 29.1661 22.443 29.4682 22.8554C29.6411 23.0968 29.386 23.0662 29.292 23.0878C28.7902 23.1994 28.3337 23.4462 27.9141 23.837C27.7429 23.9955 27.5952 24.1738 27.6371 24.4836C27.6657 24.6907 27.57 24.7844 27.429 24.8294C27.3904 24.8384 27.3535 24.8474 27.3149 24.86C27.0161 24.9717 26.7493 25.1572 26.526 25.4381C26.7661 25.6254 27.0346 25.5264 27.2863 25.5426C28.7432 25.575 30.2084 25.7101 31.6837 25.6993C32.0529 25.7011 32.4239 25.7119 32.7948 25.7029C33.1623 25.6813 33.5316 25.6579 33.9008 25.629C34.6393 25.5696 35.3828 25.5084 36.1096 25.3355C36.462 25.2598 36.8078 25.1716 37.1485 25.0653C37.318 25.0131 37.4875 24.9555 37.6537 24.8924C37.7359 24.8618 37.8198 24.8312 37.9004 24.7952L38.1421 24.6745C38.7799 24.3467 39.379 23.9325 39.9144 23.4102C39.9883 23.3363 40.0856 23.1814 40.1779 23.2895C40.2971 23.4282 40.1595 23.5488 40.089 23.6425C39.7416 24.1 39.3438 24.489 38.9024 24.8096C38.461 25.1302 37.9793 25.3931 37.4506 25.5354C36.4402 25.8272 35.4114 26.0091 34.3691 26.0469L32.8166 26.1387C32.2997 26.1514 31.7827 26.1604 31.2675 26.2018C30.8714 26.2306 30.4736 26.2612 30.0758 26.281L28.8808 26.29C28.483 26.2954 28.0869 26.3026 27.6892 26.3152C27.2914 26.3279 26.8953 26.3098 26.4975 26.3188C26.4102 26.3206 26.2844 26.2774 26.2642 26.4269C26.2558 26.4972 26.3314 26.6016 26.3901 26.661C26.5344 26.8069 26.6855 26.9456 26.8466 27.0681C27.0379 27.214 27.2461 27.2968 27.4391 27.4265C27.6321 27.5562 27.8117 27.7183 27.9543 28.0515C28.2279 28.689 29.0486 28.6152 29.6881 28.5539C29.8207 28.5413 30.0557 28.5341 30.0758 28.5954C30.1463 28.8007 29.9248 28.8133 29.8341 28.9106C29.5773 29.1771 29.626 29.3878 29.9264 29.5355C30.0641 29.6022 30.2067 29.6598 30.3494 29.7156C30.492 29.7661 30.6364 29.8111 30.779 29.8651C30.8562 29.8921 30.9855 29.9552 30.9855 29.9966C30.9804 30.1479 30.8445 30.1281 30.7522 30.1407C30.4652 30.1839 30.1765 30.1785 29.8912 30.2127C29.631 30.2451 29.198 30.1155 29.1611 30.4306C29.1124 30.8305 29.0604 31.3005 29.3373 31.713C29.6646 32.2011 30.0473 32.5739 30.492 32.826C30.9351 33.0692 31.4386 33.1664 32.0043 33.1448C32.1033 33.1412 32.2409 33.0872 32.2795 33.2259C32.2963 33.2817 32.2023 33.3826 32.1436 33.451C31.9438 33.6851 32.1083 33.795 32.2778 33.9013C32.6571 34.1336 33.0885 34.2146 33.5114 34.3299C33.6272 34.3605 33.8203 34.3551 33.8135 34.4974C33.8035 34.6919 33.6021 34.6361 33.4695 34.6433C33.159 34.6667 32.8434 34.6541 32.5363 34.6955C31.9942 34.7712 31.6115 35.1746 31.5142 35.6609C31.4286 36.0841 31.8968 36.3525 32.2275 36.5938C32.3819 36.7073 32.5732 36.7631 32.7495 36.8442C32.9425 36.9324 33.2312 36.9504 32.9341 37.2854C32.8166 37.4205 33.023 37.5754 33.1237 37.6925C33.4527 38.0743 33.8035 38.4417 34.1425 38.8217C34.2164 38.91 34.3741 39.0487 34.2466 39.1531C34.1324 39.2468 34.02 39.0721 33.9142 39.0036C33.6088 38.8091 33.3285 38.5624 33.0046 38.4183C32.6555 38.2616 32.548 38.4093 32.2896 38.7839C31.8498 39.4053 32.4524 39.9294 32.2913 40.1851C31.588 41.2766 32.543 41.7016 32.9895 42.3446C33.0314 42.4058 33.0415 42.4851 33.0683 42.5571C32.9844 42.5625 32.8938 42.5931 32.8233 42.5697C32.4524 42.4454 32.2124 42.1519 31.9019 41.961C31.7575 41.8709 31.6602 41.6602 31.5259 41.5305C31.39 41.4026 31.2188 41.3612 30.92 41.5899C30.9133 41.5899 30.7807 41.4729 30.7371 41.3954C30.6179 41.1973 30.5424 40.9722 30.4031 40.7921C30.2269 40.5651 29.9734 40.3706 29.6713 40.4139C29.3591 40.4607 29.3927 40.7849 29.3054 41.0064C29.2668 41.1091 29.2249 41.2838 29.1695 41.2892C29.01 41.3072 29.0168 41.1325 29 41.037C28.8338 40.0176 28.1641 39.3224 27.5129 38.5948C27.09 38.1157 26.808 38.4255 26.521 38.7677C26.3599 38.9622 26.2659 39.4125 26.0527 39.3224C25.7506 39.1945 26.0796 38.8451 26.0678 38.584C26.0527 38.1842 26.1769 37.7735 25.8211 37.4367C25.6734 37.2944 25.8194 37.0927 25.8899 36.9342C26.2021 36.2426 26.2541 35.5114 26.1685 34.7748C26.1115 34.2921 25.999 33.7698 25.3243 34.1066C25.2807 34.13 25.2136 34.103 25.1598 34.1012C25.175 34.0255 25.1733 33.9391 25.2119 33.876C25.425 33.5266 25.5509 33.1502 25.6096 32.736C25.6449 32.4676 25.6852 32.1398 25.5476 31.9741C24.7738 31.0394 25.0776 29.8435 24.9081 28.7683C24.8879 28.6278 24.8527 28.4945 24.8225 28.3576C24.6681 28.4225 24.6614 28.6062 24.6127 28.7467C24.2904 29.6976 24.0941 30.6756 24.2569 31.7112C24.2871 31.9003 24.3928 32.2119 24.0085 31.9885C23.844 31.8913 23.8339 32.0228 23.886 32.1578C23.9262 32.2623 23.9867 32.3578 24.0253 32.464C24.1209 32.7216 24.6714 33.044 23.8474 33.107C23.369 33.143 23.3824 33.804 23.505 34.2164C23.6225 34.6127 23.7064 34.9495 23.5973 35.3745C23.4949 35.7671 23.7131 36.1706 23.8524 36.5542C23.9145 36.7271 24.0236 36.9558 23.6644 36.828C23.4496 36.7505 23.1878 36.6262 23.0585 36.8658C22.9477 37.0711 23.2129 37.2296 23.3304 37.3953C23.416 37.5142 23.5234 37.6168 23.6141 37.7339C23.6409 37.7681 23.6443 37.8221 23.6577 37.8672C23.6141 37.8726 23.5604 37.896 23.5285 37.8798C23.2582 37.7429 22.9914 37.6006 22.7262 37.4547C22.6104 37.3881 22.9813 38.4381 23.2331 38.8631C23.2616 38.9154 23.3036 39.0126 23.2801 39.0378C23.1978 39.1333 23.1374 39.0306 23.082 38.9838C22.6607 38.6272 21.7897 38.7731 21.9693 39.0667C22.0028 39.1207 22.0498 39.2071 22.0951 39.2126C23.3506 39.326 22.3654 40.3994 22.842 40.8875C22.9712 41.0172 22.6759 40.983 22.555 40.9127C21.8383 40.5003 21.355 40.675 21.2559 41.4639C21.1754 42.1519 20.452 42.4562 20.358 43.1064C18.9348 43.2199 18.7552 44.6409 17.7347 45.2082C17.6172 45.2731 17.488 45.4226 17.3604 45.3091C17.2312 45.192 17.4024 45.0714 17.4796 44.9741C17.8388 44.5274 18.156 44.0646 18.3154 43.5225C18.3893 43.2811 18.4732 43.0254 18.2315 42.8381C17.9848 42.6454 17.775 42.8669 17.5618 42.9497C17.4343 43.002 17.2832 43.1082 17.1943 43.074C17.0097 42.9966 17.159 42.8471 17.1809 42.7318C17.2161 42.5229 17.3051 42.2977 17.0718 42.1393C16.8401 41.9808 16.6068 42.0654 16.3803 42.1627C15.7878 42.422 15.2088 42.7012 14.6834 43.0506C14.1598 43.4 13.6865 43.8214 13.3139 44.3419C13.2232 44.468 13.1007 44.6481 12.8976 44.5689C12.7013 44.4914 12.807 44.3041 12.8255 44.1672C12.859 43.9241 12.8355 43.699 12.5653 43.5567C12.191 43.3604 11.8117 43.2991 11.4291 43.4702C11.1051 43.6107 10.8165 43.9673 10.4187 43.4396C10.2861 43.2685 9.94034 43.3784 9.69698 43.4126C8.65807 43.5567 7.81049 44.0664 6.89242 44.477C6.7615 44.5383 6.59031 44.7039 6.46611 44.5527C6.33855 44.3996 6.58359 44.3185 6.68598 44.2249C7.06529 43.8773 7.46138 43.5423 7.82391 43.1839C8.05721 42.9497 8.26533 42.712 8.10588 42.314C7.98168 42.0006 8.3375 41.9267 8.49694 41.7592C8.73191 41.5197 9.14647 41.3234 8.96353 40.9308C8.75205 40.4787 8.2905 40.6984 7.92294 40.6714C7.67118 40.6534 7.31704 40.929 7.21466 40.6876C7.12235 40.4571 7.55537 40.3616 7.77021 40.2175C8.17637 39.9582 8.57918 39.6988 8.97192 39.4269C9.45026 39.0883 9.35459 38.4453 9.6953 38.0149C9.84132 37.8257 9.52746 37.6492 9.30928 37.597L8.23847 37.3539C7.88434 37.2638 7.5302 37.1648 7.17438 37.0693C7.01494 37.0279 6.75143 37.0387 6.73465 36.882C6.71283 36.6587 6.98473 36.7451 7.12739 36.7199C7.51677 36.6533 7.92462 36.6136 8.30896 36.5344C8.69667 36.4479 9.06255 36.3093 9.36298 36.0769C10.1871 35.4322 11.2058 35.2484 11.9947 34.6505C12.473 34.2885 12.6996 33.9139 12.6778 33.5753C12.656 33.2367 12.3941 32.8981 11.894 32.5577C11.7933 32.4892 11.6238 32.374 11.6338 32.3127C11.6707 32.12 11.8604 32.2065 11.9829 32.1975C12.233 32.1777 12.4814 32.1524 12.7231 32.1128C12.9665 32.0696 13.2065 32.0012 13.4381 31.9201C13.9013 31.7526 14.331 31.5059 14.7086 31.1258C14.8278 31.007 14.9285 30.9511 15.1013 31.0574C15.4068 31.2429 15.7693 31.3852 16.1638 31.4392C16.5565 31.4915 16.9761 31.4861 17.3839 31.4284C18.2047 31.3041 18.9784 30.9944 19.4685 30.4523C19.6833 30.2217 19.8025 29.9822 19.5658 29.6958C19.3409 29.4203 19.544 29.3896 19.7253 29.3482C20.1348 29.2528 20.598 29.2167 20.885 28.8817C21.1133 28.6134 21.3583 28.3865 21.6151 28.1847C21.8736 27.983 22.1421 27.8101 22.4191 27.6192C22.9712 27.2482 23.5486 26.9006 24.0958 26.4377C23.5805 26.598 23.176 26.6538 22.8185 26.8484C22.602 26.9654 22.3771 27.0645 22.1488 27.1581C21.9206 27.2428 21.6906 27.3238 21.4657 27.4175C21.0126 27.6066 20.5745 27.8479 20.1952 28.273C20.1583 28.3144 20.0878 28.363 20.0509 28.3486C19.7521 28.228 19.5239 28.1883 19.3074 28.246C19.0908 28.2946 18.8844 28.4441 18.6276 28.7142C18.443 28.9106 18.2869 29.015 18.0083 29.0204C17.5853 29.0294 17.3923 29.5157 17.1271 29.8309C16.9056 30.0938 16.7193 30.3928 16.5011 30.663C16.4491 30.7242 16.3131 30.7927 16.2745 30.7638C16.1822 30.6936 16.2812 30.5981 16.3131 30.5135C16.4155 30.2595 16.5347 30.011 16.6119 29.748C16.6824 29.4941 16.7092 29.2167 16.4826 29.0402C16.2577 28.8619 16.0144 28.8997 15.7979 29.0654C15.5394 29.2618 15.3279 29.386 14.9604 29.296C14.6129 29.2113 14.336 29.6508 14.1145 29.9876C13.9919 30.1713 13.8946 30.4216 13.6546 30.1119C13.5153 29.9318 13.3407 30.0596 13.2249 30.1839C12.9849 30.445 12.765 30.7332 12.5301 31.0034C12.4831 31.0592 12.4059 31.1511 12.369 31.1385C12.2649 31.1024 12.3589 31.007 12.3522 30.9385C12.3169 30.6306 12.1608 30.8521 12.1054 30.9007C11.7211 31.2429 11.3351 31.5887 10.9507 31.9309C10.8601 32.0084 10.7627 32.1669 10.6385 32.057C10.5362 31.9669 10.6654 31.8553 10.704 31.7562C10.7862 31.5545 11.0615 31.342 10.9071 31.1601C10.7376 30.9565 10.4757 31.1925 10.2878 31.2969C9.77419 31.5869 9.26732 31.8409 8.74702 32.1074C8.2284 32.3722 7.70307 32.6333 7.16767 32.8855C7.04011 32.9449 6.83535 33.098 6.7464 32.9251C6.67423 32.79 6.92598 32.754 7.02501 32.6621C7.33886 32.3704 7.68461 32.1074 7.95315 31.7778C8.11427 31.5815 8.39792 31.3041 7.96825 31.0214C7.80377 30.9133 8.01021 30.8107 8.07063 30.7188C8.33078 30.3226 8.59764 29.9227 7.86252 29.7967C7.67957 29.7661 7.68629 29.667 7.75678 29.5211C8.00014 29.024 7.73664 28.9232 7.35397 28.9088C7.26334 28.9016 7.17606 28.9142 7.08543 28.9196C6.73465 28.943 5.87029 29.613 6.49464 28.3612C6.59534 28.1595 6.47786 27.7543 6.08512 27.9416C5.84343 28.0551 5.80315 27.7525 5.57993 27.7201C5.09152 27.6534 4.66186 27.8425 4.21205 27.8497C4.18352 27.8515 4.13652 27.8443 4.12813 27.8281C3.64644 26.7961 2.73676 27.2176 1.97646 27.0645C1.86065 27.0429 1.6861 27.0789 1.67771 26.9168C1.66763 26.7529 1.85226 26.7637 1.95799 26.7385C2.7569 26.5314 3.14293 25.7731 3.65483 25.2202C4.00561 24.8402 3.70686 24.4656 3.33762 24.2945C3.153 24.2116 3.01537 24.1306 2.98348 24.0315C2.95327 23.9325 3.03048 23.819 3.28055 23.6605C3.5407 23.493 3.74211 23.1994 3.63469 22.841C3.53399 22.497 3.23524 22.5493 2.98348 22.5691C2.71494 22.5907 2.53871 22.5637 2.38934 22.2431C2.20136 21.8378 1.74148 21.8937 1.37056 21.8126C1.18258 21.7784 0.873764 21.9009 0.851945 21.6595C0.835161 21.4614 1.15573 21.4992 1.3135 21.4056C1.40413 21.3552 1.50819 21.3173 1.59211 21.2525C1.80526 21.0886 2.09226 20.9607 2.04527 20.5987C1.9966 20.2367 1.74148 20.1034 1.45784 20.08C1.19098 20.062 1.10538 20.0278 1.14063 19.6496C1.19601 19.0426 0.739494 18.7346 0.460884 18.333C0.360181 18.1871 0.105068 18.052 0.202414 17.8845C0.341719 17.654 0.548159 17.8827 0.717675 17.9152C1.30343 18.0304 1.85058 18.4663 2.49675 17.8683C2.65116 17.726 2.66795 17.971 2.72165 18.0736C2.79382 18.2015 2.86935 18.3348 2.97005 18.414C3.07243 18.4897 3.19496 18.5185 3.35272 18.4555C3.68672 18.3186 3.70854 17.9602 3.727 17.6486C3.74378 17.3676 3.72197 17.0975 3.72364 16.8201C3.72364 16.7319 3.69008 16.6112 3.78574 16.5752C3.83274 16.559 3.90491 16.6472 3.94855 16.7049C4.11806 16.9426 4.26912 17.2037 4.45542 17.4289C4.55444 17.5459 4.75752 17.7116 4.82801 17.6594C5.32817 17.2938 5.30635 17.7999 5.44062 18.0664C5.53125 18.2429 5.61853 18.4411 5.85182 18.3564C6.13883 18.2447 6.20596 17.935 6.21603 17.6918C6.24456 17.1317 6.34862 16.9714 6.78836 17.2127C7.18445 17.4325 7.48656 17.0543 7.59398 16.4653C7.75342 15.6206 7.95651 14.7939 7.74671 14.0339C7.73832 13.9997 7.78699 13.9294 7.80713 13.8772C7.85077 13.9114 7.91455 13.9222 7.9414 13.9709C8.12099 14.2752 8.28043 14.6084 8.48016 14.9002C8.67988 15.1902 8.84604 15.5612 9.31431 15.3072C9.53586 15.1866 9.46872 15.6224 9.55264 15.7845C9.5946 15.862 9.62817 16.0168 9.67348 16.0096C9.78593 15.9916 9.75908 15.8385 9.79097 15.7377C9.81111 15.671 9.85307 15.6098 9.88496 15.5486C9.90845 15.6062 9.9437 15.6584 9.95209 15.7251C9.97727 15.9268 9.89839 16.1735 10.0125 16.341C10.1216 16.1249 10.041 17.0867 10.2408 16.3464C10.2643 16.2618 10.3146 16.2906 10.3566 16.323C10.7107 16.5968 10.8735 16.4887 11.0581 15.8782C11.1068 15.7125 11.0867 15.4477 11.2243 15.4081C11.377 15.3631 11.3334 15.6512 11.3888 15.7827C11.5012 16.0331 11.6003 16.3248 11.8722 16.305C12.1172 16.2834 12.186 15.997 12.2632 15.7485C12.3337 15.5252 12.4059 15.5684 12.4999 15.6638C12.7852 15.9484 12.9597 15.6783 13.0369 15.2856C13.1427 14.7543 13.1192 14.2464 13.0319 13.7691C13.0118 13.6521 12.9379 13.4864 13.0638 13.3963C13.1763 13.3153 13.2132 13.5116 13.2467 13.6179C13.5019 14.4463 13.7687 15.2946 14.0658 16.1447C14.1497 16.3915 14.2554 16.604 14.3662 16.8219C14.4266 16.9408 14.4955 17.0867 14.6364 17.0236C14.7673 16.9642 14.7472 16.7823 14.7875 16.6472C14.8177 16.5482 14.7992 16.3825 14.9067 16.3771C14.9536 16.3753 15.0157 16.5121 15.0258 16.6058C15.0862 17.1389 15.2524 17.6324 15.2155 18.2123C15.2054 18.351 15.2339 18.5347 15.338 18.4789C15.7962 18.2321 15.4924 18.6986 15.4756 18.8013C15.4102 19.1651 15.3044 19.5235 15.2255 19.8891C15.2088 19.9666 15.2272 20.1178 15.2641 20.1358C15.3615 20.1809 15.3632 20.0332 15.4018 19.9557C15.479 19.8009 15.5411 19.6189 15.6451 19.5091C15.8079 19.3362 16.0077 19.1056 16.1772 19.093C16.3115 19.0822 16.204 19.4641 16.2695 19.6388C16.4122 20.026 16.2863 20.7644 16.9325 20.5411C17.0634 20.4961 17.0768 20.7176 17.1137 20.8419C17.2228 21.2039 17.3588 21.6109 17.7079 21.5407C18.0972 21.4416 18.0351 20.9319 18.114 20.5663C18.1241 20.5195 18.1191 20.469 18.1258 20.4204C18.1694 20.1629 17.9982 19.7432 18.1845 19.691C18.3608 19.6406 18.3608 20.1232 18.4262 20.3844C18.537 20.8293 18.6226 21.2939 18.7636 21.7316C18.8341 21.9495 18.9062 22.1638 19.215 22.1332C19.4937 22.1062 19.4383 22.6429 19.5507 22.9167C19.5759 22.9725 19.502 23.1922 19.6212 23.0752C20.0828 22.6231 19.9972 23.1994 19.9787 23.4084C19.9317 23.8874 20.2472 24.0693 20.4134 24.3467C20.5728 24.6151 20.6635 24.2278 20.7054 24.0964C20.8515 23.6281 20.984 23.6299 21.2828 23.9199C21.506 24.1342 21.7444 24.3161 21.9928 24.4728C22.117 24.5502 22.2445 24.6259 22.3737 24.6907C22.503 24.7519 22.6356 24.8078 22.7682 24.86C23.3002 25.0725 23.8574 25.231 24.4079 25.4219C23.7886 25.0419 23.2415 24.5484 22.7094 24.0639C22.4409 23.828 22.1791 23.5632 21.9122 23.3237C21.6453 23.0824 21.3734 22.8572 21.0881 22.6609C20.8632 22.506 21.0428 22.1584 20.8582 21.9549C20.5393 21.6001 20.1633 21.4776 19.779 21.3227C19.5893 21.2543 19.549 21.1751 19.737 20.9949C20.0391 20.7068 19.9569 20.3808 19.8092 20.0566C19.549 19.4875 19.0237 18.9814 18.4463 18.668C18.3003 18.5924 18.1543 18.5167 18.0066 18.4537C17.8606 18.3906 17.7129 18.3402 17.5669 18.3078C17.2765 18.2393 16.9946 18.2357 16.7445 18.3114C16.4927 18.387 16.4004 18.3078 16.3047 18.0196C16.1403 17.5261 15.917 17.1011 15.6468 16.7643C15.3783 16.4221 15.0627 16.1555 14.722 15.9304C14.6398 15.8746 14.4887 15.853 14.529 15.6909C14.571 15.5162 14.712 15.5954 14.8093 15.5756C14.9704 15.5414 15.1299 15.536 15.2893 15.4855C15.964 15.2802 16.2393 14.6967 16.1386 13.8106C16.1268 13.6881 16.1235 13.553 16.0849 13.4558C15.7996 12.7461 15.6267 11.9645 15.4454 11.1918C15.2675 10.412 15.0728 9.67356 14.7271 9.10623C14.6801 9.02878 14.5592 8.95314 14.6532 8.79825C14.7556 8.63255 14.8412 8.77123 14.905 8.84327C15.2205 9.19988 15.6636 9.21609 16.0245 9.46463C16.194 9.5727 16.4759 9.42861 16.4692 9.04319C16.4608 8.16608 16.8099 7.19171 16.632 6.35783C16.5682 6.04805 16.5011 5.70585 16.5867 5.2844C16.8066 5.2898 16.7848 5.73646 16.9543 5.84453C17.0701 5.92738 17.1943 6.06606 17.3487 5.84093C17.5132 5.59598 17.4846 5.30421 17.5216 5.02505C17.676 3.81835 17.8019 2.60804 17.8203 1.48059C17.822 1.42115 17.8656 1.28067 17.8824 1.27167C17.9579 1.23024 17.9495 1.36712 17.9563 1.45177Z" fill="#EA540A"/>
</g>
</svg>
