<svg width="440" height="282" viewBox="0 0 440 282" fill="none" xmlns="http://www.w3.org/2000/svg">
<g opacity="0.4" filter="url(#filter0_f_2025_6)">
<path d="M417.728 220.32L417.739 220.154V110.448C417.739 107.133 414.878 104.437 411.364 104.437C407.828 104.437 404.989 107.133 404.989 110.448V213.381H376.604C371.72 213.381 367.775 216.895 367.775 221.237C367.775 225.579 371.72 229.093 376.604 229.093H408.988C413.872 229.093 417.839 225.579 417.839 221.237C417.839 220.939 417.784 220.64 417.728 220.32Z" fill="#DC780F"/>
<path d="M389.133 263.721C389.133 270.958 383.266 276.814 376.04 276.814C368.803 276.814 362.958 270.958 362.958 263.721V173.428C362.958 166.202 368.803 160.357 376.04 160.357C383.266 160.357 389.133 166.202 389.133 173.428V263.721Z" fill="#383536"/>
<mask id="mask0_2025_6" style="mask-type:luminance" maskUnits="userSpaceOnUse" x="-76" y="18" width="442" height="104">
<path d="M-75.1836 18H365.3V121.419H-75.1836V18Z" fill="white"/>
</mask>
<g mask="url(#mask0_2025_6)">
<path d="M355.374 97.454C355.374 97.454 268.034 95.6309 250.742 79.7645C214.054 46.1421 201.185 18.3868 143.835 18.3868C86.4854 18.3868 73.5877 46.1421 36.9139 79.7645C19.608 95.6309 -67.7038 97.454 -67.7038 97.454C-76.2217 97.454 -74.0602 102.802 -74.0602 109.42C-74.0602 116.016 -76.2217 121.386 -67.7038 121.386H355.374C363.864 121.386 364.76 116.016 364.76 109.42C364.76 102.802 363.864 97.454 355.374 97.454Z" fill="#DC780F"/>
</g>
<path d="M303.915 108.366C303.742 104.494 302.644 101.533 297.201 101.533C297.201 101.533 234.523 100.275 222.105 89.2557C195.769 65.926 186.5 46.6527 145.35 46.6527C104.156 46.6527 94.9154 65.926 68.6082 89.2557C56.1621 100.275 -6.53046 101.533 -6.53046 101.533C-11.9594 101.533 -11.353 104.494 -11.1219 108.366H303.915Z" fill="#F58611"/>
<path d="M299.059 106.162C299.059 106.162 294.719 106.162 287.107 105.934C279.495 105.683 268.627 105.258 255.606 103.95C249.159 103.242 242.105 102.381 234.812 100.681C231.206 99.8091 227.471 98.7302 224.072 96.8231C222.285 95.7333 221.12 94.6872 219.796 93.6519C218.503 92.6166 217.21 91.5704 215.886 90.4806C210.652 86.1434 205.561 81.5554 200.135 77.1092C194.741 72.6629 188.965 68.4019 182.214 65.1762C175.512 61.9287 167.724 59.9998 159.713 59.2914C157.719 59.1607 155.708 58.9645 153.713 58.91C151.686 58.8664 149.66 58.8555 147.665 58.8119H147.394H147.442L146.293 58.8555L144.729 58.91L141.617 59.019L140.069 59.0953L138.665 59.2261L135.888 59.4985C128.404 60.2395 121.446 61.9178 115.493 64.3262C109.525 66.7455 104.53 69.8949 100.11 73.0116C95.7054 76.1284 91.8436 79.2342 88.3807 81.9804C84.9337 84.7049 81.8698 87.1024 79.2526 89.0095C76.6674 90.9274 74.6088 92.4204 73.1247 93.4121L70.9065 94.9269H70.348L70.2842 94.5564C70.2842 94.5564 72.7417 92.1044 77.0185 87.8107C79.125 85.6312 81.6942 83.0157 84.6305 80.008C87.6306 77.0002 90.9978 73.611 95.2746 70.0693C99.4875 66.5384 104.61 62.8223 111.312 59.7927C117.951 56.7087 126.09 54.649 134.755 53.7772L138.058 53.5266C139.159 53.4285 140.213 53.3522 141.186 53.3522H141.266L144.378 53.3195L145.942 53.2868L146.723 53.265H147.697C149.883 53.3522 152.101 53.4503 154.304 53.5266C156.49 53.6682 158.74 53.9625 160.958 54.1804C163.192 54.4202 165.378 54.8997 167.597 55.2702C169.783 55.6952 171.937 56.3273 174.108 56.8395C176.15 57.526 178.289 58.1908 180.283 58.9645C182.182 59.8472 184.257 60.5883 186.012 61.6018C193.369 65.3833 199.226 70.0693 204.492 74.7335C209.774 79.3977 214.609 84.1055 219.556 88.4755C220.753 89.5543 222.014 90.6441 223.259 91.7121C224.535 92.7692 225.764 93.9134 226.881 94.6327C229.466 96.1801 232.849 97.3244 236.169 98.2507C242.919 100.071 249.781 101.139 256.132 102.032C268.851 103.743 279.654 104.495 287.219 104.996C294.767 105.476 299.123 105.628 299.123 105.628L299.506 105.901L299.059 106.162Z" fill="#F9B30A"/>
<path d="M351.845 101.754C351.845 101.754 345.879 101.754 335.491 101.421C325.102 101.043 310.264 100.443 292.507 98.5207C283.65 97.5095 274.063 96.2426 264.104 93.7868C259.168 92.4978 254.059 90.9198 249.38 88.1417C246.962 86.5638 245.388 85.0191 243.6 83.5301C241.825 82.0077 240.037 80.4853 238.248 78.8851C231.079 72.5733 224.125 65.8948 216.742 59.4051C209.373 52.9155 201.46 46.6926 192.26 42.0032C183.102 37.2693 172.499 34.4468 161.553 33.4133C158.792 33.2466 156.087 32.9466 153.326 32.8466C150.564 32.8132 147.817 32.7799 145.084 32.7132H144.669L144.268 32.7354L143.195 32.7688L141.063 32.8466L136.799 33.0133L134.696 33.1133L132.778 33.3244L129.001 33.7133C118.813 34.8023 109.269 37.236 101.184 40.7475C93.0284 44.2812 86.1888 48.8928 80.1648 53.4267C74.1408 57.9716 68.8752 62.4833 64.1533 66.4948C59.4171 70.4842 55.2389 73.9623 51.6617 76.7404C48.1275 79.5408 45.3229 81.7299 43.3054 83.1523C41.3451 84.5858 40.2863 85.3525 40.2863 85.3525H39.4993L39.4277 84.8525C39.4277 84.8525 42.776 81.2521 48.614 74.9736C51.49 71.8399 55.01 67.995 59.0164 63.6167C63.1088 59.2496 67.7162 54.2712 73.5542 49.1373C79.292 44.0034 86.3176 38.5694 95.4466 34.1467C104.518 29.6573 115.636 26.6459 127.427 25.4013L131.963 25.0124C133.436 24.8568 134.896 24.779 136.227 24.779H136.341L142.737 24.6456L143.796 24.6345L144.34 24.6123H144.697L144.84 24.6345H145.141C148.117 24.7679 151.122 24.879 154.141 25.0124C157.175 25.2124 160.194 25.6458 163.227 25.968C166.275 26.3236 169.28 27.0237 172.299 27.546C175.29 28.1683 178.209 29.0684 181.17 29.8351C184.004 30.8352 186.88 31.7909 189.613 32.9466C192.217 34.2245 195.05 35.2913 197.439 36.7804C207.47 42.2699 215.454 49.1373 222.694 55.927C229.892 62.7277 236.531 69.5952 243.256 75.9515C244.873 77.5516 246.604 79.1296 248.322 80.6964C250.039 82.2299 251.713 83.8857 253.258 84.9414C256.792 87.1972 261.4 88.8529 265.95 90.2086C275.15 92.8756 284.551 94.4536 293.194 95.7426C310.55 98.2206 325.303 99.3541 335.634 100.065C345.95 100.743 351.86 100.965 351.86 100.965C352.175 100.965 352.418 101.154 352.404 101.377C352.404 101.588 352.132 101.754 351.845 101.754Z" fill="#EBA809"/>
<mask id="mask1_2025_6" style="mask-type:luminance" maskUnits="userSpaceOnUse" x="-84" y="118" width="455" height="197">
<path d="M-84 118.592H370.957V315H-84V118.592Z" fill="white"/>
</mask>
<g mask="url(#mask1_2025_6)">
<path d="M368.724 288.273C368.724 302.935 371.539 314.813 352.673 314.813H-66.9824C-85.8632 314.813 -81.0577 302.935 -81.0577 288.273V147.839C-81.0577 133.199 -85.8632 121.31 -66.9824 121.31H352.673C371.539 121.31 368.724 133.199 368.724 147.839V288.273Z" fill="#F58611"/>
</g>
<path d="M346.981 308.259H42.0154C34.2037 308.259 31.9938 304.724 31.5298 299.21C32.712 299.254 33.8832 299.265 35.0876 299.265C41.7723 299.265 48.468 298.779 55.2411 298.392C61.3512 298.039 67.4835 297.641 73.6047 297.122H336.661C349.489 297.122 347.589 287.465 347.589 275.576V161.583C347.589 149.672 349.489 140.026 336.661 140.026H334.031C335.39 137.33 336.738 134.49 337.987 131.596H346.981C360.693 131.596 358.671 142.435 358.671 155.826V284.029C358.671 297.42 360.693 308.259 346.981 308.259Z" fill="#F9B30A"/>
<path d="M-68.7885 289.099L-69.1436 288.823C-69.1436 288.823 -69.4396 259.25 -69.9427 214.901C-70.0611 203.838 -70.2091 191.803 -70.3422 179.105C-70.4162 172.773 -70.4606 166.242 -70.5346 159.567C-70.5642 156.218 -70.6086 152.892 -70.7418 149.488C-70.7862 146.062 -70.9194 142.548 -70.0167 138.845C-69.5432 137.022 -68.7885 135.066 -67.1607 133.43C-65.6069 131.806 -63.3576 130.634 -61.0787 130.093C-59.9393 129.827 -58.7998 129.662 -57.6604 129.529C-56.5653 129.474 -55.3667 129.374 -54.3309 129.374C-52.2591 129.374 -50.1578 129.363 -48.0565 129.341C-39.6661 129.286 -31.1424 129.242 -22.5744 129.186C-5.45319 129.076 11.9788 128.988 29.3812 128.877C64.2156 128.634 99.0352 128.291 131.694 128.203C148.046 128.291 163.791 128.214 178.767 128.424C193.742 128.59 207.874 128.744 220.941 128.888C234.022 129.021 245.994 129.341 256.574 129.507C267.199 129.695 276.463 129.905 284.084 130.126C299.311 130.513 308.027 130.833 308.027 130.833L308.323 131.131L308.027 131.397C308.027 131.397 299.311 131.717 284.084 132.104C276.463 132.336 267.199 132.535 256.574 132.723C245.994 132.889 234.022 133.231 220.941 133.342C207.874 133.496 193.742 133.662 178.767 133.806C163.791 134.016 148.046 133.961 131.694 134.038C99.0352 133.961 64.2156 133.618 29.3812 133.364C11.9788 133.253 -5.45319 133.154 -22.5744 133.065C-31.1424 133.01 -39.6661 132.944 -48.0565 132.889C-50.1578 132.889 -52.2591 132.878 -54.3309 132.855H-54.538C-55.4851 132.855 -56.3434 132.933 -57.2461 132.944C-58.1635 133.065 -59.0958 133.154 -59.9393 133.364C-61.6706 133.751 -63.0764 134.524 -64.1567 135.552C-65.2369 136.58 -65.8585 138.039 -66.2876 139.575C-67.1015 142.636 -67.0867 146.084 -67.0571 149.444C-67.0275 152.825 -67.0127 156.251 -67.0275 159.567C-67.1015 166.242 -67.1607 172.773 -67.2347 179.105C-67.3827 191.803 -67.5158 203.838 -67.6342 214.901C-68.1373 259.25 -68.4629 288.823 -68.4629 288.823L-68.7885 289.099Z" fill="#CD6F0E"/>
<path d="M347.863 276.151C347.863 288.16 350.402 297.915 333.26 297.915H-48.6753C-65.832 297.915 -61.4616 288.16 -61.4616 276.151V160.999C-61.4616 148.967 -65.832 139.223 -48.6753 139.223H333.26C350.402 139.223 347.863 148.967 347.863 160.999V276.151Z" fill="#A2360E"/>
<path d="M140.739 295.564C140.739 296.702 139.799 297.641 138.639 297.641C137.501 297.641 136.562 296.702 136.562 295.564V141.595C136.562 140.457 137.501 139.518 138.639 139.518C139.799 139.518 140.739 140.457 140.739 141.595V295.564Z" fill="#A7A5A5"/>
<path d="M41.4002 295.269C41.4002 296.407 40.461 297.346 39.3009 297.346C38.1628 297.346 37.2236 296.407 37.2236 295.269V141.3C37.2236 140.162 38.1628 139.223 39.3009 139.223C40.461 139.223 41.4002 140.162 41.4002 141.3V295.269Z" fill="#A7A5A5"/>
<path d="M252.036 295.564C252.036 296.702 251.097 297.641 249.959 297.641C248.799 297.641 247.882 296.702 247.882 295.564V141.595C247.882 140.457 248.799 139.518 249.959 139.518C251.097 139.518 252.036 140.457 252.036 141.595V295.564Z" fill="#A7A5A5"/>
<mask id="mask2_2025_6" style="mask-type:luminance" maskUnits="userSpaceOnUse" x="382" y="73" width="59" height="60">
<path d="M382.272 73.3341H440.258V132.734H382.272V73.3341Z" fill="white"/>
</mask>
<g mask="url(#mask2_2025_6)">
<path d="M440.147 103.465C440.147 119.364 427.264 132.247 411.364 132.247C395.476 132.247 382.57 119.364 382.57 103.465C382.57 87.5761 395.476 74.6708 411.364 74.6708C427.264 74.6708 440.147 87.5761 440.147 103.465Z" fill="#383536"/>
</g>
<path d="M411.298 129.441C403.685 129.441 396.834 126.17 392.072 120.988C394.779 121.928 397.674 122.469 400.713 122.469C415.143 122.469 426.855 110.779 426.855 96.3269C426.855 89.5207 424.214 83.3111 419.927 78.6594C430.103 82.2283 437.429 91.8962 437.429 103.299C437.429 117.751 425.728 129.441 411.298 129.441Z" fill="#656263"/>
<path d="M385.332 107.133L385.089 106.868C385.089 106.868 385.056 106.183 384.979 104.923C384.968 104.614 384.945 104.271 384.923 103.884C384.945 103.509 384.979 103.1 385.001 102.647C385.056 101.73 385.089 100.724 385.299 99.6415C385.398 99.0891 385.487 98.5145 385.575 97.9399C385.752 97.3543 385.896 96.7577 386.061 96.1168C386.327 94.8683 386.945 93.6529 387.431 92.327C388.083 91.0674 388.669 89.7084 389.531 88.5151C390.315 87.2223 391.299 86.0622 392.26 84.8689C393.321 83.764 394.337 82.5817 395.508 81.5873C396.591 80.5045 397.884 79.6979 399.121 78.9024C400.447 78.3057 401.696 77.6428 403.022 77.3666C403.685 77.1787 404.314 77.0241 404.911 76.8804C405.552 76.8252 406.149 76.7257 406.734 76.6926C407.22 76.6373 407.684 76.6152 408.126 76.6152C408.745 76.6152 409.342 76.6594 409.894 76.6926C410.336 76.7257 410.789 76.781 411.176 76.8252C411.574 76.9136 411.949 76.9909 412.27 77.0903C413.596 77.3997 414.281 77.698 414.281 77.698L414.458 78.0958L414.303 78.2394L414.281 78.2615C414.281 78.2615 413.596 78.6151 412.413 79.0902C411.817 79.2891 411.121 79.5764 410.358 79.941C409.574 80.2614 408.712 80.6039 407.817 81.068C407.364 81.2558 406.9 81.4768 406.414 81.7089C405.939 81.9298 405.475 82.2061 404.966 82.4491C403.961 82.9022 402.989 83.5541 401.906 84.0402C400.878 84.6811 399.718 85.1451 398.635 85.8191C397.497 86.4158 396.481 87.2334 395.431 88.04C394.503 88.935 393.486 89.8189 392.691 90.8464C391.785 91.7967 391.1 92.8905 390.326 93.896C389.719 94.9788 389 96.0064 388.536 97.0781C388.293 97.5974 388.028 98.1167 387.785 98.6029C387.597 99.1332 387.409 99.6415 387.244 100.128C386.857 101.1 386.625 101.995 386.426 102.802C386.216 103.597 386.05 104.348 385.973 104.967C385.763 106.205 385.653 106.912 385.653 106.912L385.332 107.133Z" fill="#302D2D"/>
<path d="M408.259 214.376L408.115 214.221C408.115 214.221 407.276 209.249 406.8 201.813C406.546 198.089 406.359 193.736 406.336 189.073C406.392 184.422 406.657 179.46 406.8 174.488C407.088 164.555 407.331 154.633 407.64 147.175C407.927 139.728 408.115 134.756 408.115 134.756L408.303 134.568L408.469 134.756C408.469 134.756 408.679 139.728 408.933 147.175C409.275 154.633 409.496 164.555 409.795 174.488C409.927 179.46 410.193 184.422 410.226 189.073C410.226 193.736 410.038 198.089 409.795 201.813C409.309 209.249 408.491 214.221 408.469 214.221L408.259 214.376Z" fill="#EBA809"/>
<path d="M383.023 270.151L382.868 269.964C382.868 269.964 382.029 263.5 381.564 253.81C381.299 248.97 381.111 243.302 381.089 237.258C381.145 231.203 381.41 224.729 381.564 218.287C381.841 205.36 382.084 192.443 382.404 182.731C382.68 173.052 382.868 166.599 382.868 166.599L383.056 166.356L383.222 166.599C383.222 166.599 383.432 173.052 383.697 182.731C384.028 192.443 384.249 205.36 384.548 218.287C384.68 224.729 384.945 231.203 384.979 237.258C384.979 243.302 384.791 248.97 384.548 253.81C384.062 263.5 383.244 269.964 383.222 269.964L383.023 270.151Z" fill="#656263"/>
<path d="M-17.0985 241.85C-19.6651 241.85 -22.1851 241.64 -24.6585 241.22C-27.1318 240.8 -29.4185 240.194 -31.5185 239.4C-33.6185 238.607 -35.4385 237.674 -36.9785 236.6L-33.4085 226.59C-31.9618 227.524 -30.3518 228.34 -28.5785 229.04C-26.8051 229.74 -24.9385 230.3 -22.9785 230.72C-21.0185 231.094 -19.0585 231.28 -17.0985 231.28C-14.0185 231.28 -11.8718 230.884 -10.6585 230.09C-9.39846 229.25 -8.76846 228.224 -8.76846 227.01C-8.76846 226.264 -8.95512 225.634 -9.32846 225.12C-9.70179 224.607 -10.3318 224.164 -11.2185 223.79C-12.0585 223.37 -13.2018 223.02 -14.6485 222.74L-22.8385 220.99C-27.3185 220.057 -30.6551 218.424 -32.8485 216.09C-35.0418 213.757 -36.1385 210.747 -36.1385 207.06C-36.1385 203.794 -35.2751 200.97 -33.5485 198.59C-31.7751 196.164 -29.3251 194.297 -26.1985 192.99C-23.0251 191.637 -19.3851 190.96 -15.2785 190.96C-12.9918 190.96 -10.7985 191.17 -8.69846 191.59C-6.55179 192.01 -4.56846 192.64 -2.74846 193.48C-0.928454 194.274 0.611545 195.207 1.87154 196.28L-1.69846 205.66C-3.47179 204.354 -5.54846 203.35 -7.92846 202.65C-10.2618 201.904 -12.7585 201.53 -15.4185 201.53C-17.1451 201.53 -18.6151 201.74 -19.8285 202.16C-21.0418 202.534 -21.9751 203.094 -22.6285 203.84C-23.2351 204.587 -23.5385 205.45 -23.5385 206.43C-23.5385 207.41 -23.1418 208.25 -22.3485 208.95C-21.5085 209.604 -19.9918 210.164 -17.7985 210.63L-9.67846 212.38C-5.15179 213.36 -1.76845 214.97 0.471545 217.21C2.71154 219.45 3.83154 222.367 3.83154 225.96C3.83154 229.134 2.96821 231.934 1.24154 234.36C-0.485124 236.74 -2.91179 238.584 -6.03846 239.89C-9.16512 241.197 -12.8518 241.85 -17.0985 241.85Z" fill="#FF8000"/>
<path d="M65.9478 241.08V191.73H89.6778C93.4111 191.73 96.5844 192.384 99.1978 193.69C101.811 194.95 103.794 196.794 105.148 199.22C106.548 201.6 107.248 204.494 107.248 207.9C107.248 211.214 106.548 214.107 105.148 216.58C103.794 219.007 101.811 220.874 99.1978 222.18C96.5844 223.44 93.4111 224.07 89.6778 224.07H78.8278V241.08H65.9478ZM78.8278 214.2H87.4378C89.8644 214.2 91.7311 213.687 93.0378 212.66C94.3444 211.587 94.9978 210 94.9978 207.9C94.9978 205.754 94.3444 204.167 93.0378 203.14C91.7311 202.114 89.8644 201.6 87.4378 201.6H78.8278V214.2Z" fill="#FF8000"/>
<path d="M185.084 241.08V191.73H197.964V241.08H185.084Z" fill="#FF8000"/>
<path d="M268.722 241.08V191.73H278.172L302.812 222.46H300.852V191.73H312.752V241.08H303.372L278.732 210.28H280.692V241.08H268.722Z" fill="#FF8000"/>
</g>
<defs>
<filter id="filter0_f_2025_6" x="-99.6045" y="0.386841" width="557.751" height="332.426" filterUnits="userSpaceOnUse" color-interpolation-filters="sRGB">
<feFlood flood-opacity="0" result="BackgroundImageFix"/>
<feBlend mode="normal" in="SourceGraphic" in2="BackgroundImageFix" result="shape"/>
<feGaussianBlur stdDeviation="9" result="effect1_foregroundBlur_2025_6"/>
</filter>
</defs>
</svg>
